<svg id="Layer_1" data-name="Layer 1" xmlns="http://www.w3.org/2000/svg" viewBox="0 0 500 500"><defs><style>.cls-1,.cls-3{fill:#ff0083;}.cls-1{opacity:0.4;}.cls-2{fill:#fff;}.cls-4{fill:#1b242e;}</style></defs><path class="cls-1" d="M280,287,163,216l-27,23.32V344.28s31,11.66,35,50.88V410H278.67c.82-2.29,1.6-4.75,2.33-7.42C290,369.67,280,287,280,287Z"/><g id="LMbZCR"><path class="cls-2" d="M344.72,45.77C322.84,94.05,397,121.24,337,172.91c-5.95-8.37-40-13.91-39-44.91-41.53,2-11.3-57.24-7.95-59.55-.51,5.33.13,10.11,3.2,14.24A30.45,30.45,0,0,0,306,92.52C304.23,84.4,313.76,62.74,344.72,45.77Z"/></g><path class="cls-3" d="M158,300c8,2.34-2,31.55,11,32.61-14,25.45,23-8.48,23-8.48,2-3.18,1.23,4.91,4,4.87-5.95,6.31,3.93,8.72,5.82,13.69-.81,2.37-3.76,14.11,5.18,13.25-11,15.9,18.94-5.88,15,13.06,4.49-1.48,25,4.2,37-17,13.05,17.16,8.34,42.48,6.6,58h34.23c.17-2-2.83-22,21.17-30-6,11-3,22,3,30h27.92L351,127s-13,30.74-32,30.74c8-18,0-46.64,0-46.64s-5.51,16.31-10,15.9c2-9.54-7.1-17-7.1-17s.1,7.42-3.9,9.54c1-4.24-2.31-9.54-2.31-9.54H136V272.28s7-1.15,11-13.87C163,264.77,151.76,298.17,158,300Z"/><path class="cls-4" d="M227.33,185.07H182a3,3,0,1,1,0-5.94h45.33a3,3,0,0,1,0,5.94Z"/><path class="cls-4" d="M292.22,210.37H182a3,3,0,1,1,0-5.94H292.22a3,3,0,0,1,0,5.94Z"/><path class="cls-4" d="M318,235.67H182a3,3,0,0,1,0-5.94H318a3,3,0,1,1,0,5.94Z"/><path class="cls-4" d="M276,261H182a3,3,0,1,1,0-5.94h94a3,3,0,1,1,0,5.94Z"/><path class="cls-2" d="M244.18,329.11c-8.91,10.82-26.3,15.69-36.91,17.74a61.33,61.33,0,0,0-2.08-16.21c-4.36-16.5-17.82-32-23.09-34.23a9.12,9.12,0,0,0,.21,1.19,42.07,42.07,0,0,1,2,12.83,32.22,32.22,0,0,1-7.11,21.16,12.43,12.43,0,0,1-1.47,1.33,6.38,6.38,0,0,1,.13-2.4c.15-.78.29-1.56.41-2.35a79.13,79.13,0,0,0-1.11-28.4c-2.08-9.75-5-19.16-10.23-27.75a55.6,55.6,0,0,0-12.18-14,69.34,69.34,0,0,0-28-13.65,23,23,0,0,0-2.39-.32c1.5,1.77,2.87,3.14,3.94,4.71,4.5,6.6,5.71,14,5,21.77a63.89,63.89,0,0,1-6.42,22.5c-4,8.09-7.94,16.16-10.77,24.77-4,12.15-6.51,24.49-4.19,37.44a42.39,42.39,0,0,0,12,23.25c8,7.89,17.72,12.35,28.36,15,1.09.26,2.22.36,3.16.51-3.39-4.76-6.91-9.32-10-14.15a49.83,49.83,0,0,1-8-24.53c-.55-10,2.37-18.87,7.8-27a7.89,7.89,0,0,1,1.16-1.11c.31.83.52,1.34.69,1.88a28.16,28.16,0,0,0,5.64,9.73A65,65,0,0,0,166.53,352a30.14,30.14,0,0,1,11.66,13.77c1.38,3.12,2.39,6.4,3.72,10.05,4.79-7.35,4-15.12,1.75-23.13,17.58,4.1,13.76,28.91,17.58,34.64,24.81-23.86,28.63-10.5,24.81-1.91C241.67,391.5,254.68,361.55,244.18,329.11Z"/><path class="cls-2" d="M362.82,423.87A10.55,10.55,0,0,1,377,428.59c2.61,5.21.61,10.37-4.61,13s-14.05,2.85-16.66-2.36S357.61,426.48,362.82,423.87Z"/><polygon class="cls-2" points="418.87 402.33 423.23 408.14 372.14 434.39 369.97 426.92 418.87 402.33"/><path class="cls-2" d="M354.7,420.1c4.24-4.21,11.94-6.06,16.39-3.65,8.82-3.86,7.53-30.89-6.14-38.62,2.28,6.44,1.07,15.74-3,18,1.43-6.75-1.63-20.35-28.44-26.35,12.37,24.75-1.44,22.24,0,45.08.71,11.18,7.05,16.08,14.89,21.21C347.9,431.33,350,424.8,354.7,420.1Z"/></svg>