<svg id="Layer_1" data-name="Layer 1" xmlns="http://www.w3.org/2000/svg" viewBox="0 0 500 500"><defs><style>.cls-1,.cls-2{fill:#ff0083;}.cls-2{opacity:0.7;}.cls-3,.cls-4{fill:none;stroke-linecap:round;stroke-miterlimit:10;}.cls-3{stroke:#1b242e;stroke-width:6.29px;}.cls-4{stroke:#fff;stroke-width:3.92px;}.cls-5{fill:#fff;}.cls-6{fill:#1b242e;}</style></defs><rect class="cls-1" x="130.71" y="106.29" width="226.53" height="320.92"/><rect class="cls-2" x="124.42" y="100" width="239.12" height="333.51"/><line class="cls-3" x1="161.12" y1="189.14" x2="214.61" y2="189.14"/><line class="cls-3" x1="161.12" y1="213.27" x2="291.17" y2="213.27"/><line class="cls-3" x1="161.12" y1="237.39" x2="321.58" y2="237.39"/><line class="cls-3" x1="161.12" y1="261.51" x2="291.17" y2="261.51"/><path class="cls-4" d="M225.9,371.56c9.15,15.69,24.85,19.61,44.46,17,27.35-3.65,20.92-24.85,0-23.54s-7.85,35.31,61.46,20.92"/><rect class="cls-5" x="371.43" y="214.02" width="32.08" height="95.68" transform="translate(252.27 -185.83) rotate(39.14)"/><path class="cls-5" d="M345.2,339.19,319,350.69a3.06,3.06,0,0,1-3.34-2.67l4.68-29.08,20.24-24.87,24.88,20.25Z"/><path class="cls-5" d="M437.61,175.4h0a16,16,0,0,1,16,16V225.1a0,0,0,0,1,0,0H421.57a0,0,0,0,1,0,0V191.44a16,16,0,0,1,16-16Z" transform="translate(224.63 -231.31) rotate(39.14)"/><path class="cls-6" d="M326.3,138.63v6.19c3.11,1,5.75,3.43,5.75,7v13.8c0,4.69,1.43,7.47-2.7,7.47h-28c-4.13,0-3.78-2.78-3.78-7.47v-13.8c0-3.61,2.65-6.09,5.75-7v-6.19a11.5,11.5,0,0,1,23,0Zm-17.25,0v5.75h11.5v-5.75a5.75,5.75,0,0,0-11.5,0Z"/></svg>