<svg id="Layer_1" data-name="Layer 1" xmlns="http://www.w3.org/2000/svg" viewBox="0 0 526 526">
  <defs>
    <style>
      .cls-2 {
        fill: #ff0083;
      }
      .cls-3 {
        fill: #fff;
        stroke: #1b242e;
        stroke-miterlimit: 10;
        stroke-width: 8.71px;
      }
    </style>
  </defs>
  <polygon
    class="cls-2"
    points="256.5 338.59 468.65 61.75 143.5 285.59 47.5 251.59 478.5 51.78 381.5 417.59 256.5 338.59"
  />
  <g id="LMbZCR">
    <path
      class="cls-3"
      d="M267.07,431.37c-3.17-8.46-5.57-16.1-8.84-23.33-6-13.28-15-24.21-27.37-31.83-13.7-8.41-26.52-17.91-37.05-30.27-5.7-6.7-10.58-14-13.3-22.56-.39-1.23-.9-2.43-1.62-4.35a18.72,18.72,0,0,0-2.68,2.59c-12.49,19-19.13,39.65-17.69,62.9a116,116,0,0,0,19.09,57c7.28,11.18,15.55,21.71,23.52,32.74-2.17-.33-4.8-.54-7.35-1.15-24.8-5.89-47.53-16.09-66.25-34.33-15.24-14.85-24.5-33-28.41-53.87-5.63-30.11,0-58.87,9.08-87.2,6.44-20.09,15.57-38.94,24.65-57.84a148.66,148.66,0,0,0,14.53-52.46c1.47-18.08-1.49-35.29-12.07-50.58-2.52-3.64-5.74-6.79-9.25-10.88a54.75,54.75,0,0,1,5.56.7c24,5.68,46.07,15.54,65.47,31.27a128.93,128.93,0,0,1,28.6,32.28C238.06,210.05,245,231.9,250,254.54c4.85,21.91,6.21,43.9,3.08,66.07-.26,1.83-.58,3.66-.91,5.48a14.76,14.76,0,0,0-.27,5.58,28,28,0,0,0,3.4-3.11c11.35-14.35,16.51-30.89,16.19-49.38a98.13,98.13,0,0,0-4.85-29.81,18.27,18.27,0,0,1-.5-2.78c12.3,5.1,43.9,40.93,54.33,79.25a142,142,0,0,1,1.61,69.35c-2.78,12.45-12.89,34.77-17.63,39.36-.84-11.9-3.39-22.75-9.72-32.6a80.23,80.23,0,0,0-24-24.44C276.19,396.1,278.09,414.18,267.07,431.37Z"
    />
  </g>
</svg>
