<svg id="Layer_1" data-name="Layer 1" xmlns="http://www.w3.org/2000/svg" viewBox="0 0 526 526"><defs><style>.cls-1{fill:#fff;}.cls-2{fill:#ff0083;}</style></defs><path class="cls-1" d="M308.27,387.87,289.5,351.79c-28.86-7.22-18.76,17.32-41.85,36.08,8.66,7.22,21.6-8.65,30.31-1.44-17.37,18.77,0,17.32-20.9,42.52C294.77,428.29,308.27,387.87,308.27,387.87Z"/><path class="cls-1" d="M71.49,242.85c17.7-14,31.76-11,55.72-28.54C101,202.13,75.12,216.82,71.49,242.85Z"/><polygon class="cls-2" points="90.32 223.33 468.48 79 327.03 408.08 236.1 334.47 445.38 102.09 169.71 255.09 90.32 223.33"/><polygon class="cls-2" points="169.71 255.09 182.7 395.09 236.1 334.47 169.71 255.09"/><path class="cls-1" d="M137.86,324.87C129.8,355.48,97.21,378.48,73,358.12c19.31.29,36-6.4,35.79-13.45-12.6,3.25-12.68.9-21.08,3.07C98.07,320.55,120.3,333.66,137.86,324.87Z"/><path class="cls-1" d="M236.1,314.26c-49.07-24.53-56.29,7.22-56.29,7.22,24.54,8.66-10.1,11.55-23.09,21.65,54.84,8.66-2.89,7.22-17.32,66.39,52-52,105.44-32.12,114-62.06C243.32,331.58,236.1,334.47,236.1,314.26Z"/><path class="cls-1" d="M35.18,413.45C49,410,53,401.88,71,396.7,66.88,414.46,49.54,421.69,35.18,413.45Z"/><path class="cls-1" d="M171.34,234c-9.36,7.86-25.9,10.36-41-7.73-9.69,15.42-5.85,19.86-32.79,36.21a113.85,113.85,0,0,1,24.4-3.43,44.88,44.88,0,0,1-13.15,5.75c10.91,6.26,23.54,3.58,30.78-5.86,7.72-.18,15.13-1.1,24-5.11A110.24,110.24,0,0,1,153.85,271c-1.31,1.88-17.47-2.05-25.24,12.19,16.83-7.77,18.34-3.34,16.84-1.71-9.3,10.14-20.44,18.22-33.67,26.31,17.41,5.44,51.18-.12,67.64-9.38-4-13.6,1.75-22,9.67-27.14a45.57,45.57,0,0,0-1,11c5.15-7.17,5.19-8,10.46-10.69C198.52,252.12,192.05,228.81,171.34,234Z"/><path class="cls-1" d="M179.51,420.39c12.27-9.52,14.42-25.63,42.35-24.56C212.19,413,202.52,417.32,179.51,420.39Z"/></svg>