<svg id="Layer_1" data-name="Layer 1" xmlns="http://www.w3.org/2000/svg" viewBox="0 0 526 526"><defs><style>.cls-1{fill:#1b242e;}.cls-2{fill:#ff0083;}.cls-3{fill:#fff;stroke:#1b242e;stroke-miterlimit:10;stroke-width:8.02px;}</style></defs><rect class="cls-1" width="526" height="526"/><polygon class="cls-2" points="46.56 239.87 479.44 74.65 317.52 451.35 213.43 367.09 453 101.08 137.43 276.22 46.56 239.87"/><g id="LMbZCR"><path class="cls-3" d="M204.81,435.65c0-8.32.4-15.68-.08-23-.89-13.39-5.09-25.71-13.34-36.29-9.1-11.67-17.09-24-22.18-38.06-2.76-7.62-4.6-15.49-4.19-23.74.06-1.19,0-2.39,0-4.28a17.33,17.33,0,0,0-3.16,1.37c-16.88,12.32-29.29,28-35.55,48.54a106.9,106.9,0,0,0-1.92,55.27c2.67,12,6.4,23.75,9.72,35.84-1.77-1-4-2-6-3.37-19.48-13.08-35.79-29.22-46.05-51-8.35-17.72-10.49-36.34-7.12-55.63,4.86-27.78,19-50.76,36-72.26,12-15.25,26-28.56,39.92-41.93a136.78,136.78,0,0,0,29.46-40.55c7.11-15.12,10.11-30.92,5.92-47.51-1-4-2.76-7.71-4.47-12.37,1.94,1,3.34,1.57,4.57,2.39,18.83,12.64,34.71,28.28,46.37,48.1A118.79,118.79,0,0,1,247,214.28c4.25,21.15,3.16,42.21.17,63.36-2.89,20.46-8.82,39.87-18.67,58-.82,1.5-1.68,3-2.55,4.43a13.61,13.61,0,0,0-2,4.73,25.15,25.15,0,0,0,3.94-1.59c14.42-8.71,24.2-21.31,29.89-37.36a90.07,90.07,0,0,0,5.44-27.27,18.45,18.45,0,0,1,.47-2.56c9,8.37,24.65,49.47,21.28,85.88a130.82,130.82,0,0,1-21,60.33C257.5,432,241.58,448,236,450.45c3.11-10.53,4.41-20.72,2.14-31.25a73.87,73.87,0,0,0-12.79-28.81C224.06,408.18,219.87,424.38,204.81,435.65Z"/></g></svg>