<svg id="Layer_1" data-name="Layer 1" xmlns="http://www.w3.org/2000/svg" viewBox="0 0 500 500"><defs><style>.cls-1,.cls-3,.cls-4{fill:#ff0083;}.cls-2{fill:#fff;}.cls-3{opacity:0.7;}.cls-4{opacity:0.4;}</style></defs><polygon class="cls-1" points="285.05 253.37 415.92 82.59 215.35 220.67 156.13 199.7 422 76.44 362.16 302.1 285.05 253.37"/><path class="cls-2" d="M76.33,431.33,227.46,276.46a5,5,0,0,1,7.16,7l-.08.09L79.67,434.67a2.36,2.36,0,0,1-3.34-3.34Z"/><path class="cls-2" d="M94.09,335.28l100.58-93a5,5,0,1,1,6.79,7.34l-.13.12L97.39,339a2.48,2.48,0,0,1-3.3-3.7Z"/><path class="cls-2" d="M179.15,397.25,283.37,283.56a5,5,0,0,1,7.37,6.76l-.11.12L182.85,400.75a2.55,2.55,0,0,1-3.7-3.5Z"/><polygon class="cls-3" points="215.35 220.67 248 261 415.92 82.59 215.35 220.67"/><polygon class="cls-4" points="248 261 285.05 253.37 415.92 82.59 248 261"/></svg>