<?xml version="1.0" encoding="UTF-8"?><svg id="Layer_1" xmlns="http://www.w3.org/2000/svg" viewBox="0 0 1030 320"><defs><style>.cls-1{fill:#fff;}.cls-2{fill:#ff0083;}.cls-3{stroke-width:3.99px;}.cls-3,.cls-4,.cls-5{fill:none;stroke:#fff;stroke-miterlimit:10;}.cls-4{stroke-width:4.1px;}.cls-5{stroke-width:4.29px;}</style></defs><g><path class="cls-2" d="m704.88,258.13l-6.41-19.54h3.28l3.11,9.66,1.88,6.8h.11l1.9-6.8,3.11-9.66h3.19l-6.5,19.54h-3.67Z"/><path class="cls-2" d="m722.55,258.47c-1.05,0-1.98-.18-2.8-.53-.82-.35-1.52-.86-2.1-1.53-.58-.66-1.02-1.46-1.33-2.41-.31-.94-.46-1.99-.46-3.15s.15-2.21.46-3.15c.31-.94.75-1.75,1.33-2.41.58-.66,1.28-1.17,2.1-1.53.82-.35,1.75-.53,2.8-.53s2,.19,2.81.56c.81.37,1.49.89,2.03,1.55.54.66.95,1.43,1.22,2.31s.41,1.82.41,2.83v1.15h-10v.47c0,1.11.33,2.03.99,2.74.66.71,1.61,1.07,2.84,1.07.9,0,1.65-.19,2.27-.58.62-.39,1.14-.92,1.57-1.59l1.79,1.77c-.54.9-1.33,1.62-2.35,2.15-1.03.53-2.22.8-3.58.8Zm0-12.85c-.52,0-1,.09-1.44.28s-.81.45-1.12.78-.55.74-.71,1.21-.25.98-.25,1.54v.2h6.78v-.28c0-1.12-.29-2.02-.87-2.7-.58-.68-1.37-1.02-2.38-1.02Z"/><path class="cls-2" d="m732.41,258.13v-14.56h3.05v2.8h.14c.21-.75.63-1.4,1.29-1.96s1.56-.84,2.72-.84h.81v2.94h-1.2c-1.21,0-2.14.2-2.79.59-.64.39-.97.97-.97,1.74v9.3h-3.05Z"/><path class="cls-2" d="m747.75,258.47c-1.38,0-2.54-.24-3.47-.73s-1.75-1.16-2.44-2.02l1.96-1.79c.54.65,1.14,1.16,1.81,1.53.66.36,1.43.54,2.31.54s1.56-.17,2-.52.66-.83.66-1.44c0-.47-.15-.86-.46-1.19-.31-.33-.84-.54-1.61-.63l-1.34-.17c-1.49-.19-2.67-.62-3.51-1.3-.85-.68-1.27-1.69-1.27-3.04,0-.71.13-1.34.39-1.89.26-.55.63-1.02,1.11-1.4.48-.38,1.04-.68,1.71-.88.66-.21,1.4-.31,2.2-.31,1.31,0,2.38.21,3.21.62.83.41,1.57.98,2.23,1.71l-1.88,1.79c-.37-.45-.86-.83-1.47-1.16-.61-.33-1.3-.49-2.09-.49-.84,0-1.46.17-1.86.5s-.6.77-.6,1.31.18.98.53,1.26c.35.28.92.48,1.71.62l1.34.17c1.61.24,2.78.71,3.51,1.41s1.11,1.64,1.11,2.81c0,.71-.14,1.35-.41,1.92-.27.57-.66,1.06-1.16,1.47-.5.41-1.11.73-1.82.95-.71.22-1.5.34-2.38.34Z"/><path class="cls-2" d="m762.59,258.47c-1.04,0-1.98-.18-2.8-.53-.82-.35-1.51-.86-2.07-1.53-.56-.66-.99-1.46-1.29-2.41-.3-.94-.45-1.99-.45-3.15s.15-2.21.45-3.15c.3-.94.73-1.75,1.29-2.41.56-.66,1.25-1.17,2.07-1.53.82-.35,1.75-.53,2.8-.53,1.46,0,2.65.33,3.58.98.93.65,1.61,1.52,2.04,2.6l-2.52,1.18c-.21-.67-.56-1.21-1.08-1.61-.51-.4-1.19-.6-2.03-.6-1.12,0-1.96.35-2.53,1.05-.57.7-.85,1.61-.85,2.72v2.6c0,1.12.28,2.03.85,2.72.57.7,1.41,1.05,2.53,1.05.9,0,1.61-.22,2.14-.66.53-.44.96-1.02,1.27-1.75l2.32,1.23c-.49,1.2-1.21,2.12-2.18,2.76-.97.64-2.16.96-3.56.96Z"/><path class="cls-2" d="m771.24,237.41h3.05v8.57h.14c.32-.78.8-1.44,1.44-1.96.64-.52,1.53-.78,2.65-.78,1.49,0,2.66.49,3.49,1.47.83.98,1.25,2.38,1.25,4.19v9.24h-3.05v-8.88c0-2.26-.91-3.39-2.74-3.39-.39,0-.78.05-1.16.15-.38.1-.72.26-1.02.46s-.54.47-.71.78c-.18.32-.27.68-.27,1.09v9.77h-3.05v-20.72Z"/><path class="cls-2" d="m790.59,258.13c-1.05,0-1.83-.27-2.34-.8-.51-.53-.77-1.27-.77-2.23v-17.7h3.05v18.23h2.02v2.49h-1.96Z"/><path class="cls-2" d="m804.28,255.72h-.11c-.13.36-.3.7-.52,1.04-.21.34-.49.63-.81.88-.33.25-.72.45-1.18.6s-.98.22-1.58.22c-1.51,0-2.68-.49-3.51-1.46-.83-.97-1.25-2.36-1.25-4.17v-9.27h3.05v8.88c0,2.26.93,3.39,2.8,3.39.39,0,.77-.05,1.15-.15.37-.1.7-.26.99-.46.29-.21.52-.47.7-.79.18-.32.27-.69.27-1.12v-9.74h3.05v14.56h-3.05v-2.41Zm-5.71-14.67c-.63,0-1.08-.14-1.34-.42-.26-.28-.39-.63-.39-1.06v-.5c0-.43.13-.78.39-1.06.26-.28.71-.42,1.34-.42s1.08.14,1.34.42c.26.28.39.63.39,1.06v.5c0,.43-.13.78-.39,1.06-.26.28-.71.42-1.34.42Zm5.6,0c-.63,0-1.08-.14-1.34-.42-.26-.28-.39-.63-.39-1.06v-.5c0-.43.13-.78.39-1.06.26-.28.71-.42,1.34-.42s1.08.14,1.34.42c.26.28.39.63.39,1.06v.5c0,.43-.13.78-.39,1.06-.26.28-.71.42-1.34.42Z"/><path class="cls-2" d="m816.32,258.47c-1.38,0-2.54-.24-3.47-.73s-1.75-1.16-2.44-2.02l1.96-1.79c.54.65,1.14,1.16,1.81,1.53.66.36,1.43.54,2.31.54s1.56-.17,2-.52.66-.83.66-1.44c0-.47-.15-.86-.46-1.19-.31-.33-.84-.54-1.61-.63l-1.34-.17c-1.49-.19-2.67-.62-3.51-1.3-.85-.68-1.27-1.69-1.27-3.04,0-.71.13-1.34.39-1.89.26-.55.63-1.02,1.11-1.4.48-.38,1.04-.68,1.71-.88.66-.21,1.4-.31,2.2-.31,1.31,0,2.38.21,3.21.62.83.41,1.57.98,2.23,1.71l-1.88,1.79c-.37-.45-.86-.83-1.47-1.16-.61-.33-1.3-.49-2.09-.49-.84,0-1.46.17-1.86.5s-.6.77-.6,1.31.18.98.53,1.26c.35.28.92.48,1.71.62l1.34.17c1.61.24,2.78.71,3.51,1.41s1.11,1.64,1.11,2.81c0,.71-.14,1.35-.41,1.92-.27.57-.66,1.06-1.16,1.47-.5.41-1.11.73-1.82.95-.71.22-1.5.34-2.38.34Z"/><path class="cls-2" d="m829.99,258.47c-1.38,0-2.54-.24-3.47-.73s-1.75-1.16-2.44-2.02l1.96-1.79c.54.65,1.14,1.16,1.81,1.53.66.36,1.43.54,2.31.54s1.56-.17,2-.52.66-.83.66-1.44c0-.47-.15-.86-.46-1.19-.31-.33-.84-.54-1.61-.63l-1.34-.17c-1.49-.19-2.67-.62-3.51-1.3-.85-.68-1.27-1.69-1.27-3.04,0-.71.13-1.34.39-1.89.26-.55.63-1.02,1.11-1.4.48-.38,1.04-.68,1.71-.88.66-.21,1.4-.31,2.2-.31,1.31,0,2.38.21,3.21.62.83.41,1.57.98,2.23,1.71l-1.88,1.79c-.37-.45-.86-.83-1.47-1.16-.61-.33-1.3-.49-2.09-.49-.84,0-1.46.17-1.86.5s-.6.77-.6,1.31.18.98.53,1.26c.35.28.92.48,1.71.62l1.34.17c1.61.24,2.78.71,3.51,1.41s1.11,1.64,1.11,2.81c0,.71-.14,1.35-.41,1.92-.27.57-.66,1.06-1.16,1.47-.5.41-1.11.73-1.82.95-.71.22-1.5.34-2.38.34Z"/><path class="cls-2" d="m844.91,258.47c-1.05,0-1.98-.18-2.8-.53-.82-.35-1.52-.86-2.1-1.53-.58-.66-1.02-1.46-1.33-2.41-.31-.94-.46-1.99-.46-3.15s.15-2.21.46-3.15c.31-.94.75-1.75,1.33-2.41.58-.66,1.28-1.17,2.1-1.53.82-.35,1.75-.53,2.8-.53s2,.19,2.81.56c.81.37,1.49.89,2.03,1.55.54.66.95,1.43,1.22,2.31s.41,1.82.41,2.83v1.15h-10v.47c0,1.11.33,2.03.99,2.74.66.71,1.61,1.07,2.84,1.07.9,0,1.65-.19,2.27-.58.62-.39,1.14-.92,1.57-1.59l1.79,1.77c-.54.9-1.33,1.62-2.35,2.15-1.03.53-2.22.8-3.58.8Zm0-12.85c-.52,0-1,.09-1.44.28s-.81.45-1.12.78-.55.74-.71,1.21-.25.98-.25,1.54v.2h6.78v-.28c0-1.12-.29-2.02-.87-2.7-.58-.68-1.37-1.02-2.38-1.02Z"/><path class="cls-2" d="m857.87,258.13c-1.05,0-1.83-.27-2.34-.8-.51-.53-.77-1.27-.77-2.23v-17.7h3.05v18.23h2.02v2.49h-1.96Z"/><path class="cls-2" d="m871.57,255.72h-.11c-.13.36-.3.7-.52,1.04-.21.34-.49.63-.81.88-.33.25-.72.45-1.18.6s-.98.22-1.58.22c-1.51,0-2.68-.49-3.51-1.46-.83-.97-1.25-2.36-1.25-4.17v-9.27h3.05v8.88c0,2.26.93,3.39,2.8,3.39.39,0,.77-.05,1.15-.15.37-.1.7-.26.99-.46.29-.21.52-.47.7-.79.18-.32.27-.69.27-1.12v-9.74h3.05v14.56h-3.05v-2.41Z"/><path class="cls-2" d="m878.99,258.13v-14.56h3.05v2.41h.14c.32-.78.8-1.44,1.44-1.96.64-.52,1.53-.78,2.65-.78,1.49,0,2.66.49,3.49,1.47.83.98,1.25,2.38,1.25,4.19v9.24h-3.05v-8.85c0-2.28-.91-3.42-2.74-3.42-.39,0-.78.05-1.16.15-.38.1-.72.26-1.02.46s-.54.47-.71.78c-.18.32-.27.69-.27,1.12v9.74h-3.05Z"/><path class="cls-2" d="m907.99,259.5c0,1.51-.58,2.65-1.74,3.42s-3.04,1.15-5.66,1.15c-1.19,0-2.21-.08-3.04-.24-.83-.16-1.51-.39-2.04-.69-.53-.3-.92-.66-1.16-1.09-.24-.43-.36-.92-.36-1.48,0-.8.22-1.43.66-1.88.44-.45,1.05-.76,1.83-.92v-.31c-1.1-.36-1.65-1.1-1.65-2.24,0-.75.25-1.32.76-1.72.5-.4,1.11-.69,1.82-.85v-.11c-.86-.41-1.52-.98-1.97-1.72-.46-.74-.69-1.6-.69-2.59,0-1.49.5-2.7,1.5-3.61,1-.91,2.43-1.37,4.3-1.37,1.03,0,1.9.15,2.63.45v-.39c0-.65.15-1.16.46-1.53.31-.36.79-.54,1.44-.54h2.24v2.46h-2.97v.59c.65.43,1.16.99,1.51,1.67.35.68.53,1.44.53,2.28,0,1.47-.5,2.66-1.51,3.57-1.01.9-2.45,1.36-4.31,1.36-.71,0-1.34-.07-1.9-.22-.37.13-.7.31-.98.55-.28.23-.42.54-.42.91s.18.67.53.84.86.25,1.51.25h3.58c1.79,0,3.09.36,3.89,1.08s1.2,1.7,1.2,2.95Zm-2.86.34c0-.5-.19-.9-.57-1.2-.38-.3-1.08-.45-2.09-.45h-4.93c-.67.39-1.01.95-1.01,1.68,0,.6.24,1.08.71,1.44.48.36,1.28.54,2.42.54h1.9c2.37,0,3.56-.67,3.56-2.02Zm-4.56-8.9c.9,0,1.59-.2,2.09-.6.49-.4.74-1.02.74-1.86v-.56c0-.84-.25-1.46-.74-1.86-.5-.4-1.19-.6-2.09-.6s-1.59.2-2.09.6c-.5.4-.74,1.02-.74,1.86v.56c0,.84.25,1.46.74,1.86.49.4,1.19.6,2.09.6Z"/><path class="cls-2" d="m914.88,258.47c-1.38,0-2.54-.24-3.47-.73s-1.75-1.16-2.44-2.02l1.96-1.79c.54.65,1.14,1.16,1.81,1.53.66.36,1.43.54,2.31.54s1.56-.17,2-.52.66-.83.66-1.44c0-.47-.15-.86-.46-1.19-.31-.33-.84-.54-1.61-.63l-1.34-.17c-1.49-.19-2.67-.62-3.51-1.3-.85-.68-1.27-1.69-1.27-3.04,0-.71.13-1.34.39-1.89.26-.55.63-1.02,1.11-1.4.48-.38,1.04-.68,1.71-.88.66-.21,1.4-.31,2.2-.31,1.31,0,2.38.21,3.21.62.83.41,1.57.98,2.23,1.71l-1.88,1.79c-.37-.45-.86-.83-1.47-1.16-.61-.33-1.3-.49-2.09-.49-.84,0-1.46.17-1.86.5s-.6.77-.6,1.31.18.98.53,1.26c.35.28.92.48,1.71.62l1.34.17c1.61.24,2.78.71,3.51,1.41s1.11,1.64,1.11,2.81c0,.71-.14,1.35-.41,1.92-.27.57-.66,1.06-1.16,1.47-.5.41-1.11.73-1.82.95-.71.22-1.5.34-2.38.34Z"/><path class="cls-2" d="m929.72,258.47c-1.04,0-1.98-.18-2.8-.53-.82-.35-1.51-.86-2.07-1.53-.56-.66-.99-1.46-1.29-2.41-.3-.94-.45-1.99-.45-3.15s.15-2.21.45-3.15c.3-.94.73-1.75,1.29-2.41.56-.66,1.25-1.17,2.07-1.53.82-.35,1.75-.53,2.8-.53,1.46,0,2.65.33,3.58.98.93.65,1.61,1.52,2.04,2.6l-2.52,1.18c-.21-.67-.56-1.21-1.08-1.61-.51-.4-1.19-.6-2.03-.6-1.12,0-1.96.35-2.53,1.05-.57.7-.85,1.61-.85,2.72v2.6c0,1.12.28,2.03.85,2.72.57.7,1.41,1.05,2.53,1.05.9,0,1.61-.22,2.14-.66.53-.44.96-1.02,1.27-1.75l2.32,1.23c-.49,1.2-1.21,2.12-2.18,2.76-.97.64-2.16.96-3.56.96Z"/><path class="cls-2" d="m943.92,258.47c-1.01,0-1.93-.18-2.76-.53-.83-.35-1.54-.86-2.11-1.53-.58-.66-1.03-1.46-1.34-2.41-.32-.94-.48-1.99-.48-3.15s.16-2.21.48-3.15c.32-.94.77-1.75,1.34-2.41.58-.66,1.28-1.17,2.11-1.53.83-.35,1.75-.53,2.76-.53s1.93.18,2.76.53c.83.36,1.54.87,2.11,1.53.58.66,1.03,1.46,1.34,2.41.32.94.48,1.99.48,3.15s-.16,2.21-.48,3.15c-.32.94-.77,1.75-1.34,2.41-.58.66-1.28,1.17-2.11,1.53-.83.36-1.75.53-2.76.53Zm0-2.55c1.04,0,1.88-.32,2.52-.96s.95-1.6.95-2.88v-2.45c0-1.28-.32-2.24-.95-2.88-.63-.64-1.47-.96-2.52-.96s-1.89.32-2.52.96c-.63.64-.95,1.6-.95,2.88v2.45c0,1.28.32,2.24.95,2.88s1.47.96,2.52.96Z"/><path class="cls-2" d="m963.15,255.72h-.14c-.32.86-.84,1.53-1.55,2.02-.72.48-1.56.73-2.53.73-1.85,0-3.28-.67-4.28-2s-1.51-3.21-1.51-5.62.5-4.28,1.51-5.61,2.44-2,4.28-2c.97,0,1.81.24,2.53.71.72.47,1.24,1.15,1.55,2.03h.14v-8.57h3.05v20.72h-3.05v-2.41Zm-3.3.11c.93,0,1.72-.23,2.35-.69s.95-1.06.95-1.81v-4.98c0-.75-.32-1.35-.95-1.8s-1.42-.69-2.35-.69c-1.06,0-1.91.34-2.55,1.02-.63.68-.95,1.58-.95,2.7v2.52c0,1.12.32,2.02.95,2.7.63.68,1.48,1.02,2.55,1.02Z"/><path class="cls-2" d="m976.28,258.47c-1.05,0-1.98-.18-2.8-.53-.82-.35-1.52-.86-2.1-1.53-.58-.66-1.02-1.46-1.33-2.41-.31-.94-.46-1.99-.46-3.15s.15-2.21.46-3.15c.31-.94.75-1.75,1.33-2.41.58-.66,1.28-1.17,2.1-1.53.82-.35,1.75-.53,2.8-.53s2,.19,2.81.56c.81.37,1.49.89,2.03,1.55.54.66.95,1.43,1.22,2.31s.41,1.82.41,2.83v1.15h-10v.47c0,1.11.33,2.03.99,2.74.66.71,1.61,1.07,2.84,1.07.9,0,1.65-.19,2.27-.58.62-.39,1.14-.92,1.57-1.59l1.79,1.77c-.54.9-1.33,1.62-2.35,2.15-1.03.53-2.22.8-3.58.8Zm0-12.85c-.52,0-1,.09-1.44.28s-.81.45-1.12.78-.55.74-.71,1.21-.25.98-.25,1.54v.2h6.78v-.28c0-1.12-.29-2.02-.87-2.7-.58-.68-1.37-1.02-2.38-1.02Z"/></g><g><path class="cls-2" d="m442.09,254.85h-.11c-.21.94-.76,1.73-1.67,2.35-.91.62-2.1.93-3.6.93-1.16,0-2.23-.22-3.22-.66s-1.84-1.08-2.56-1.93c-.72-.85-1.28-1.9-1.68-3.16s-.6-2.71-.6-4.35.21-3.07.62-4.33c.41-1.26.99-2.32,1.74-3.18.75-.86,1.64-1.51,2.69-1.95,1.04-.44,2.21-.66,3.5-.66,1.75,0,3.24.39,4.45,1.16,1.21.77,2.16,1.85,2.83,3.23l-2.58,1.51c-.37-.92-.95-1.66-1.74-2.23-.78-.57-1.77-.86-2.97-.86-1.55,0-2.8.5-3.74,1.49-.94.99-1.41,2.4-1.41,4.22v3.2c0,1.82.47,3.22,1.41,4.22s2.19,1.49,3.74,1.49c.62,0,1.2-.08,1.76-.24.56-.16,1.05-.39,1.47-.7.42-.31.76-.69,1.01-1.15.25-.46.38-1,.38-1.62v-1.52h-4.03v-2.72h7.08v10.42h-2.77v-2.94Z"/><path class="cls-2" d="m454.74,258.13c-1.05,0-1.98-.18-2.8-.53s-1.52-.86-2.1-1.53c-.58-.66-1.02-1.47-1.33-2.41s-.46-1.99-.46-3.15.15-2.21.46-3.15.75-1.75,1.33-2.41c.58-.66,1.28-1.17,2.1-1.53.82-.35,1.75-.53,2.8-.53s2,.19,2.81.56c.81.37,1.49.89,2.03,1.55.54.66.95,1.43,1.22,2.31.27.88.41,1.82.41,2.83v1.15h-10v.47c0,1.11.33,2.03.99,2.74.66.71,1.61,1.07,2.84,1.07.9,0,1.65-.19,2.27-.58.62-.39,1.14-.92,1.57-1.59l1.79,1.77c-.54.9-1.33,1.61-2.35,2.15-1.03.53-2.22.8-3.58.8Zm0-12.85c-.52,0-1,.09-1.44.28-.44.19-.81.45-1.12.78s-.55.74-.71,1.2-.25.98-.25,1.54v.2h6.78v-.28c0-1.12-.29-2.02-.87-2.7-.58-.68-1.37-1.02-2.38-1.02Z"/><path class="cls-2" d="m464.6,237.08h3.05v8.57h.14c.32-.78.8-1.44,1.44-1.96.64-.52,1.53-.78,2.65-.78,1.49,0,2.66.49,3.49,1.47.83.98,1.25,2.38,1.25,4.19v9.24h-3.05v-8.88c0-2.26-.91-3.39-2.74-3.39-.39,0-.78.05-1.16.15-.38.1-.72.26-1.02.46-.3.21-.54.47-.71.78-.18.32-.27.68-.27,1.09v9.77h-3.05v-20.72Z"/><path class="cls-2" d="m486.55,258.13c-1.05,0-1.98-.18-2.8-.53s-1.52-.86-2.1-1.53c-.58-.66-1.02-1.47-1.33-2.41s-.46-1.99-.46-3.15.15-2.21.46-3.15.75-1.75,1.33-2.41c.58-.66,1.28-1.17,2.1-1.53.82-.35,1.75-.53,2.8-.53s2,.19,2.81.56c.81.37,1.49.89,2.03,1.55.54.66.95,1.43,1.22,2.31.27.88.41,1.82.41,2.83v1.15h-10v.47c0,1.11.33,2.03.99,2.74.66.71,1.61,1.07,2.84,1.07.9,0,1.65-.19,2.27-.58.62-.39,1.14-.92,1.57-1.59l1.79,1.77c-.54.9-1.33,1.61-2.35,2.15-1.03.53-2.22.8-3.58.8Zm0-12.85c-.52,0-1,.09-1.44.28-.44.19-.81.45-1.12.78s-.55.74-.71,1.2-.25.98-.25,1.54v.2h6.78v-.28c0-1.12-.29-2.02-.87-2.7-.58-.68-1.37-1.02-2.38-1.02Z"/><path class="cls-2" d="m497.94,240.63c-.63,0-1.1-.15-1.39-.45-.29-.3-.43-.68-.43-1.15v-.48c0-.47.14-.85.43-1.15s.75-.45,1.39-.45,1.09.15,1.37.45c.28.3.42.68.42,1.15v.48c0,.47-.14.85-.42,1.15-.28.3-.74.45-1.37.45Zm-1.54,2.6h3.05v14.56h-3.05v-14.56Z"/><path class="cls-2" d="m503.82,257.79v-14.56h3.05v2.41h.14c.15-.37.33-.73.55-1.06s.48-.63.78-.88.67-.45,1.09-.59c.42-.14.91-.21,1.47-.21.99,0,1.87.24,2.63.73.76.49,1.33,1.23,1.68,2.24h.08c.26-.82.76-1.52,1.51-2.1.75-.58,1.71-.87,2.88-.87,1.46,0,2.59.49,3.39,1.47.8.98,1.2,2.38,1.2,4.19v9.24h-3.05v-8.88c0-1.12-.21-1.96-.64-2.53-.43-.57-1.11-.85-2.04-.85-.39,0-.77.05-1.12.15-.35.1-.67.26-.94.46-.27.21-.49.47-.66.78-.17.32-.25.68-.25,1.09v9.77h-3.05v-8.88c0-2.26-.89-3.39-2.66-3.39-.37,0-.74.05-1.11.15-.36.1-.69.26-.97.46-.28.21-.5.47-.67.78-.17.32-.25.68-.25,1.09v9.77h-3.05Z"/><path class="cls-2" d="m534.51,257.79v-2.58h2.66v-14.39h-2.66v-2.58h8.51v2.58h-2.69v14.39h2.69v2.58h-8.51Z"/><path class="cls-2" d="m547,238.25h6.92c1.25,0,2.38.21,3.4.62s1.89,1.02,2.6,1.83c.72.81,1.27,1.83,1.67,3.05.39,1.22.59,2.65.59,4.27s-.2,3.05-.59,4.27c-.39,1.22-.95,2.24-1.67,3.05-.72.81-1.59,1.42-2.6,1.83-1.02.41-2.15.62-3.4.62h-6.92v-19.54Zm6.92,16.74c1.46,0,2.63-.46,3.53-1.37.9-.91,1.34-2.26,1.34-4.03v-3.14c0-1.77-.45-3.12-1.34-4.03-.9-.91-2.07-1.37-3.53-1.37h-3.75v13.94h3.75Z"/></g><g><path class="cls-2" d="m129.45,238.25h6.92c1.25,0,2.38.21,3.4.62s1.89,1.02,2.6,1.83c.72.81,1.27,1.83,1.67,3.05.39,1.22.59,2.65.59,4.27s-.2,3.05-.59,4.27c-.39,1.22-.95,2.24-1.67,3.05-.72.81-1.59,1.42-2.6,1.83-1.02.41-2.15.62-3.4.62h-6.92v-19.54Zm6.92,16.74c1.46,0,2.63-.46,3.53-1.37.9-.91,1.34-2.26,1.34-4.03v-3.14c0-1.77-.45-3.12-1.34-4.03-.9-.91-2.07-1.37-3.53-1.37h-3.75v13.94h3.75Z"/><path class="cls-2" d="m154.06,258.13c-1.01,0-1.93-.18-2.76-.53-.83-.35-1.54-.86-2.11-1.53-.58-.66-1.03-1.47-1.34-2.41s-.48-1.99-.48-3.15.16-2.21.48-3.15.77-1.75,1.34-2.41c.58-.66,1.28-1.17,2.11-1.53.83-.35,1.75-.53,2.76-.53s1.93.18,2.76.53c.83.36,1.54.86,2.11,1.53.58.66,1.03,1.47,1.34,2.41.32.94.48,1.99.48,3.15s-.16,2.21-.48,3.15c-.32.94-.77,1.75-1.34,2.41-.58.66-1.28,1.17-2.11,1.53-.83.35-1.75.53-2.76.53Zm0-2.55c1.04,0,1.88-.32,2.52-.96s.95-1.6.95-2.88v-2.45c0-1.28-.32-2.24-.95-2.88-.63-.64-1.47-.96-2.52-.96s-1.89.32-2.52.96c-.63.64-.95,1.6-.95,2.88v2.45c0,1.28.32,2.24.95,2.88s1.47.96,2.52.96Z"/><path class="cls-2" d="m164.14,257.79v-14.56h3.05v2.41h.14c.15-.37.33-.73.55-1.06s.48-.63.78-.88.67-.45,1.09-.59c.42-.14.91-.21,1.47-.21.99,0,1.87.24,2.63.73.76.49,1.33,1.23,1.68,2.24h.08c.26-.82.76-1.52,1.51-2.1.75-.58,1.71-.87,2.88-.87,1.46,0,2.59.49,3.39,1.47.8.98,1.2,2.38,1.2,4.19v9.24h-3.05v-8.88c0-1.12-.21-1.96-.64-2.53-.43-.57-1.11-.85-2.04-.85-.39,0-.77.05-1.12.15-.35.1-.67.26-.94.46-.27.21-.49.47-.66.78-.17.32-.25.68-.25,1.09v9.77h-3.05v-8.88c0-2.26-.89-3.39-2.66-3.39-.37,0-.74.05-1.11.15-.36.1-.69.26-.97.46-.28.21-.5.47-.67.78-.17.32-.25.68-.25,1.09v9.77h-3.05Z"/><path class="cls-2" d="m199.51,257.79c-.8,0-1.42-.23-1.85-.69-.43-.46-.69-1.04-.78-1.75h-.14c-.28.91-.79,1.61-1.54,2.07-.75.47-1.65.7-2.72.7-1.51,0-2.67-.39-3.49-1.18-.81-.78-1.22-1.84-1.22-3.16,0-1.46.53-2.55,1.58-3.28,1.05-.73,2.6-1.09,4.63-1.09h2.63v-1.23c0-.9-.24-1.59-.73-2.07-.49-.49-1.24-.73-2.27-.73-.86,0-1.56.19-2.1.56-.54.37-1,.85-1.37,1.43l-1.82-1.65c.49-.82,1.17-1.5,2.04-2.03.88-.53,2.03-.8,3.44-.8,1.88,0,3.33.44,4.34,1.32,1.01.88,1.51,2.14,1.51,3.78v7.31h1.54v2.49h-1.71Zm-6.16-1.99c.95,0,1.74-.21,2.35-.63s.92-.98.92-1.69v-2.1h-2.58c-2.11,0-3.16.65-3.16,1.96v.5c0,.65.22,1.14.66,1.47.44.33,1.04.49,1.81.49Z"/><path class="cls-2" d="m205.75,240.63c-.63,0-1.1-.15-1.39-.45-.29-.3-.43-.68-.43-1.15v-.48c0-.47.14-.85.43-1.15s.75-.45,1.39-.45,1.09.15,1.37.45c.28.3.42.68.42,1.15v.48c0,.47-.14.85-.42,1.15-.28.3-.74.45-1.37.45Zm-1.54,2.6h3.05v14.56h-3.05v-14.56Z"/><path class="cls-2" d="m211.63,257.79v-14.56h3.05v2.41h.14c.32-.78.8-1.44,1.44-1.96.64-.52,1.53-.78,2.65-.78,1.49,0,2.66.49,3.49,1.47.83.98,1.25,2.38,1.25,4.19v9.24h-3.05v-8.85c0-2.28-.91-3.42-2.74-3.42-.39,0-.78.05-1.16.15-.38.1-.72.26-1.02.46-.3.21-.54.47-.71.78-.18.32-.27.69-.27,1.12v9.74h-3.05Z"/></g><path class="cls-5" d="m1002.12,157.65c0,19.61-29.59,35.57-65.97,35.57h-56.26l-42.2,22.75-42.21-22.75h-56.26c-36.37,0-65.97-15.95-65.97-35.57"/><path class="cls-3" d="m636.57,157.65c0,19.61-25.62,35.57-57.1,35.57h-48.7l-36.53,22.75-36.54-22.75h-48.7c-31.49,0-57.1-15.95-57.1-35.57"/><path class="cls-4" d="m326.41,157.65c0,19.61-26.99,35.57-60.18,35.57h-51.32l-38.5,22.75-38.5-22.75h-51.32c-33.18,0-60.18-15.95-60.18-35.57"/><g><path class="cls-1" d="m15.21,97.1h5.68v11.66h.23c.36-1.05.98-1.96,1.88-2.72.9-.77,2.14-1.15,3.72-1.15,2.07,0,3.64.69,4.7,2.07,1.06,1.38,1.59,3.35,1.59,5.91v12.62h-5.68v-12.16c0-1.3-.21-2.27-.61-2.9-.41-.63-1.14-.94-2.19-.94-.46,0-.91.06-1.34.17-.44.11-.83.3-1.17.56-.35.26-.62.57-.83.94-.21.37-.31.8-.31,1.28v13.04h-5.68v-28.39Z"/><path class="cls-1" d="m45.13,125.48c-1.97,0-3.46-.5-4.47-1.5-1.01-1-1.52-2.46-1.52-4.37v-9.86h-2.84v-4.41h1.42c.77,0,1.29-.18,1.57-.56.28-.37.42-.9.42-1.59v-3.3h5.1v5.45h3.99v4.41h-3.99v11.32h3.68v4.41h-3.38Z"/><path class="cls-1" d="m59.63,125.48c-1.97,0-3.46-.5-4.47-1.5-1.01-1-1.52-2.46-1.52-4.37v-9.86h-2.84v-4.41h1.42c.77,0,1.29-.18,1.57-.56.28-.37.42-.9.42-1.59v-3.3h5.1v5.45h3.99v4.41h-3.99v11.32h3.68v4.41h-3.38Z"/><path class="cls-1" d="m67.26,105.35h5.68v3.38h.19c.28-1.12.93-2.05,1.94-2.76,1.01-.72,2.17-1.07,3.47-1.07,2.56,0,4.49.9,5.79,2.69,1.3,1.79,1.96,4.4,1.96,7.83s-.65,6.04-1.96,7.84c-1.3,1.8-3.24,2.7-5.79,2.7-.67,0-1.29-.1-1.88-.29-.59-.19-1.12-.46-1.59-.81-.47-.35-.88-.75-1.21-1.23-.33-.47-.58-.98-.73-1.52h-.19v11.05h-5.68v-27.81Zm9.4,16c1.07,0,1.96-.38,2.67-1.13.7-.75,1.06-1.77,1.06-3.05v-3.49c0-1.28-.35-2.29-1.06-3.05-.7-.75-1.59-1.13-2.67-1.13s-1.96.26-2.67.79c-.7.52-1.05,1.25-1.05,2.17v5.95c0,.92.35,1.64,1.05,2.17.7.52,1.59.79,2.67.79Z"/><path class="cls-1" d="m97.41,125.94c-1.94,0-3.58-.31-4.91-.94s-2.52-1.52-3.57-2.67l3.34-3.38c.72.79,1.51,1.42,2.38,1.88s1.85.69,2.95.69,1.9-.17,2.34-.52c.43-.35.65-.81.65-1.4,0-.95-.68-1.51-2.03-1.69l-2.19-.27c-4.53-.56-6.79-2.63-6.79-6.21,0-.97.19-1.86.56-2.67.37-.81.89-1.5,1.57-2.07s1.5-1.02,2.46-1.34c.96-.32,2.04-.48,3.24-.48,1.05,0,1.98.07,2.78.21s1.52.35,2.15.61c.63.27,1.2.6,1.73,1,.52.4,1.04.84,1.55,1.32l-3.26,3.34c-.64-.64-1.36-1.14-2.17-1.52-.81-.37-1.63-.56-2.47-.56-.97,0-1.66.15-2.07.46s-.61.72-.61,1.23c0,.54.15.95.44,1.25.29.29.85.51,1.67.63l2.26.31c4.42.59,6.64,2.61,6.64,6.06,0,.97-.21,1.87-.61,2.69s-.99,1.53-1.75,2.13c-.75.6-1.66,1.07-2.72,1.4-1.06.33-2.24.5-3.55.5Z"/><path class="cls-1" d="m113.6,111.83c-1.15,0-2-.29-2.55-.86s-.82-1.31-.82-2.21v-.77c0-.9.27-1.63.82-2.21s1.4-.86,2.55-.86,2,.29,2.55.86c.55.58.82,1.31.82,2.21v.77c0,.9-.28,1.63-.82,2.21-.55.58-1.4.86-2.55.86Zm0,14.08c-1.15,0-2-.29-2.55-.86s-.82-1.31-.82-2.21v-.77c0-.89.27-1.63.82-2.21.55-.58,1.4-.86,2.55-.86s2,.29,2.55.86c.55.58.82,1.31.82,2.21v.77c0,.9-.28,1.63-.82,2.21-.55.58-1.4.86-2.55.86Z"/><path class="cls-1" d="m120.04,131.28l11.43-34.18h4.68l-11.43,34.18h-4.68Z"/><path class="cls-1" d="m130.4,131.28l11.43-34.18h4.68l-11.43,34.18h-4.68Z"/><path class="cls-1" d="m157.41,125.94c-1.94,0-3.58-.31-4.91-.94s-2.52-1.52-3.57-2.67l3.34-3.38c.72.79,1.51,1.42,2.38,1.88s1.85.69,2.95.69,1.9-.17,2.34-.52c.43-.35.65-.81.65-1.4,0-.95-.68-1.51-2.03-1.69l-2.19-.27c-4.53-.56-6.79-2.63-6.79-6.21,0-.97.19-1.86.56-2.67.37-.81.89-1.5,1.57-2.07s1.5-1.02,2.46-1.34c.96-.32,2.04-.48,3.24-.48,1.05,0,1.98.07,2.78.21s1.52.35,2.15.61c.63.27,1.2.6,1.73,1,.52.4,1.04.84,1.55,1.32l-3.26,3.34c-.64-.64-1.36-1.14-2.17-1.52-.81-.37-1.63-.56-2.47-.56-.97,0-1.66.15-2.07.46s-.61.72-.61,1.23c0,.54.15.95.44,1.25.29.29.85.51,1.67.63l2.26.31c4.42.59,6.64,2.61,6.64,6.06,0,.97-.21,1.87-.61,2.69s-.99,1.53-1.75,2.13c-.75.6-1.66,1.07-2.72,1.4-1.06.33-2.24.5-3.55.5Z"/><path class="cls-1" d="m178.05,125.94c-1.51,0-2.85-.25-4.03-.75-1.18-.5-2.16-1.2-2.95-2.11-.79-.91-1.39-2.01-1.8-3.32-.41-1.3-.61-2.76-.61-4.37s.2-3.06.61-4.35c.41-1.29,1.01-2.4,1.8-3.32.79-.92,1.78-1.62,2.95-2.11,1.18-.49,2.52-.73,4.03-.73,2.05,0,3.75.46,5.12,1.38s2.35,2.21,2.93,3.88l-4.6,1.99c-.18-.77-.55-1.42-1.11-1.96s-1.34-.81-2.34-.81c-1.15,0-2.02.38-2.61,1.13-.59.75-.88,1.77-.88,3.05v3.76c0,1.28.29,2.29.88,3.03.59.74,1.46,1.11,2.61,1.11,1.02,0,1.83-.27,2.44-.82s1.04-1.27,1.32-2.17l4.41,1.92c-.67,1.92-1.69,3.32-3.09,4.22-1.39.89-3.09,1.34-5.08,1.34Z"/><path class="cls-1" d="m189.74,125.48v-20.14h5.68v4.37h.19c.1-.56.28-1.11.54-1.63.26-.52.59-.99,1.02-1.4.42-.41.93-.73,1.52-.98.59-.24,1.28-.37,2.07-.37h1v5.29h-1.42c-1.66,0-2.9.22-3.7.65-.81.44-1.21,1.24-1.21,2.42v11.78h-5.68Z"/><path class="cls-1" d="m212.45,125.48c-1.97,0-3.46-.5-4.47-1.5-1.01-1-1.52-2.46-1.52-4.37v-9.86h-2.84v-4.41h1.42c.77,0,1.29-.18,1.57-.56.28-.37.42-.9.42-1.59v-3.3h5.1v5.45h3.99v4.41h-3.99v11.32h3.68v4.41h-3.38Z"/><path class="cls-1" d="m223.39,125.91c-1.15,0-2-.29-2.55-.86s-.82-1.31-.82-2.21v-.77c0-.89.27-1.63.82-2.21.55-.58,1.4-.86,2.55-.86s2,.29,2.55.86c.55.58.82,1.31.82,2.21v.77c0,.9-.27,1.63-.82,2.21-.55.58-1.4.86-2.55.86Z"/><path class="cls-1" d="m237.62,125.48c-1.94,0-3.37-.47-4.28-1.42-.91-.95-1.36-2.31-1.36-4.1v-22.86h5.68v23.98h2.53v4.41h-2.57Z"/><path class="cls-1" d="m246.44,103.2c-1.15,0-1.99-.26-2.51-.79-.52-.52-.79-1.19-.79-2.01v-.84c0-.82.26-1.49.79-2.01s1.36-.79,2.51-.79,1.99.26,2.51.79.79,1.2.79,2.01v.84c0,.82-.26,1.49-.79,2.01-.52.52-1.36.79-2.51.79Zm-2.84,2.15h5.68v20.14h-5.68v-20.14Z"/><path class="cls-1" d="m254.57,125.48v-20.14h5.68v3.41h.23c.36-1.05.98-1.96,1.88-2.72.9-.77,2.14-1.15,3.72-1.15,2.07,0,3.64.69,4.7,2.07,1.06,1.38,1.59,3.35,1.59,5.91v12.62h-5.68v-12.16c0-1.3-.21-2.27-.61-2.9-.41-.63-1.14-.94-2.19-.94-.46,0-.91.06-1.34.17-.44.11-.83.3-1.17.56-.35.26-.62.57-.83.94-.21.37-.31.8-.31,1.28v13.04h-5.68Z"/><path class="cls-1" d="m277.43,97.1h5.68v16.76h.23l2.49-3.72,4.03-4.8h6.29l-6.71,7.71,7.48,12.43h-6.75l-4.53-8.52-2.53,2.84v5.68h-5.68v-28.39Z"/><path class="cls-1" d="m297.04,131.28l11.43-34.18h4.68l-11.43,34.18h-4.68Z"/><path class="cls-1" d="m322.85,125.48c-1.94,0-3.37-.47-4.28-1.42-.91-.95-1.36-2.31-1.36-4.1v-22.86h5.68v23.98h2.53v4.41h-2.57Z"/><path class="cls-1" d="m649.1,131.28l11.43-34.18h4.68l-11.43,34.18h-4.68Z"/><path class="cls-2" d="m362.03,125.48l-8.63-26.78h5.91l3.99,12.85,2.11,8.4h.12l2.03-8.4,3.99-12.85h5.72l-8.71,26.78h-6.52Z"/><path class="cls-2" d="m380.75,98.71h10.09c1.76,0,3.38.28,4.83.84s2.7,1.4,3.72,2.51,1.82,2.51,2.38,4.18c.56,1.67.84,3.62.84,5.85s-.28,4.17-.84,5.85c-.56,1.68-1.36,3.07-2.38,4.18s-2.26,1.95-3.72,2.51-3.07.84-4.83.84h-10.09v-26.78Zm10.09,21.6c1.74,0,3.11-.49,4.1-1.46,1-.97,1.5-2.53,1.5-4.68v-4.14c0-2.15-.5-3.71-1.5-4.68-1-.97-2.37-1.46-4.1-1.46h-4.26v16.42h4.26Z"/><path class="cls-2" d="m407.18,105.35h5.68v22.29c0,1.79-.45,3.16-1.34,4.1-.9.95-2.34,1.42-4.33,1.42h-2.99v-4.41h2.99v-23.4Zm2.84-2.15c-1.15,0-1.99-.26-2.51-.79-.52-.52-.79-1.19-.79-2.01v-.84c0-.82.26-1.49.79-2.01s1.36-.79,2.51-.79,1.99.26,2.51.79.79,1.2.79,2.01v.84c0,.82-.26,1.49-.79,2.01-.52.52-1.36.79-2.51.79Z"/><path class="cls-2" d="m418.46,125.48v-26.78h12.66c1.25,0,2.38.21,3.38.63s1.85,1,2.55,1.75c.7.74,1.25,1.64,1.63,2.71s.58,2.22.58,3.47-.19,2.44-.58,3.49c-.38,1.05-.93,1.94-1.63,2.69-.7.74-1.55,1.32-2.55,1.75s-2.12.63-3.38.63h-6.83v9.67h-5.83Zm5.83-14.73h6.14c.87,0,1.55-.22,2.05-.67s.75-1.11.75-1.98v-1.69c0-.87-.25-1.53-.75-1.98-.5-.45-1.18-.67-2.05-.67h-6.14v6.98Z"/><path class="cls-2" d="m443.32,97.1h5.68v16.76h.23l2.49-3.72,4.03-4.8h6.29l-6.71,7.71,7.48,12.43h-6.75l-4.53-8.52-2.53,2.84v5.68h-5.68v-28.39Z"/><path class="cls-2" d="m465.45,125.48v-20.14h5.68v3.41h.23c.36-1.07.97-1.99,1.84-2.74.87-.75,2.06-1.13,3.57-1.13,1.38,0,2.56.35,3.53,1.04s1.67,1.7,2.11,3.03h.11c.18-.56.45-1.09.83-1.59.37-.5.83-.93,1.36-1.29.54-.36,1.14-.65,1.8-.86.66-.22,1.38-.33,2.15-.33,1.94,0,3.43.69,4.47,2.07,1.04,1.38,1.55,3.35,1.55,5.91v12.62h-5.68v-12.16c0-2.56-.92-3.84-2.76-3.84-.84,0-1.61.24-2.3.73-.69.49-1.04,1.23-1.04,2.22v13.04h-5.68v-12.16c0-2.56-.92-3.84-2.76-3.84-.41,0-.81.06-1.21.17-.4.11-.75.3-1.07.56-.32.26-.58.57-.77.94-.19.37-.29.8-.29,1.28v13.04h-5.68Z"/><path class="cls-2" d="m499.75,97.1h5.68v11.66h.23c.36-1.05.98-1.96,1.88-2.72.9-.77,2.14-1.15,3.72-1.15,2.07,0,3.64.69,4.7,2.07,1.06,1.38,1.59,3.35,1.59,5.91v12.62h-5.68v-12.16c0-1.3-.21-2.27-.61-2.9-.41-.63-1.14-.94-2.19-.94-.46,0-.91.06-1.34.17-.44.11-.83.3-1.17.56-.35.26-.62.57-.83.94-.21.37-.31.8-.31,1.28v13.04h-5.68v-28.39Z"/><path class="cls-2" d="m522.92,98.71h13c2.22,0,3.96.63,5.2,1.88,1.24,1.25,1.86,2.92,1.86,4.99,0,1.02-.13,1.89-.4,2.61-.27.72-.63,1.3-1.07,1.76-.45.46-.97.8-1.57,1.02-.6.22-1.25.34-1.94.36v.23c.64,0,1.31.12,2.01.35.7.23,1.35.59,1.94,1.09.59.5,1.08,1.14,1.48,1.94s.59,1.76.59,2.92c0,1.05-.17,2.04-.52,2.97-.35.93-.83,1.75-1.44,2.44-.61.69-1.34,1.23-2.19,1.63s-1.76.59-2.76.59h-14.19v-26.78Zm5.83,10.97h5.79c.77,0,1.37-.22,1.8-.65s.65-1.04.65-1.8v-1.15c0-.77-.22-1.37-.65-1.8-.44-.43-1.04-.65-1.8-.65h-5.79v6.06Zm0,10.89h6.71c.77,0,1.37-.21,1.82-.63s.67-1.02.67-1.78v-1.3c0-.77-.22-1.36-.67-1.78s-1.05-.63-1.82-.63h-6.71v6.14Z"/><path class="cls-2" d="m563.08,125.48c-1.02,0-1.87-.32-2.55-.96-.68-.64-1.11-1.5-1.29-2.57h-.23c-.31,1.3-.99,2.3-2.03,2.97-1.05.68-2.34,1.02-3.88,1.02-2.02,0-3.57-.54-4.64-1.61s-1.61-2.49-1.61-4.25c0-2.12.77-3.69,2.32-4.72,1.55-1.03,3.65-1.55,6.31-1.55h3.18v-1.27c0-.97-.26-1.75-.77-2.32-.51-.58-1.37-.86-2.57-.86-1.13,0-2.02.24-2.69.73-.67.49-1.21,1.04-1.65,1.65l-3.38-3.01c.82-1.21,1.85-2.15,3.09-2.83s2.92-1.02,5.04-1.02c2.86,0,5.01.63,6.44,1.88,1.43,1.25,2.15,3.08,2.15,5.49v8.82h1.88v4.41h-3.15Zm-7.86-3.49c.95,0,1.76-.2,2.44-.61s1.02-1.07,1.02-1.98v-2.36h-2.76c-2.22,0-3.34.75-3.34,2.25v.57c0,.74.23,1.27.69,1.62.46.34,1.11.51,1.96.51Z"/><path class="cls-2" d="m592.58,125.48h-6.75l-5.79-9.86h-.12l-5.64,9.86h-6.29l8.59-13.85-8.17-12.93h6.79l5.22,9.05h.11l5.29-9.05h6.29l-8.25,13.04,8.71,13.73Z"/><path class="cls-2" d="m595.84,125.48v-20.14h5.68v3.41h.23c.36-1.07.97-1.99,1.84-2.74.87-.75,2.06-1.13,3.57-1.13,1.38,0,2.56.35,3.53,1.04s1.67,1.7,2.11,3.03h.11c.18-.56.45-1.09.83-1.59.37-.5.83-.93,1.36-1.29.54-.36,1.14-.65,1.8-.86.66-.22,1.38-.33,2.15-.33,1.94,0,3.43.69,4.47,2.07,1.04,1.38,1.55,3.35,1.55,5.91v12.62h-5.68v-12.16c0-2.56-.92-3.84-2.76-3.84-.84,0-1.61.24-2.3.73-.69.49-1.04,1.23-1.04,2.22v13.04h-5.68v-12.16c0-2.56-.92-3.84-2.76-3.84-.41,0-.81.06-1.21.17-.4.11-.75.3-1.07.56-.32.26-.58.57-.77.94-.19.37-.29.8-.29,1.28v13.04h-5.68Z"/><path class="cls-2" d="m648.89,108.87c0,1.89-.29,3.67-.86,5.33-.58,1.66-1.32,3.2-2.22,4.62-.91,1.42-1.93,2.69-3.07,3.82-1.14,1.13-2.28,2.07-3.43,2.84h-7.94c1.64-1.18,3.11-2.29,4.41-3.36,1.3-1.06,2.44-2.13,3.39-3.2s1.75-2.17,2.36-3.28c.61-1.11,1.06-2.31,1.34-3.59l-.35-.12c-.23.51-.5,1.01-.82,1.5-.32.49-.72.91-1.19,1.29-.47.37-1.03.67-1.67.9-.64.23-1.38.34-2.22.34-1.1,0-2.13-.2-3.09-.59-.96-.4-1.79-.95-2.49-1.67s-1.25-1.59-1.65-2.61-.59-2.17-.59-3.45c0-1.38.24-2.65.71-3.8.47-1.15,1.15-2.14,2.03-2.97.88-.83,1.94-1.48,3.17-1.94,1.23-.46,2.61-.69,4.14-.69s3,.25,4.26.75c1.25.5,2.31,1.22,3.17,2.15.86.93,1.51,2.05,1.96,3.36.45,1.3.67,2.76.67,4.37Zm-10.05,2.69c1.28,0,2.28-.35,2.99-1.05s1.07-1.71,1.07-3.01v-.69c0-1.3-.36-2.31-1.07-3.01s-1.71-1.06-2.99-1.06-2.28.35-2.99,1.06-1.07,1.71-1.07,3.01v.69c0,1.3.36,2.31,1.07,3.01s1.71,1.05,2.99,1.05Z"/><path class="cls-1" d="m343.62,119.04h-6.14l-1.15,6.64h-3.61l1.15-6.64h-3.87v-3.45h4.49l1.11-6.6h-3.87v-3.45h4.49l1.15-6.64h3.57l-1.15,6.64h6.14l1.15-6.64h3.61l-1.15,6.64h3.88v3.45h-4.49l-1.11,6.6h3.87v3.45h-4.49l-1.15,6.64h-3.57l1.15-6.64Zm.58-3.45l1.15-6.6h-6.14l-1.15,6.6h6.14Z"/><g><path class="cls-2" d="m669.05,98.71h10.09c1.76,0,3.38.28,4.83.84s2.7,1.4,3.72,2.51,1.82,2.51,2.38,4.18c.56,1.67.84,3.62.84,5.85s-.28,4.17-.84,5.85c-.56,1.68-1.36,3.07-2.38,4.18s-2.26,1.95-3.72,2.51-3.07.84-4.83.84h-10.09v-26.78Zm10.09,21.6c1.74,0,3.11-.49,4.1-1.46,1-.97,1.5-2.53,1.5-4.68v-4.14c0-2.15-.5-3.71-1.5-4.68-1-.97-2.37-1.46-4.1-1.46h-4.26v16.42h4.26Z"/><path class="cls-2" d="m714.24,108.87c0,1.89-.29,3.67-.86,5.33-.58,1.66-1.32,3.2-2.22,4.62-.91,1.42-1.93,2.69-3.07,3.82-1.14,1.13-2.28,2.07-3.43,2.84h-7.94c1.64-1.18,3.11-2.29,4.41-3.36,1.3-1.06,2.44-2.13,3.39-3.2s1.75-2.17,2.36-3.28c.61-1.11,1.06-2.31,1.34-3.59l-.35-.12c-.23.51-.5,1.01-.82,1.5-.32.49-.72.91-1.19,1.29-.47.37-1.03.67-1.67.9-.64.23-1.38.34-2.22.34-1.1,0-2.13-.2-3.09-.59-.96-.4-1.79-.95-2.49-1.67s-1.25-1.59-1.65-2.61-.59-2.17-.59-3.45c0-1.38.24-2.65.71-3.8.47-1.15,1.15-2.14,2.03-2.97.88-.83,1.94-1.48,3.17-1.94,1.23-.46,2.61-.69,4.14-.69s3,.25,4.26.75c1.25.5,2.31,1.22,3.17,2.15.86.93,1.51,2.05,1.96,3.36.45,1.3.67,2.76.67,4.37Zm-10.05,2.69c1.28,0,2.28-.35,2.99-1.05s1.07-1.71,1.07-3.01v-.69c0-1.3-.36-2.31-1.07-3.01s-1.71-1.06-2.99-1.06-2.28.35-2.99,1.06-1.07,1.71-1.07,3.01v.69c0,1.3.36,2.31,1.07,3.01s1.71,1.05,2.99,1.05Z"/><path class="cls-2" d="m725.9,109.3c1.43,0,2.47-.27,3.13-.82s.98-1.23.98-2.05v-.27c0-.97-.31-1.75-.94-2.34-.63-.59-1.51-.88-2.67-.88-1.07,0-2.08.27-3.03.82-.95.55-1.75,1.34-2.42,2.36l-3.61-3.38c.51-.66,1.06-1.27,1.65-1.82.59-.55,1.25-1.02,2-1.42.74-.4,1.57-.7,2.49-.92.92-.22,1.96-.33,3.11-.33,1.43,0,2.73.17,3.89.5,1.16.33,2.16.81,2.99,1.44.83.63,1.47,1.38,1.92,2.24.45.87.67,1.84.67,2.92,0,.84-.13,1.61-.4,2.3s-.64,1.29-1.11,1.8c-.47.51-1.02.93-1.63,1.25-.61.32-1.27.54-1.96.67v.23c.79.15,1.53.4,2.21.75.68.35,1.27.79,1.76,1.32.5.54.89,1.17,1.17,1.9s.42,1.55.42,2.47c0,1.2-.24,2.29-.73,3.26-.49.97-1.18,1.8-2.07,2.49-.9.69-1.97,1.22-3.22,1.59-1.25.37-2.63.56-4.14.56-1.36,0-2.56-.14-3.61-.42-1.05-.28-1.96-.66-2.74-1.13-.78-.47-1.46-1.02-2.03-1.63-.58-.61-1.08-1.27-1.52-1.96l4.26-3.3c.59,1.1,1.31,2,2.17,2.7.86.7,2.01,1.05,3.47,1.05,1.3,0,2.32-.33,3.05-.98.73-.65,1.09-1.54,1.09-2.67v-.23c0-1.1-.42-1.92-1.25-2.47-.83-.55-1.98-.82-3.43-.82h-2.42v-4.8h2.49Z"/><path class="cls-2" d="m750.53,125.94c-1.59,0-3-.25-4.26-.75-1.25-.5-2.31-1.21-3.16-2.15-.86-.93-1.51-2.05-1.96-3.36-.45-1.3-.67-2.76-.67-4.37,0-1.87.29-3.64.86-5.31.58-1.67,1.32-3.22,2.22-4.64.91-1.42,1.93-2.69,3.07-3.82s2.28-2.07,3.43-2.84h7.94c-1.64,1.18-3.11,2.3-4.41,3.36-1.3,1.06-2.44,2.13-3.39,3.2s-1.75,2.17-2.38,3.28c-.63,1.11-1.07,2.31-1.32,3.59l.34.12c.23-.51.5-1.01.83-1.5.32-.49.72-.91,1.19-1.29.47-.37,1.03-.67,1.67-.9.64-.23,1.38-.34,2.23-.34,1.1,0,2.13.2,3.09.59.96.4,1.79.95,2.49,1.67.7.72,1.25,1.59,1.65,2.63.4,1.04.59,2.18.59,3.43,0,1.38-.24,2.65-.71,3.8-.47,1.15-1.15,2.14-2.03,2.97-.88.83-1.94,1.48-3.16,1.94-1.23.46-2.61.69-4.14.69Zm0-4.49c1.28,0,2.28-.35,2.99-1.05.72-.7,1.07-1.71,1.07-3.01v-.69c0-1.3-.36-2.31-1.07-3.01-.72-.7-1.71-1.05-2.99-1.05s-2.28.35-2.99,1.05c-.72.7-1.07,1.71-1.07,3.01v.69c0,1.3.36,2.31,1.07,3.01.71.7,1.71,1.05,2.99,1.05Z"/><path class="cls-2" d="m764.84,125.48v-26.78h17.76v5.18h-11.93v5.45h10.17v5.18h-10.17v10.97h-5.83Z"/><path class="cls-2" d="m797.25,125.48v-5.14h-11.78v-4.95l10.43-16.69h6.83v17.15h3.38v4.49h-3.38v5.14h-5.49Zm-7.17-9.63h7.17v-11.2h-.38l-6.79,11.2Z"/><path class="cls-2" d="m810.29,125.48v-26.78h12.66c1.25,0,2.38.21,3.38.63s1.85,1,2.55,1.75c.7.74,1.25,1.64,1.63,2.71s.58,2.22.58,3.47-.19,2.44-.58,3.49c-.38,1.05-.93,1.94-1.63,2.69-.7.74-1.55,1.32-2.55,1.75s-2.12.63-3.38.63h-6.83v9.67h-5.83Zm5.83-14.73h6.14c.87,0,1.55-.22,2.05-.67s.75-1.11.75-1.98v-1.69c0-.87-.25-1.53-.75-1.98-.5-.45-1.18-.67-2.05-.67h-6.14v6.98Z"/><path class="cls-2" d="m847.46,105.35h5.29l-7.75,23.25c-.51,1.56-1.23,2.71-2.17,3.45-.93.74-2.27,1.11-4.01,1.11h-3.53v-4.41h3.8l.69-2.22-7.06-21.18h5.64l2.95,9.4,1.46,5.83h.23l1.5-5.83,2.95-9.4Z"/><path class="cls-2" d="m861.46,98.71v16.42c0,1.89.37,3.31,1.11,4.24.74.93,1.98,1.4,3.72,1.4s2.98-.47,3.72-1.4c.74-.93,1.11-2.35,1.11-4.24v-16.42h5.68v15.8c0,1.97-.19,3.68-.56,5.12-.37,1.44-.98,2.63-1.82,3.57s-1.93,1.62-3.26,2.07-2.95.67-4.87.67-3.54-.22-4.87-.67c-1.33-.45-2.42-1.14-3.26-2.07s-1.45-2.12-1.82-3.57c-.37-1.45-.56-3.15-.56-5.12v-15.8h5.68Z"/><path class="cls-2" d="m900.4,132.54h-3.61c-2.07,0-3.58-.49-4.53-1.46-.95-.97-1.42-2.38-1.42-4.22v-1.11c-2.86-.51-5.13-1.91-6.81-4.2-1.68-2.29-2.51-5.44-2.51-9.46,0-2.28.28-4.28.84-6,.56-1.73,1.36-3.17,2.38-4.33,1.02-1.16,2.26-2.04,3.72-2.63,1.46-.59,3.07-.88,4.83-.88s3.38.29,4.83.88c1.46.59,2.7,1.46,3.72,2.63,1.02,1.16,1.82,2.61,2.38,4.33.56,1.73.84,3.73.84,6,0,3.89-.79,6.97-2.36,9.25-1.57,2.28-3.71,3.71-6.43,4.3v2.15h4.1v4.76Zm-7.1-11.78c1.76,0,3.14-.58,4.12-1.73.98-1.15,1.48-2.8,1.48-4.95v-3.99c0-2.15-.49-3.8-1.48-4.95s-2.36-1.73-4.12-1.73-3.14.58-4.12,1.73c-.99,1.15-1.48,2.8-1.48,4.95v3.99c0,2.15.49,3.8,1.48,4.95.98,1.15,2.36,1.73,4.12,1.73Z"/><path class="cls-2" d="m914.59,125.48v-10.47l-9.17-16.3h6.52l5.75,10.66h.08l5.52-10.66h6.33l-9.17,16.26v10.51h-5.87Z"/><path class="cls-2" d="m932.24,97.1h5.68v11.66h.23c.36-1.05.98-1.96,1.88-2.72.9-.77,2.14-1.15,3.72-1.15,2.07,0,3.64.69,4.7,2.07,1.06,1.38,1.59,3.35,1.59,5.91v12.62h-5.68v-12.16c0-1.3-.21-2.27-.61-2.9-.41-.63-1.14-.94-2.19-.94-.46,0-.91.06-1.34.17-.44.11-.83.3-1.17.56-.35.26-.62.57-.83.94-.21.37-.31.8-.31,1.28v13.04h-5.68v-28.39Z"/><path class="cls-2" d="m971.44,114.51h-10.2v10.97h-5.83v-26.78h5.83v10.63h10.2v-10.63h5.83v26.78h-5.83v-10.97Z"/><path class="cls-2" d="m993.16,125.48v-5.14h-11.78v-4.95l10.43-16.69h6.83v17.15h3.38v4.49h-3.38v5.14h-5.49Zm-7.17-9.63h7.17v-11.2h-.38l-6.79,11.2Z"/></g></g></svg>