<svg xmlns="http://www.w3.org/2000/svg" xmlns:xlink="http://www.w3.org/1999/xlink" x="0px" y="0px" width="127.121px" height="42.49px" viewBox="0 0 127.121 42.49" enable-background="new 0 0 127.121 42.49" xml:space="preserve">
<path fill="#FFFFFF" d="M127.113,8.969c0-0.326,0-0.652-0.004-0.979c-0.025-0.711-0.066-1.424-0.197-2.127
	c-0.119-0.711-0.332-1.375-0.658-2.021c-0.328-0.635-0.75-1.219-1.254-1.721c-0.504-0.504-1.084-0.928-1.719-1.252
	c-0.654-0.33-1.314-0.543-2.027-0.666c-0.699-0.127-1.412-0.172-2.123-0.188c-0.326-0.004-0.656-0.013-0.98-0.015
	c-0.383,0-0.77,0-1.15,0H10.128C9.739,0,9.354,0,8.965,0C8.64,0.002,8.317,0.01,7.989,0.014C7.282,0.031,6.566,0.076,5.86,0.203
	C5.149,0.326,4.488,0.539,3.841,0.869c-0.636,0.324-1.217,0.748-1.72,1.252C1.613,2.623,1.192,3.207,0.87,3.842
	c-0.33,0.646-0.54,1.31-0.664,2.021C0.078,6.566,0.034,7.279,0.015,7.99C0.006,8.316,0.005,8.643,0,8.969v1.159V32.36v1.162
	c0.005,0.33,0.006,0.648,0.015,0.979c0.019,0.711,0.063,1.422,0.191,2.127C0.33,37.342,0.54,38.01,0.87,38.651
	c0.322,0.636,0.743,1.218,1.251,1.718c0.503,0.506,1.084,0.928,1.72,1.252c0.647,0.332,1.308,0.541,2.019,0.67
	c0.706,0.127,1.422,0.168,2.129,0.188c0.328,0.006,0.651,0.01,0.976,0.01c0.389,0.002,0.774,0.002,1.163,0.002h106.87
	c0.383,0,0.77,0,1.15-0.002c0.326,0,0.656-0.004,0.98-0.01c0.711-0.021,1.426-0.062,2.123-0.188c0.713-0.129,1.373-0.338,2.025-0.67
	c0.637-0.324,1.217-0.746,1.721-1.252c0.504-0.5,0.926-1.082,1.254-1.718c0.326-0.644,0.539-1.312,0.658-2.021
	c0.131-0.704,0.172-1.416,0.195-2.127c0.004-0.33,0.004-0.649,0.004-0.979c0.01-0.385,0.01-0.771,0.01-1.162V10.129
	C127.121,9.74,127.121,9.354,127.113,8.969z M126.195,32.36c0,0.388,0,0.765-0.01,1.144c0,0.347,0,0.662-0.004,0.988
	c-0.022,0.625-0.062,1.312-0.184,1.969c-0.109,0.649-0.297,1.228-0.574,1.772c-0.283,0.554-0.648,1.054-1.076,1.474
	c-0.439,0.442-0.938,0.808-1.486,1.086c-0.553,0.279-1.113,0.468-1.773,0.584c-0.68,0.125-1.383,0.158-1.984,0.175
	c-0.311,0.008-0.639,0.012-0.953,0.012L117,41.565L8.971,41.562c-0.324,0-0.64-0.004-0.961-0.013
	c-0.594-0.016-1.298-0.049-1.986-0.174c-0.648-0.117-1.224-0.31-1.76-0.582c-0.554-0.28-1.052-0.646-1.484-1.08
	c-0.44-0.43-0.801-0.926-1.084-1.481c-0.275-0.537-0.464-1.11-0.577-1.762c-0.129-0.716-0.163-1.438-0.176-1.992
	c-0.007-0.224-0.016-0.97-0.016-0.97V8.969c0,0,0.009-0.734,0.016-0.949C0.956,7.463,0.99,6.739,1.118,6.03
	C1.232,5.38,1.42,4.803,1.695,4.264C1.978,3.707,2.34,3.209,2.774,2.779c0.44-0.439,0.939-0.805,1.49-1.086
	C4.809,1.416,5.385,1.227,6.02,1.115c0.715-0.129,1.44-0.16,1.993-0.174l0.958-0.014h109.173l0.969,0.014
	c0.545,0.014,1.271,0.045,1.975,0.172c0.641,0.113,1.221,0.305,1.775,0.582c0.545,0.279,1.044,0.645,1.479,1.08
	c0.438,0.432,0.799,0.934,1.088,1.492c0.273,0.543,0.459,1.116,0.568,1.752c0.123,0.67,0.161,1.356,0.186,2.004
	c0.002,0.301,0.002,0.623,0.002,0.945c0.01,0.397,0.01,0.778,0.01,1.159V32.36L126.195,32.36z"/>
<path fill="#FFFFFF" d="M26.554,21.128c-0.021-2.268,1.366-3.669,2.194-4.303l0.416-0.318l-0.337-0.4
	c-1.46-1.735-3.49-1.932-4.042-1.946c-1.164-0.12-2.253,0.31-3.216,0.691c-0.567,0.224-1.058,0.417-1.42,0.417
	c-0.416,0-0.914-0.2-1.499-0.436c-0.728-0.293-1.553-0.624-2.482-0.624c-0.001,0-0.002,0-0.002,0
	c-2.007,0.03-3.901,1.186-4.944,3.013c-2.021,3.499-0.734,8.858,1.505,12.13c1.121,1.602,2.247,3.039,3.703,3.039l0.083-0.002
	c0.71-0.029,1.208-0.238,1.737-0.463c0.603-0.253,1.226-0.515,2.216-0.515c0.941,0,1.534,0.254,2.106,0.499
	c0.507,0.217,1.031,0.439,1.852,0.439c0.002,0,0.003,0,0.005,0c1.589-0.022,2.563-1.291,3.665-2.938
	c0.852-1.211,1.334-2.396,1.546-2.996l0.143-0.404l-0.38-0.203C28.556,25.358,26.579,23.999,26.554,21.128z M27.271,28.849
	c-0.943,1.407-1.752,2.486-2.925,2.504c-0.536,0-0.908-0.158-1.38-0.36c-0.603-0.259-1.353-0.579-2.5-0.579
	c-1.192,0-1.974,0.328-2.607,0.594c-0.479,0.202-0.857,0.361-1.385,0.385l-0.043,0.5v-0.5c-0.975,0-1.959-1.289-2.881-2.606
	c-2.064-3.017-3.278-7.917-1.46-11.062c0.869-1.523,2.437-2.485,4.14-2.512c0.674,0,1.404,0.294,2.057,0.557
	c0.673,0.271,1.255,0.504,1.863,0.504c0.552,0,1.125-0.227,1.811-0.496c0.747-0.297,1.593-0.633,2.422-0.633
	c0.1,0,0.2,0.005,0.336,0.018c0.438,0.014,1.849,0.146,2.998,1.229c-0.878,0.795-2.184,2.379-2.163,4.752
	c0.026,3.026,1.879,4.639,2.998,5.335C28.314,27.069,27.903,27.949,27.271,28.849z"/>
<path fill="#FFFFFF" d="M23.541,12.194L23.541,12.194L23.541,12.194c0.79-0.989,1.237-2.16,1.26-3.295l0.013-0.629l-0.615,0.129
	c-1.091,0.229-2.26,0.922-2.977,1.764c-0.61,0.713-1.271,1.934-1.295,3.216l-0.01,0.556l0.553-0.047
	C21.574,13.793,22.722,13.16,23.541,12.194z M21.982,10.812c0.418-0.492,1.074-0.943,1.735-1.218
	c-0.144,0.68-0.467,1.354-0.944,1.959c-0.484,0.568-1.125,1.001-1.77,1.209C21.176,11.975,21.605,11.252,21.982,10.812z"/>
<path fill="#FFFFFF" d="M41.334,19.203l-4.763,13.192h2.13l1.207-3.565h5.029l1.206,3.565h2.167l-4.763-13.192H41.334z
	 M40.43,27.187l1.966-5.788h0.055l1.965,5.788H40.43z"/>
<path fill="#FFFFFF" d="M54.546,22.678c-1.344,0-2.514,0.669-3.063,1.698h-0.036v-1.6h-1.911v12.799h1.974v-4.764h0.046
	c0.567,1.068,1.656,1.684,3.026,1.684c2.414,0,4.014-1.92,4.014-4.91C58.596,24.606,56.987,22.678,54.546,22.678z M54.025,30.822
	c-1.508,0-2.523-1.298-2.523-3.236c0-1.92,1.015-3.228,2.523-3.228c1.536,0,2.542,1.281,2.542,3.228
	C56.567,29.553,55.562,30.822,54.025,30.822z"/>
<path fill="#FFFFFF" d="M65.132,22.678c-1.344,0-2.514,0.669-3.062,1.698h-0.036v-1.6h-1.911v12.799h1.975v-4.764h0.045
	c0.567,1.068,1.655,1.684,3.026,1.684c2.414,0,4.015-1.92,4.015-4.91C69.184,24.606,67.574,22.678,65.132,22.678z M64.611,30.822
	c-1.508,0-2.522-1.298-2.522-3.236c0-1.92,1.015-3.228,2.522-3.228c1.535,0,2.541,1.281,2.541,3.228
	C67.152,29.553,66.146,30.822,64.611,30.822z"/>
<path fill="#FFFFFF" d="M80.447,24.944l-1.453-0.356c-1.701-0.42-2.396-0.969-2.396-1.901c0-1.169,1.09-1.974,2.68-1.974
	c1.591,0,2.681,0.795,2.8,2.109h1.991c-0.063-2.275-1.978-3.838-4.764-3.838c-2.816,0-4.8,1.562-4.8,3.838
	c0,1.838,1.123,2.973,3.547,3.557l1.71,0.414c1.709,0.418,2.432,1.031,2.432,2.058c0,1.178-1.196,2.037-2.86,2.037
	c-1.735,0-3.008-0.859-3.151-2.166H74.16c0.127,2.385,2.102,3.896,5.027,3.896c3.127,0,5.092-1.545,5.092-4.015
	C84.277,26.672,83.154,25.586,80.447,24.944z"/>
<path fill="#FFFFFF" d="M88.541,20.502h-1.984v2.274H85.16v1.563h1.396v5.513c0,1.865,0.76,2.599,2.707,2.599
	c0.438,0,0.877-0.037,1.098-0.093v-1.555c-0.129,0.021-0.447,0.045-0.648,0.045c-0.804,0-1.17-0.384-1.17-1.207V24.34h1.828v-1.563
	h-1.828L88.541,20.502L88.541,20.502z"/>
<path fill="#FFFFFF" d="M95.988,22.658c-2.779,0-4.562,1.901-4.562,4.928c0,3.035,1.765,4.931,4.562,4.931
	c2.799,0,4.562-1.896,4.562-4.931C100.551,24.562,98.777,22.658,95.988,22.658z M95.988,30.888c-1.6,0-2.551-1.217-2.551-3.303
	c0-2.062,0.951-3.301,2.551-3.301s2.553,1.229,2.553,3.301C98.541,29.672,97.587,30.888,95.988,30.888z"/>
<path fill="#FFFFFF" d="M104.107,24.414h-0.045v-1.638h-1.883v9.619h1.973V26.69c0-1.354,0.787-2.213,2.059-2.213
	c0.383,0,0.73,0.056,0.889,0.119V22.75c-0.158-0.035-0.395-0.073-0.678-0.073C105.287,22.677,104.41,23.326,104.107,24.414z"/>
<path fill="#FFFFFF" d="M111.975,22.66c-2.703,0-4.451,1.955-4.451,4.973c0,3.009,1.736,4.882,4.535,4.882
	c2.176,0,3.875-1.197,4.142-2.942h-1.873c-0.267,0.831-1.125,1.354-2.222,1.354c-1.556,0-2.59-1.079-2.59-2.725v-0.12h6.795v-0.676
	C116.311,24.487,114.637,22.66,111.975,22.66z M109.527,26.699c0.101-1.453,1.086-2.441,2.447-2.441
	c1.373,0,2.312,0.972,2.358,2.441H109.527z"/>
<g>
	<path fill="#FFFFFF" d="M39.094,14.788h1.193c1.097,0.065,2.041-0.772,2.105-1.868c0.009-0.137,0.003-0.274-0.017-0.409
		c0.15-1.091-0.614-2.099-1.706-2.249c-0.126-0.017-0.254-0.023-0.382-0.015h-1.193V14.788z M40.397,9.353
		c1.543-0.112,2.883,1.049,2.993,2.592c0.014,0.184,0.009,0.37-0.015,0.553c0,2.022-1.093,3.183-2.979,3.183H38.11V9.353H40.397z"/>
	<path fill="#FFFFFF" d="M48.022,13.292c0-1.036-0.465-1.641-1.282-1.641c-0.819,0-1.28,0.605-1.28,1.641
		c0,1.043,0.46,1.645,1.28,1.645C47.557,14.937,48.022,14.331,48.022,13.292 M44.486,13.292c-0.119-1.243,0.793-2.349,2.037-2.468
		c1.244-0.119,2.35,0.792,2.469,2.038c0.014,0.143,0.014,0.287,0,0.43c0.121,1.245-0.79,2.351-2.034,2.472
		c-1.244,0.121-2.351-0.788-2.472-2.033C44.473,13.585,44.473,13.437,44.486,13.292"/>
</g>
<polygon fill="#FFFFFF" points="54.98,15.683 54.003,15.683 53.016,12.164 52.941,12.164 51.958,15.683 50.99,15.683 49.672,10.906 
	50.629,10.906 51.485,14.551 51.555,14.551 52.537,10.906 53.441,10.906 54.423,14.551 54.499,14.551 55.35,10.906 56.292,10.906 
	"/>
<g>
	<path fill="#FFFFFF" d="M57.4,10.906h0.906v0.758h0.07c0.246-0.558,0.819-0.901,1.426-0.85c0.856-0.064,1.602,0.576,1.666,1.432
		c0.008,0.116,0.005,0.23-0.012,0.344v3.093h-0.944v-2.855c0-0.768-0.333-1.15-1.03-1.15c-0.603-0.028-1.117,0.438-1.146,1.044
		c-0.003,0.055-0.001,0.111,0.005,0.167v2.794H57.4V10.906z"/>
</g>
<rect x="62.959" y="9.041" fill="#FFFFFF" width="0.942" height="6.642"/>
<g>
	<path fill="#FFFFFF" d="M68.747,13.292c0-1.036-0.464-1.641-1.282-1.641s-1.279,0.605-1.279,1.641c0,1.043,0.461,1.645,1.279,1.645
		S68.747,14.331,68.747,13.292 M65.212,13.292c-0.12-1.243,0.793-2.35,2.038-2.468c1.243-0.119,2.35,0.792,2.468,2.038
		c0.015,0.143,0.015,0.287,0,0.43c0.122,1.245-0.79,2.351-2.032,2.472c-1.246,0.121-2.354-0.789-2.474-2.034
		C65.197,13.585,65.197,13.437,65.212,13.292"/>
	<path fill="#FFFFFF" d="M73.781,13.924v-0.399l-1.168,0.074c-0.656,0.044-0.956,0.268-0.956,0.689c0,0.43,0.374,0.681,0.886,0.681
		c0.62,0.062,1.172-0.389,1.234-1.008C73.777,13.948,73.781,13.936,73.781,13.924 M70.709,14.332c0-0.86,0.641-1.355,1.777-1.427
		l1.295-0.075v-0.412c0-0.504-0.334-0.789-0.98-0.789c-0.523,0-0.89,0.193-0.992,0.53h-0.914c0.097-0.821,0.867-1.348,1.951-1.348
		c1.198,0,1.873,0.597,1.873,1.606v3.264h-0.906V15.01h-0.076c-0.307,0.49-0.854,0.777-1.432,0.75
		c-0.796,0.081-1.505-0.493-1.586-1.287C70.713,14.428,70.709,14.381,70.709,14.332"/>
	<path fill="#FFFFFF" d="M76.932,13.292c0,1.014,0.479,1.623,1.275,1.623s1.287-0.618,1.287-1.619c0-0.996-0.498-1.623-1.287-1.623
		C77.414,11.674,76.932,12.288,76.932,13.292 M75.958,13.292c0-1.509,0.776-2.465,1.981-2.465c0.609-0.027,1.182,0.298,1.465,0.839
		h0.07V9.041h0.942v6.642h-0.903v-0.754h-0.074c-0.305,0.534-0.885,0.856-1.5,0.833C76.727,15.762,75.958,14.805,75.958,13.292"/>
	<path fill="#FFFFFF" d="M87.854,13.292c0-1.036-0.463-1.641-1.279-1.641c-0.819,0-1.28,0.605-1.28,1.641
		c0,1.043,0.461,1.645,1.28,1.645C87.391,14.937,87.854,14.331,87.854,13.292 M84.318,13.292c-0.119-1.243,0.793-2.349,2.037-2.468
		c1.244-0.119,2.35,0.792,2.469,2.038c0.014,0.143,0.014,0.287,0,0.43c0.121,1.245-0.789,2.351-2.032,2.472
		c-1.245,0.121-2.353-0.788-2.474-2.033C84.305,13.585,84.305,13.437,84.318,13.292"/>
	<path fill="#FFFFFF" d="M90.09,10.906h0.908v0.758h0.068c0.244-0.558,0.816-0.901,1.426-0.85c0.857-0.064,1.604,0.576,1.667,1.432
		c0.008,0.116,0.004,0.23-0.013,0.344v3.093h-0.942v-2.855c0-0.768-0.334-1.15-1.032-1.15c-0.604-0.028-1.117,0.438-1.146,1.044
		c-0.002,0.055,0,0.111,0.008,0.167v2.794H90.09V10.906z"/>
	<path fill="#FFFFFF" d="M99.475,9.717v1.211h1.032v0.793h-1.032v2.457c0,0.5,0.203,0.72,0.674,0.72
		c0.121-0.001,0.242-0.008,0.358-0.022v0.785c-0.168,0.031-0.34,0.046-0.512,0.049c-1.048,0-1.468-0.369-1.468-1.291v-2.697h-0.756
		v-0.793h0.756V9.717H99.475z"/>
	<path fill="#FFFFFF" d="M101.796,9.041h0.935v2.632h0.074c0.258-0.564,0.84-0.906,1.457-0.855c0.867-0.048,1.607,0.617,1.656,1.484
		c0.004,0.1,0,0.198-0.012,0.296v3.083h-0.945V12.83c0-0.764-0.354-1.15-1.021-1.15c-0.611-0.049-1.149,0.408-1.201,1.022
		c-0.006,0.063-0.006,0.126,0.002,0.19v2.789h-0.943L101.796,9.041L101.796,9.041z"/>
	<path fill="#FFFFFF" d="M108.087,12.854h2.412c0.047-0.636-0.431-1.188-1.063-1.235c-0.037-0.003-0.074-0.003-0.111-0.003
		c-0.674-0.007-1.229,0.532-1.236,1.208L108.087,12.854L108.087,12.854z M111.402,14.393c-0.266,0.901-1.137,1.484-2.068,1.383
		c-1.199,0.03-2.195-0.915-2.229-2.112c-0.002-0.119,0.006-0.238,0.021-0.354c-0.162-1.207,0.684-2.316,1.891-2.476
		c0.103-0.015,0.207-0.021,0.312-0.02c1.327,0,2.129,0.907,2.129,2.409v0.328h-3.372v0.053c-0.061,0.696,0.457,1.306,1.15,1.366
		c0.041,0.003,0.082,0.004,0.121,0.004c0.463,0.055,0.91-0.174,1.137-0.58L111.402,14.393L111.402,14.393z"/>
</g>
</svg>
