<svg id="Layer_1" data-name="Layer 1" xmlns="http://www.w3.org/2000/svg" viewBox="0 0 1037.44 320"><defs><style>.cls-1{font-size:28px;font-family:IBMPlexSans-Medium, IBM Plex Sans;font-weight:500;}.cls-1,.cls-7{fill:#ff0083;}.cls-2{letter-spacing:0.01em;}.cls-3{letter-spacing:-0.01em;}.cls-4{letter-spacing:-0.03em;}.cls-5{letter-spacing:0em;}.cls-6{fill:#fff;}.cls-10,.cls-8,.cls-9{fill:none;stroke:#fff;stroke-miterlimit:10;}.cls-8{stroke-width:4.29px;}.cls-9{stroke-width:3.99px;}.cls-10{stroke-width:4.1px;}</style></defs><text class="cls-1" transform="translate(747.25 258.13)">Enc<tspan class="cls-2" x="47.12" y="0">r</tspan><tspan x="58.1" y="0">y</tspan><tspan class="cls-3" x="72.49" y="0">p</tspan><tspan x="88.9" y="0">tion </tspan><tspan class="cls-4" x="145.18" y="0">K</tspan><tspan class="cls-3" x="162.96" y="0">e</tspan><tspan x="178.36" y="0">y</tspan></text><text class="cls-1" transform="translate(437.36 257.79)">Sec<tspan class="cls-5" x="46.59" y="0">r</tspan><tspan x="57.18" y="0">et ID</tspan></text><text class="cls-1" transform="translate(130.76 257.79)">Domain</text><path class="cls-6" d="M18.93,97.1H24.6v11.66h.23A6.18,6.18,0,0,1,26.71,106a5.54,5.54,0,0,1,3.72-1.15,5.55,5.55,0,0,1,4.7,2.07,9.52,9.52,0,0,1,1.59,5.9v12.62H31.05V113.32a5.37,5.37,0,0,0-.62-2.89,2.39,2.39,0,0,0-2.18-.94,5.55,5.55,0,0,0-1.35.17,3.52,3.52,0,0,0-1.17.56,2.85,2.85,0,0,0-.82.94,2.55,2.55,0,0,0-.31,1.28v13H18.93Z"/><path class="cls-6" d="M48.85,125.48A6.1,6.1,0,0,1,44.38,124a5.89,5.89,0,0,1-1.52-4.37v-9.86H40v-4.41h1.42a1.86,1.86,0,0,0,1.57-.56,2.53,2.53,0,0,0,.43-1.59V99.9h5.1v5.45h4v4.41h-4v11.31h3.68v4.41Z"/><path class="cls-6" d="M63.35,125.48A6.1,6.1,0,0,1,58.88,124a5.89,5.89,0,0,1-1.52-4.37v-9.86H54.52v-4.41h1.42a1.9,1.9,0,0,0,1.58-.56,2.6,2.6,0,0,0,.42-1.59V99.9H63v5.45h4v4.41H63v11.31h3.68v4.41Z"/><path class="cls-6" d="M71,105.35h5.68v3.37h.19A4.74,4.74,0,0,1,78.79,106a5.81,5.81,0,0,1,3.47-1.07,6.7,6.7,0,0,1,5.79,2.68c1.3,1.79,2,4.4,2,7.83s-.66,6-2,7.84a6.69,6.69,0,0,1-5.79,2.7,6.07,6.07,0,0,1-1.88-.28,5.42,5.42,0,0,1-1.59-.81,5.23,5.23,0,0,1-1.94-2.74h-.19v11H71Zm9.4,16A3.46,3.46,0,0,0,83,120.21a4.26,4.26,0,0,0,1.06-3v-3.49a4.26,4.26,0,0,0-1.06-3,3.49,3.49,0,0,0-2.66-1.13,4.38,4.38,0,0,0-2.67.78,2.57,2.57,0,0,0-1,2.17v6a2.57,2.57,0,0,0,1,2.17A4.38,4.38,0,0,0,80.38,121.34Z"/><path class="cls-6" d="M101.13,125.94a11.59,11.59,0,0,1-4.91-.93,11.45,11.45,0,0,1-3.57-2.67L96,119a8.59,8.59,0,0,0,2.38,1.88,6.2,6.2,0,0,0,2.95.69,3.92,3.92,0,0,0,2.34-.51,1.7,1.7,0,0,0,.66-1.4c0-1-.68-1.51-2-1.69l-2.18-.27q-6.8-.84-6.79-6.22a6.27,6.27,0,0,1,.55-2.66,5.93,5.93,0,0,1,1.57-2.07,7.3,7.3,0,0,1,2.46-1.35,10.51,10.51,0,0,1,3.24-.47,16.32,16.32,0,0,1,2.78.21,9.57,9.57,0,0,1,2.15.61,8.22,8.22,0,0,1,1.73,1,18.43,18.43,0,0,1,1.55,1.32l-3.26,3.34a7.4,7.4,0,0,0-2.17-1.52,5.84,5.84,0,0,0-2.47-.55,3.52,3.52,0,0,0-2.07.46,1.44,1.44,0,0,0-.62,1.22,1.7,1.7,0,0,0,.44,1.25,3,3,0,0,0,1.67.63l2.27.31q6.63.89,6.63,6.06a5.94,5.94,0,0,1-.61,2.69,6.25,6.25,0,0,1-1.75,2.13,8.42,8.42,0,0,1-2.72,1.4A11.9,11.9,0,0,1,101.13,125.94Z"/><path class="cls-6" d="M117.32,111.83a3.4,3.4,0,0,1-2.55-.86,3.09,3.09,0,0,1-.83-2.21V108a3.05,3.05,0,0,1,.83-2.2,4.17,4.17,0,0,1,5.1,0,3,3,0,0,1,.82,2.2v.77a3.08,3.08,0,0,1-.82,2.21A3.4,3.4,0,0,1,117.32,111.83Zm0,14.08a3.36,3.36,0,0,1-2.55-.87,3.05,3.05,0,0,1-.83-2.2v-.77a3.09,3.09,0,0,1,.83-2.21,4.21,4.21,0,0,1,5.1,0,3.08,3.08,0,0,1,.82,2.21v.77a3,3,0,0,1-.82,2.2A3.36,3.36,0,0,1,117.32,125.91Z"/><path class="cls-6" d="M123.76,131.28,135.19,97.1h4.68l-11.43,34.18Z"/><path class="cls-6" d="M134.12,131.28,145.55,97.1h4.68L138.8,131.28Z"/><path class="cls-6" d="M161.13,125.94a11.56,11.56,0,0,1-4.91-.93,11.33,11.33,0,0,1-3.57-2.67L156,119a8.4,8.4,0,0,0,2.37,1.88,6.24,6.24,0,0,0,3,.69,4,4,0,0,0,2.34-.51,1.72,1.72,0,0,0,.65-1.4c0-1-.68-1.51-2-1.69l-2.19-.27q-6.79-.84-6.79-6.22a6.27,6.27,0,0,1,.56-2.66,5.81,5.81,0,0,1,1.57-2.07,7.35,7.35,0,0,1,2.45-1.35,10.53,10.53,0,0,1,3.25-.47,16.48,16.48,0,0,1,2.78.21,9.48,9.48,0,0,1,2.14.61,8,8,0,0,1,1.73,1,20.26,20.26,0,0,1,1.56,1.32l-3.27,3.34a7.49,7.49,0,0,0-2.16-1.52,5.88,5.88,0,0,0-2.48-.55,3.52,3.52,0,0,0-2.07.46,1.43,1.43,0,0,0-.61,1.22,1.66,1.66,0,0,0,.44,1.25,3,3,0,0,0,1.67.63l2.26.31q6.63.89,6.64,6.06a5.94,5.94,0,0,1-.62,2.69,6.34,6.34,0,0,1-1.74,2.13,8.58,8.58,0,0,1-2.73,1.4A11.88,11.88,0,0,1,161.13,125.94Z"/><path class="cls-6" d="M181.76,125.94a10.18,10.18,0,0,1-4-.74,8,8,0,0,1-3-2.11,9.23,9.23,0,0,1-1.8-3.32,14.51,14.51,0,0,1-.61-4.37A14.36,14.36,0,0,1,173,111a9.4,9.4,0,0,1,1.8-3.32,7.75,7.75,0,0,1,3-2.11,10.56,10.56,0,0,1,4-.72,9,9,0,0,1,5.12,1.38,7.57,7.57,0,0,1,2.94,3.87l-4.6,2a3.84,3.84,0,0,0-1.12-2,3.23,3.23,0,0,0-2.34-.81,3.07,3.07,0,0,0-2.6,1.14,4.81,4.81,0,0,0-.89,3v3.75a4.73,4.73,0,0,0,.89,3,3.08,3.08,0,0,0,2.6,1.12,3.47,3.47,0,0,0,2.44-.83,4.82,4.82,0,0,0,1.32-2.16l4.41,1.91a7.8,7.8,0,0,1-3.08,4.22A9.2,9.2,0,0,1,181.76,125.94Z"/><path class="cls-6" d="M193.46,125.48V105.35h5.68v4.37h.19a6,6,0,0,1,.54-1.63,4.85,4.85,0,0,1,1-1.4,4.64,4.64,0,0,1,1.51-1,5.47,5.47,0,0,1,2.07-.36h1v5.29h-1.42a8.14,8.14,0,0,0-3.7.65,2.5,2.5,0,0,0-1.21,2.42v11.77Z"/><path class="cls-6" d="M216.17,125.48A6.1,6.1,0,0,1,211.7,124a5.89,5.89,0,0,1-1.51-4.37v-9.86h-2.84v-4.41h1.42a1.86,1.86,0,0,0,1.57-.56,2.6,2.6,0,0,0,.42-1.59V99.9h5.11v5.45h4v4.41h-4v11.31h3.68v4.41Z"/><path class="cls-6" d="M227.11,125.91a3.37,3.37,0,0,1-2.56-.87,3,3,0,0,1-.82-2.2v-.77a3.08,3.08,0,0,1,.82-2.21,4.23,4.23,0,0,1,5.11,0,3.08,3.08,0,0,1,.82,2.21v.77a3,3,0,0,1-.82,2.2A3.36,3.36,0,0,1,227.11,125.91Z"/><path class="cls-6" d="M241.34,125.48A4.91,4.91,0,0,1,235.7,120V97.1h5.68v24h2.53v4.41Z"/><path class="cls-6" d="M250.16,103.2a3.45,3.45,0,0,1-2.51-.79,2.69,2.69,0,0,1-.79-2v-.85a2.69,2.69,0,0,1,.79-2,4.38,4.38,0,0,1,5,0,2.69,2.69,0,0,1,.79,2v.85a2.69,2.69,0,0,1-.79,2A3.45,3.45,0,0,1,250.16,103.2Zm-2.84,2.15H253v20.13h-5.68Z"/><path class="cls-6" d="M258.29,125.48V105.35H264v3.41h.23a6.1,6.1,0,0,1,1.88-2.72,5.5,5.5,0,0,1,3.72-1.15,5.56,5.56,0,0,1,4.7,2.07,9.52,9.52,0,0,1,1.59,5.9v12.62h-5.68V113.32a5.38,5.38,0,0,0-.61-2.89,2.41,2.41,0,0,0-2.19-.94,5.47,5.47,0,0,0-1.34.17,3.52,3.52,0,0,0-1.17.56,2.85,2.85,0,0,0-.82.94,2.55,2.55,0,0,0-.31,1.28v13Z"/><path class="cls-6" d="M281.15,97.1h5.68v16.76h.23l2.49-3.72,4-4.79h6.29l-6.71,7.71,7.48,12.42h-6.75L289.36,117l-2.53,2.84v5.67h-5.68Z"/><path class="cls-6" d="M300.76,131.28,312.19,97.1h4.68l-11.43,34.18Z"/><path class="cls-6" d="M326.57,125.48a4.92,4.92,0,0,1-5.64-5.52V97.1h5.68v24h2.53v4.41Z"/><path class="cls-6" d="M330,131.28,341.46,97.1h4.68L334.7,131.28Z"/><path class="cls-7" d="M357.11,125.48l-8.63-26.77h5.9l4,12.85,2.11,8.4h.12l2-8.4,4-12.85h5.72l-8.71,26.77Z"/><path class="cls-7" d="M375.83,98.71h10.09a13.38,13.38,0,0,1,4.83.84,9.72,9.72,0,0,1,3.72,2.52,11.56,11.56,0,0,1,2.38,4.18,20.79,20.79,0,0,1,0,11.7,11.65,11.65,0,0,1-2.38,4.18,9.69,9.69,0,0,1-3.72,2.51,13.38,13.38,0,0,1-4.83.84H375.83Zm10.09,21.6a5.65,5.65,0,0,0,4.1-1.46q1.5-1.45,1.5-4.68V110q0-3.23-1.5-4.68a5.61,5.61,0,0,0-4.1-1.46h-4.26v16.42Z"/><path class="cls-7" d="M402.26,105.35h5.67v22.28a4.91,4.91,0,0,1-5.67,5.53h-3v-4.41h3Zm2.83-2.15a3.46,3.46,0,0,1-2.51-.79,2.72,2.72,0,0,1-.78-2v-.85a2.72,2.72,0,0,1,.78-2,4.4,4.4,0,0,1,5,0,2.72,2.72,0,0,1,.78,2v.85a2.72,2.72,0,0,1-.78,2A3.47,3.47,0,0,1,405.09,103.2Z"/><path class="cls-7" d="M413.53,125.48V98.71h12.66a8.63,8.63,0,0,1,3.38.63,7.43,7.43,0,0,1,2.55,1.75,7.62,7.62,0,0,1,1.63,2.7,10.73,10.73,0,0,1,0,7,7.67,7.67,0,0,1-1.63,2.69,7.41,7.41,0,0,1-2.55,1.74,8.45,8.45,0,0,1-3.38.64h-6.83v9.66Zm5.83-14.73h6.14a2.93,2.93,0,0,0,2.05-.67,2.49,2.49,0,0,0,.75-2v-1.69a2.53,2.53,0,0,0-.75-2,3,3,0,0,0-2.05-.67h-6.14Z"/><path class="cls-7" d="M438.39,97.1h5.68v16.76h.23l2.49-3.72,4-4.79h6.29l-6.71,7.71,7.48,12.42h-6.75L446.6,117l-2.53,2.84v5.67h-5.68Z"/><path class="cls-7" d="M460.52,125.48V105.35h5.68v3.41h.23a6.15,6.15,0,0,1,1.84-2.74,5.24,5.24,0,0,1,3.57-1.13,5.94,5.94,0,0,1,3.53,1,5.76,5.76,0,0,1,2.11,3h.11a5.5,5.5,0,0,1,.83-1.59,5.57,5.57,0,0,1,1.36-1.29,7.76,7.76,0,0,1,1.81-.86,6.76,6.76,0,0,1,2.14-.32A5.24,5.24,0,0,1,488.2,107a9.66,9.66,0,0,1,1.56,5.9v12.62h-5.68V113.32q0-3.82-2.76-3.83a3.91,3.91,0,0,0-2.31.73,2.52,2.52,0,0,0-1,2.22v13H472.3V113.32q0-3.82-2.76-3.83a4.53,4.53,0,0,0-1.21.17,3,3,0,0,0-1.07.56,2.82,2.82,0,0,0-.77.94,2.77,2.77,0,0,0-.29,1.28v13Z"/><path class="cls-7" d="M494.82,97.1h5.68v11.66h.23a6,6,0,0,1,1.88-2.72,5.5,5.5,0,0,1,3.72-1.15A5.56,5.56,0,0,1,511,107a9.52,9.52,0,0,1,1.59,5.9v12.62h-5.68V113.32a5.38,5.38,0,0,0-.61-2.89,2.41,2.41,0,0,0-2.19-.94,5.41,5.41,0,0,0-1.34.17,3.34,3.34,0,0,0-1.17.56,2.88,2.88,0,0,0-.83.94,2.66,2.66,0,0,0-.3,1.28v13h-5.68Z"/><path class="cls-7" d="M518,98.71h13a7,7,0,0,1,5.2,1.88,6.77,6.77,0,0,1,1.86,5,7.36,7.36,0,0,1-.4,2.6,5,5,0,0,1-1.08,1.77,4.11,4.11,0,0,1-1.57,1,6.42,6.42,0,0,1-1.94.36v.23a6.56,6.56,0,0,1,2,.35A5.62,5.62,0,0,1,537,113a6,6,0,0,1,1.48,1.94,6.39,6.39,0,0,1,.6,2.91,8.59,8.59,0,0,1-.52,3,7.69,7.69,0,0,1-1.44,2.44,6.68,6.68,0,0,1-2.19,1.63,6.33,6.33,0,0,1-2.76.59H518Zm5.83,11h5.79a2.27,2.27,0,0,0,2.46-2.46v-1.15a2.27,2.27,0,0,0-2.46-2.45h-5.79Zm0,10.89h6.71a2.53,2.53,0,0,0,1.82-.63,2.31,2.31,0,0,0,.68-1.78v-1.31a2.33,2.33,0,0,0-.68-1.78,2.53,2.53,0,0,0-1.82-.63h-6.71Z"/><path class="cls-7" d="M558.15,125.48a3.57,3.57,0,0,1-2.55-1,4.42,4.42,0,0,1-1.29-2.57h-.22a4.68,4.68,0,0,1-2,3,7,7,0,0,1-3.87,1,6.29,6.29,0,0,1-4.64-1.6,5.71,5.71,0,0,1-1.61-4.25,5.28,5.28,0,0,1,2.32-4.72,11.24,11.24,0,0,1,6.31-1.55h3.18v-1.26a3.37,3.37,0,0,0-.77-2.32,3.28,3.28,0,0,0-2.57-.87,4.48,4.48,0,0,0-2.68.73,7.17,7.17,0,0,0-1.65,1.65l-3.38-3a8.8,8.8,0,0,1,3.09-2.83,10.52,10.52,0,0,1,5-1c2.87,0,5,.62,6.45,1.88a6.9,6.9,0,0,1,2.15,5.48v8.82h1.88v4.41ZM550.29,122a4.68,4.68,0,0,0,2.43-.6,2.14,2.14,0,0,0,1-2v-2.36H551c-2.23,0-3.34.74-3.34,2.24v.57a1.88,1.88,0,0,0,.69,1.62A3.24,3.24,0,0,0,550.29,122Z"/><path class="cls-7" d="M587.65,125.48H580.9l-5.79-9.85H575l-5.64,9.85h-6.29l8.59-13.84-8.17-12.93h6.79l5.22,9.05h.11l5.3-9.05h6.29l-8.25,13Z"/><path class="cls-7" d="M590.91,125.48V105.35h5.68v3.41h.23a6.15,6.15,0,0,1,1.84-2.74,5.24,5.24,0,0,1,3.57-1.13,6,6,0,0,1,3.53,1,5.81,5.81,0,0,1,2.11,3H608a5.47,5.47,0,0,1,.82-1.59,5.62,5.62,0,0,1,1.37-1.29,7.5,7.5,0,0,1,1.8-.86,6.78,6.78,0,0,1,2.15-.32,5.26,5.26,0,0,1,4.47,2.07,9.73,9.73,0,0,1,1.55,5.9v12.62h-5.68V113.32q0-3.82-2.76-3.83a3.88,3.88,0,0,0-2.3.73,2.52,2.52,0,0,0-1,2.22v13h-5.67V113.32q0-3.82-2.77-3.83a4.4,4.4,0,0,0-1.2.17,3.09,3.09,0,0,0-1.08.56,2.79,2.79,0,0,0-.76.94,2.66,2.66,0,0,0-.29,1.28v13Z"/><path class="cls-7" d="M644,108.87a16.12,16.12,0,0,1-.86,5.34,22.39,22.39,0,0,1-2.22,4.62,22.73,22.73,0,0,1-3.07,3.82,23.28,23.28,0,0,1-3.44,2.83h-7.94q2.46-1.76,4.41-3.35a29.4,29.4,0,0,0,3.4-3.2,18.28,18.28,0,0,0,2.36-3.29,13.28,13.28,0,0,0,1.34-3.58l-.35-.12a10.45,10.45,0,0,1-.82,1.5,5.35,5.35,0,0,1-1.19,1.28,5.69,5.69,0,0,1-1.67.91,6.56,6.56,0,0,1-2.22.34,8.13,8.13,0,0,1-3.09-.59,7.36,7.36,0,0,1-4.14-4.28,9.39,9.39,0,0,1-.6-3.45,10,10,0,0,1,.71-3.8,8.54,8.54,0,0,1,2-3,9.43,9.43,0,0,1,3.17-1.94,11.75,11.75,0,0,1,4.14-.69,11.39,11.39,0,0,1,4.26.75,8.59,8.59,0,0,1,3.17,2.14,9.65,9.65,0,0,1,1.95,3.36A13.36,13.36,0,0,1,644,108.87Zm-10.05,2.69a3.7,3.7,0,0,0,4.07-4.07v-.69a4,4,0,0,0-1.08-3,4.78,4.78,0,0,0-6,0,4,4,0,0,0-1.07,3v.69a4,4,0,0,0,1.07,3A4.1,4.1,0,0,0,633.91,111.56Z"/><path class="cls-6" d="M659.61,118.85h-6.13l-1.16,6.63h-3.6l1.15-6.63H646V115.4h4.48l1.12-6.6h-3.88v-3.45h4.49l1.15-6.64h3.57l-1.15,6.64h6.14l1.15-6.64h3.6l-1.15,6.64h3.88v3.45h-4.49l-1.11,6.6h3.87v3.45h-4.49L662,125.48h-3.57Zm.58-3.45,1.15-6.6H655.2l-1.15,6.6Z"/><path class="cls-7" d="M672.77,98.71h10.09a13.38,13.38,0,0,1,4.83.84,9.72,9.72,0,0,1,3.72,2.52,11.28,11.28,0,0,1,2.38,4.18,20.56,20.56,0,0,1,0,11.7,11.36,11.36,0,0,1-2.38,4.18,9.69,9.69,0,0,1-3.72,2.51,13.38,13.38,0,0,1-4.83.84H672.77Zm10.09,21.6a5.61,5.61,0,0,0,4.1-1.46q1.5-1.45,1.5-4.68V110q0-3.23-1.5-4.68a5.57,5.57,0,0,0-4.1-1.46H678.6v16.42Z"/><path class="cls-7" d="M718,108.87a16.38,16.38,0,0,1-.86,5.34,21.92,21.92,0,0,1-2.23,4.62,22.24,22.24,0,0,1-3.07,3.82,23.23,23.23,0,0,1-3.43,2.83h-7.94c1.63-1.17,3.11-2.29,4.41-3.35a29.27,29.27,0,0,0,3.39-3.2,17.8,17.8,0,0,0,2.36-3.29,13.3,13.3,0,0,0,1.35-3.58l-.35-.12a10.45,10.45,0,0,1-.82,1.5,5.35,5.35,0,0,1-1.19,1.28,5.82,5.82,0,0,1-1.67.91,6.58,6.58,0,0,1-2.23.34,8,8,0,0,1-3.08-.59,7.57,7.57,0,0,1-2.5-1.67,7.75,7.75,0,0,1-1.65-2.61,9.6,9.6,0,0,1-.59-3.45,9.78,9.78,0,0,1,.71-3.8,8.41,8.41,0,0,1,2-3,9.33,9.33,0,0,1,3.17-1.94,11.67,11.67,0,0,1,4.14-.69,11.47,11.47,0,0,1,4.26.75,8.55,8.55,0,0,1,3.16,2.14,9.51,9.51,0,0,1,2,3.36A13.63,13.63,0,0,1,718,108.87Zm-10.05,2.69a4.1,4.1,0,0,0,3-1,4,4,0,0,0,1.07-3v-.69a4,4,0,0,0-1.07-3,4.78,4.78,0,0,0-6,0,4,4,0,0,0-1.08,3v.69a3.7,3.7,0,0,0,4.07,4.07Z"/><path class="cls-7" d="M729.62,109.3a4.84,4.84,0,0,0,3.13-.83,2.57,2.57,0,0,0,1-2v-.27a3.05,3.05,0,0,0-.94-2.34,3.71,3.71,0,0,0-2.66-.88,5.89,5.89,0,0,0-3,.82,7.25,7.25,0,0,0-2.42,2.36l-3.6-3.37a15.23,15.23,0,0,1,1.65-1.83,9.27,9.27,0,0,1,2-1.41,10.2,10.2,0,0,1,2.49-.93,14,14,0,0,1,3.11-.32,14.22,14.22,0,0,1,3.89.5,9,9,0,0,1,3,1.44,6.38,6.38,0,0,1,1.91,2.24,6.63,6.63,0,0,1,.27,5.22,5.68,5.68,0,0,1-1.11,1.8,6,6,0,0,1-1.63,1.25,7,7,0,0,1-2,.67v.23a8,8,0,0,1,2.21.75,5.94,5.94,0,0,1,1.76,1.32,5.84,5.84,0,0,1,1.17,1.9,6.84,6.84,0,0,1,.43,2.47,7.05,7.05,0,0,1-2.8,5.76,9.75,9.75,0,0,1-3.23,1.59,14.55,14.55,0,0,1-4.14.55,14,14,0,0,1-3.61-.42,10.69,10.69,0,0,1-2.74-1.13,9.14,9.14,0,0,1-2-1.63,12.8,12.8,0,0,1-1.52-2l4.26-3.3a8.75,8.75,0,0,0,2.17,2.7,5.32,5.32,0,0,0,3.47,1.06,4.44,4.44,0,0,0,3-1,3.39,3.39,0,0,0,1.09-2.67v-.23a2.76,2.76,0,0,0-1.24-2.47,6.21,6.21,0,0,0-3.44-.83h-2.41V109.3Z"/><path class="cls-7" d="M754.25,125.94a11.4,11.4,0,0,1-4.26-.74,8.61,8.61,0,0,1-3.17-2.15,9.32,9.32,0,0,1-2-3.36,13.32,13.32,0,0,1-.67-4.37,16.07,16.07,0,0,1,.86-5.31,21.67,21.67,0,0,1,2.22-4.65,22.65,22.65,0,0,1,3.07-3.81,23.38,23.38,0,0,1,3.44-2.84h7.94q-2.46,1.77-4.41,3.36a28.56,28.56,0,0,0-3.4,3.2,18.88,18.88,0,0,0-2.38,3.28,12.09,12.09,0,0,0-1.32,3.59l.34.11a11.09,11.09,0,0,1,.83-1.5,5.34,5.34,0,0,1,1.19-1.28,5.92,5.92,0,0,1,1.67-.9,6.55,6.55,0,0,1,2.22-.35,8,8,0,0,1,3.09.6,7.23,7.23,0,0,1,2.49,1.67,7.32,7.32,0,0,1,1.65,2.62,9.48,9.48,0,0,1,.6,3.44,9.91,9.91,0,0,1-.71,3.79,8.38,8.38,0,0,1-2,3,9.26,9.26,0,0,1-3.16,1.93A11.53,11.53,0,0,1,754.25,125.94Zm0-4.48a3.7,3.7,0,0,0,4.06-4.07v-.69a4.05,4.05,0,0,0-1.07-3,4.75,4.75,0,0,0-6,0,4,4,0,0,0-1.08,3v.69a3.72,3.72,0,0,0,4.07,4.07Z"/><path class="cls-7" d="M768.55,125.48V98.71h17.77v5.18H774.38v5.45h10.17v5.17H774.38v11Z"/><path class="cls-7" d="M801,125.48v-5.14H789.19V115.4l10.44-16.69h6.82v17.15h3.38v4.48h-3.38v5.14Zm-7.17-9.62H801V104.65h-.38Z"/><path class="cls-7" d="M814,125.48V98.71h12.66a8.67,8.67,0,0,1,3.38.63,7.63,7.63,0,0,1,2.55,1.75,7.77,7.77,0,0,1,1.63,2.7,10.91,10.91,0,0,1,0,7,7.82,7.82,0,0,1-1.63,2.69,7.6,7.6,0,0,1-2.55,1.74,8.49,8.49,0,0,1-3.38.64h-6.83v9.66Zm5.83-14.73H826a2.94,2.94,0,0,0,2-.67,2.49,2.49,0,0,0,.75-2v-1.69a2.53,2.53,0,0,0-.75-2,3,3,0,0,0-2-.67h-6.14Z"/><path class="cls-7" d="M851.18,105.35h5.3l-7.75,23.24a7.09,7.09,0,0,1-2.17,3.45,6.26,6.26,0,0,1-4,1.12H839v-4.41h3.8l.69-2.23-7.06-21.17h5.64l3,9.39,1.45,5.83h.23l1.5-5.83Z"/><path class="cls-7" d="M865.18,98.71v16.42a6.71,6.71,0,0,0,1.12,4.24,5.64,5.64,0,0,0,7.44,0,6.77,6.77,0,0,0,1.11-4.24V98.71h5.68v15.8a20.9,20.9,0,0,1-.56,5.13,8.3,8.3,0,0,1-1.82,3.56,7.38,7.38,0,0,1-3.26,2.07,18,18,0,0,1-9.74,0,7.47,7.47,0,0,1-3.27-2.07,8.3,8.3,0,0,1-1.82-3.56,20.94,20.94,0,0,1-.55-5.13V98.71Z"/><path class="cls-7" d="M904.12,132.54h-3.61c-2.07,0-3.58-.48-4.52-1.45a5.81,5.81,0,0,1-1.42-4.22v-1.12a10.35,10.35,0,0,1-6.81-4.2c-1.68-2.29-2.51-5.44-2.51-9.45a19.52,19.52,0,0,1,.84-6,12,12,0,0,1,2.38-4.33,9.75,9.75,0,0,1,3.72-2.63,13.72,13.72,0,0,1,9.67,0,9.91,9.91,0,0,1,3.72,2.63,12.19,12.19,0,0,1,2.37,4.33,19.2,19.2,0,0,1,.85,6c0,3.88-.79,7-2.36,9.24a10.17,10.17,0,0,1-6.43,4.3v2.15h4.11ZM897,120.77a5.15,5.15,0,0,0,4.13-1.73,7.42,7.42,0,0,0,1.47-5v-4a7.42,7.42,0,0,0-1.47-4.95,5.81,5.81,0,0,0-8.25,0,7.37,7.37,0,0,0-1.48,4.95v4a7.37,7.37,0,0,0,1.48,5A5.13,5.13,0,0,0,897,120.77Z"/><path class="cls-7" d="M918.31,125.48V115l-9.17-16.3h6.53l5.75,10.66h.08L927,98.71h6.33L924.18,115v10.51Z"/><path class="cls-7" d="M936,97.1h5.67v11.66h.24a6.07,6.07,0,0,1,1.87-2.72,6.48,6.48,0,0,1,8.43.92,9.52,9.52,0,0,1,1.59,5.9v12.62h-5.68V113.32a5.48,5.48,0,0,0-.61-2.89,2.41,2.41,0,0,0-2.19-.94,5.41,5.41,0,0,0-1.34.17,3.34,3.34,0,0,0-1.17.56,2.88,2.88,0,0,0-.83.94,2.66,2.66,0,0,0-.31,1.28v13H936Z"/><path class="cls-7" d="M975.16,114.51H965v11h-5.83V98.71H965v10.63h10.2V98.71H981v26.77h-5.83Z"/><path class="cls-7" d="M996.87,125.48v-5.14H985.1V115.4l10.43-16.69h6.83v17.15h3.38v4.48h-3.38v5.14Zm-7.17-9.62h7.17V104.65h-.38Z"/><path class="cls-8" d="M1005.84,157.65c0,19.61-29.59,35.57-66,35.57H883.62L841.42,216l-42.21-22.75H743c-36.38,0-66-16-66-35.57"/><path class="cls-9" d="M640.29,157.65c0,19.61-25.61,35.57-57.1,35.57h-48.7L498,216l-36.53-22.75h-48.7c-31.49,0-57.1-16-57.1-35.57"/><path class="cls-10" d="M330.13,157.65c0,19.61-27,35.57-60.18,35.57H218.63L180.14,216l-38.51-22.75H90.31c-33.18,0-60.17-16-60.17-35.57"/></svg>