<?xml version="1.0" encoding="utf-8"?>
<!-- Generator: Adobe Illustrator 26.0.1, SVG Export Plug-In . SVG Version: 6.00 Build 0)  -->
<svg version="1.1" id="Layer_1" xmlns="http://www.w3.org/2000/svg" xmlns:xlink="http://www.w3.org/1999/xlink" x="0px" y="0px"
	 viewBox="0 0 1036 183.4" style="enable-background:new 0 0 1036 183.4;" xml:space="preserve">
<style type="text/css">
	.st0{fill:#FFFFFF;}
	.st1{font-family:'IBMPlexSans-Medium';}
	.st2{font-size:28px;}
	.st3{fill:#FF0083;}
	.st4{fill:none;stroke:#FFFFFF;stroke-width:4.29;stroke-miterlimit:10;}
	.st5{fill:none;stroke:#FFFFFF;stroke-width:3.99;stroke-miterlimit:10;}
	.st6{fill:none;stroke:#FFFFFF;stroke-width:4.1;stroke-miterlimit:10;}
</style>
<text transform="matrix(1 0 0 1 747.25 171.3155)" class="st0 st1 st2">Enc</text>
<text transform="matrix(1 0 0 1 794.37 171.3155)" class="st0 st1 st2">r</text>
<text transform="matrix(1 0 0 1 805.35 171.3155)" class="st0 st1 st2">y</text>
<text transform="matrix(1 0 0 1 819.74 171.3155)" class="st0 st1 st2">p</text>
<text transform="matrix(1 0 0 1 836.15 171.3155)" class="st0 st1 st2">tion </text>
<text transform="matrix(1 0 0 1 892.43 171.3155)" class="st0 st1 st2">K</text>
<text transform="matrix(1 0 0 1 910.21 171.3155)" class="st0 st1 st2">e</text>
<text transform="matrix(1 0 0 1 925.61 171.3155)" class="st0 st1 st2">y</text>
<text transform="matrix(1 0 0 1 437.36 170.9755)" class="st0 st1 st2">Sec</text>
<text transform="matrix(1 0 0 1 483.95 170.9755)" class="st0 st1 st2">r</text>
<text transform="matrix(1 0 0 1 494.54 170.9755)" class="st0 st1 st2">et ID</text>
<text transform="matrix(1 0 0 1 130.76 170.9755)" class="st0 st1 st2">Domain</text>
<path class="st0" d="M18.9,10.3h5.7v11.7h0.2c0.4-1.1,1-2,1.9-2.8c1.1-0.8,2.4-1.2,3.7-1.2c1.8-0.1,3.6,0.7,4.7,2.1
	c1.2,1.7,1.7,3.8,1.6,5.9v12.6H31V26.5c0.1-1-0.1-2-0.6-2.9c-0.5-0.7-1.3-1-2.2-0.9c-0.5,0-0.9,0.1-1.4,0.2
	c-0.4,0.1-0.8,0.3-1.2,0.6c-0.3,0.2-0.6,0.6-0.8,0.9c-0.2,0.4-0.3,0.8-0.3,1.3v13h-5.7V10.3z"/>
<path class="st0" d="M48.8,38.7c-1.6,0.1-3.2-0.4-4.5-1.5c-1.1-1.2-1.6-2.8-1.5-4.4V23H40v-4.4h1.4c0.6,0.1,1.2-0.1,1.6-0.6
	c0.3-0.5,0.5-1,0.4-1.6v-3.3h5.1v5.4h4v4.4h-4v11.3h3.7v4.4L48.8,38.7z"/>
<path class="st0" d="M63.3,38.7c-1.6,0.1-3.2-0.4-4.5-1.5c-1.1-1.2-1.6-2.8-1.5-4.4V23h-2.8v-4.4h1.4c0.6,0.1,1.2-0.1,1.6-0.6
	c0.3-0.5,0.5-1,0.4-1.6v-3.3H63v5.4h4v4.4h-4v11.3h3.7v4.4L63.3,38.7z"/>
<path class="st0" d="M71,18.5h5.7v3.4h0.2c0.3-1.1,1-2.1,1.9-2.7c1-0.7,2.2-1.1,3.5-1.1c2.3-0.1,4.4,0.9,5.8,2.7
	c1.3,1.8,2,4.4,2,7.8s-0.7,6-2,7.8c-1.3,1.8-3.5,2.8-5.8,2.7c-0.6,0-1.3-0.1-1.9-0.3c-0.6-0.2-1.1-0.5-1.6-0.8
	c-0.9-0.7-1.6-1.6-1.9-2.7h-0.2v11H71V18.5z M80.4,34.5c1,0,1.9-0.4,2.6-1.1c0.7-0.8,1.1-1.9,1.1-3v-3.5c0-1.1-0.3-2.2-1.1-3
	c-0.7-0.7-1.7-1.2-2.7-1.1c-1,0-1.9,0.2-2.7,0.8c-0.7,0.5-1,1.3-1,2.2v6c0,0.8,0.3,1.7,1,2.2C78.5,34.4,79.4,34.6,80.4,34.5
	L80.4,34.5z"/>
<path class="st0" d="M101.1,39.1c-1.7,0.1-3.4-0.3-4.9-0.9c-1.4-0.6-2.6-1.6-3.6-2.7l3.3-3.3c0.7,0.8,1.5,1.4,2.4,1.9
	c0.9,0.5,1.9,0.7,2.9,0.7c0.8,0.1,1.6-0.1,2.3-0.5c0.4-0.3,0.7-0.9,0.7-1.4c0-1-0.7-1.5-2-1.7l-2.2-0.3c-4.5-0.6-6.8-2.6-6.8-6.2
	c0-0.9,0.2-1.8,0.6-2.7c0.4-0.8,0.9-1.5,1.6-2.1c0.7-0.6,1.6-1.1,2.5-1.3c1-0.3,2.1-0.5,3.2-0.5c0.9,0,1.9,0.1,2.8,0.2
	c0.7,0.1,1.5,0.3,2.2,0.6c0.6,0.3,1.2,0.6,1.7,1c0.5,0.4,1.1,0.9,1.6,1.3l-3.3,3.3c-0.6-0.6-1.4-1.1-2.2-1.5
	c-0.8-0.4-1.6-0.5-2.5-0.6c-0.7-0.1-1.4,0.1-2.1,0.5c-0.4,0.3-0.6,0.7-0.6,1.2c0,0.5,0.1,0.9,0.4,1.2c0.5,0.4,1.1,0.6,1.7,0.6
	l2.3,0.3c4.4,0.6,6.6,2.6,6.6,6.1c0,0.9-0.2,1.9-0.6,2.7c-0.4,0.8-1,1.6-1.8,2.1c-0.8,0.6-1.7,1.1-2.7,1.4
	C103.6,39,102.3,39.2,101.1,39.1z"/>
<path class="st0" d="M117.3,25c-0.9,0.1-1.9-0.2-2.6-0.9c-0.6-0.6-0.9-1.4-0.8-2.2v-0.8c0-0.8,0.3-1.6,0.8-2.2
	c1.5-1.2,3.6-1.2,5.1,0c0.6,0.6,0.9,1.4,0.8,2.2V22c0,0.8-0.3,1.6-0.8,2.2C119.2,24.8,118.3,25.1,117.3,25z M117.3,39.1
	c-0.9,0.1-1.9-0.2-2.6-0.9c-0.6-0.6-0.9-1.4-0.8-2.2v-0.8c0-0.8,0.3-1.6,0.8-2.2c1.5-1.1,3.6-1.1,5.1,0c0.6,0.6,0.9,1.4,0.8,2.2V36
	c0,0.8-0.3,1.6-0.8,2.2C119.2,38.9,118.3,39.2,117.3,39.1z"/>
<path class="st0" d="M123.8,44.5l11.4-34.2h4.7l-11.4,34.2H123.8z"/>
<path class="st0" d="M134.1,44.5l11.4-34.2h4.7l-11.4,34.2H134.1z"/>
<path class="st0" d="M161.1,39.1c-1.7,0.1-3.4-0.3-4.9-0.9c-1.4-0.6-2.6-1.6-3.6-2.7l3.4-3.3c0.7,0.8,1.5,1.4,2.4,1.9
	c0.9,0.5,2,0.7,3,0.7c0.8,0.1,1.6-0.1,2.3-0.5c0.4-0.3,0.7-0.9,0.6-1.4c0-1-0.7-1.5-2-1.7l-2.2-0.3c-4.5-0.6-6.8-2.6-6.8-6.2
	c0-0.9,0.2-1.8,0.6-2.7c0.4-0.8,0.9-1.5,1.6-2.1c0.7-0.6,1.6-1.1,2.4-1.3c1.1-0.3,2.1-0.5,3.2-0.5c0.9,0,1.9,0.1,2.8,0.2
	c0.7,0.1,1.5,0.3,2.1,0.6c0.6,0.3,1.2,0.6,1.7,1c0.5,0.4,1.1,0.9,1.6,1.3l-3.3,3.3c-0.6-0.6-1.4-1.1-2.2-1.5
	c-0.8-0.4-1.6-0.5-2.5-0.6c-0.7-0.1-1.4,0.1-2.1,0.5c-0.4,0.3-0.6,0.7-0.6,1.2c0,0.5,0.1,0.9,0.4,1.2c0.5,0.4,1.1,0.6,1.7,0.6
	l2.3,0.3c4.4,0.6,6.6,2.6,6.6,6.1c0,0.9-0.2,1.9-0.6,2.7c-0.4,0.8-1,1.6-1.7,2.1c-0.8,0.6-1.7,1.1-2.7,1.4
	C163.6,39,162.4,39.2,161.1,39.1z"/>
<path class="st0" d="M181.8,39.1c-1.4,0-2.7-0.2-4-0.7c-1.1-0.5-2.2-1.2-3-2.1c-0.8-1-1.4-2.1-1.8-3.3c-0.4-1.4-0.6-2.9-0.6-4.4
	c0-1.5,0.2-3,0.7-4.4c0.4-1.2,1-2.3,1.8-3.3c0.8-0.9,1.8-1.7,3-2.1c1.3-0.5,2.6-0.7,4-0.7c1.8-0.1,3.6,0.4,5.1,1.4
	c1.4,0.9,2.4,2.3,2.9,3.9l-4.6,2c-0.2-0.8-0.6-1.5-1.1-2c-0.6-0.6-1.5-0.9-2.3-0.8c-1-0.1-2,0.4-2.6,1.1c-0.6,0.9-0.9,1.9-0.9,3v3.8
	c-0.1,1.1,0.3,2.1,0.9,3c0.6,0.8,1.6,1.2,2.6,1.1c0.9,0,1.8-0.3,2.4-0.8c0.6-0.6,1.1-1.3,1.3-2.2l4.4,1.9c-0.5,1.7-1.6,3.2-3.1,4.2
	C185.4,38.6,183.6,39.1,181.8,39.1z"/>
<path class="st0" d="M193.5,38.7V18.5h5.7v4.4h0.2c0.1-0.6,0.3-1.1,0.5-1.6c0.2-0.5,0.6-1,1-1.4c0.4-0.4,0.9-0.8,1.5-1
	c0.7-0.3,1.4-0.4,2.1-0.4h1v5.3H204c-1.3-0.1-2.5,0.1-3.7,0.7c-0.8,0.5-1.3,1.4-1.2,2.4v11.8L193.5,38.7z"/>
<path class="st0" d="M216.2,38.7c-1.6,0.1-3.2-0.4-4.5-1.5c-1.1-1.2-1.6-2.8-1.5-4.4V23h-2.8v-4.4h1.4c0.6,0.1,1.2-0.1,1.6-0.6
	c0.3-0.5,0.5-1,0.4-1.6v-3.3h5.1v5.4h4v4.4h-4v11.3h3.7v4.4L216.2,38.7z"/>
<path class="st0" d="M227.1,39.1c-0.9,0.1-1.9-0.2-2.6-0.9c-0.6-0.6-0.9-1.4-0.8-2.2v-0.8c0-0.8,0.3-1.6,0.8-2.2
	c1.5-1.1,3.6-1.1,5.1,0c0.6,0.6,0.9,1.4,0.8,2.2V36c0,0.8-0.3,1.6-0.8,2.2C229,38.9,228,39.2,227.1,39.1z"/>
<path class="st0" d="M241.3,38.7c-2.7,0.4-5.2-1.4-5.6-4.1c-0.1-0.5-0.1-0.9,0-1.4V10.3h5.7v24h2.5v4.4L241.3,38.7z"/>
<path class="st0" d="M250.2,16.4c-0.9,0.1-1.8-0.2-2.5-0.8c-0.5-0.5-0.8-1.3-0.8-2v-0.8c0-0.7,0.3-1.5,0.8-2c1.5-1,3.5-1,5,0
	c0.5,0.5,0.8,1.3,0.8,2v0.8c0,0.7-0.3,1.5-0.8,2C252,16.2,251.1,16.5,250.2,16.4z M247.3,18.5h5.7v20.1h-5.7V18.5z"/>
<path class="st0" d="M258.3,38.7V18.5h5.7v3.4h0.2c0.4-1.1,1-2,1.9-2.7c1.1-0.8,2.4-1.2,3.7-1.2c1.8-0.1,3.6,0.7,4.7,2.1
	c1.2,1.7,1.7,3.8,1.6,5.9v12.6h-5.7V26.5c0.1-1-0.1-2-0.6-2.9c-0.5-0.7-1.3-1-2.2-0.9c-0.5,0-0.9,0.1-1.3,0.2
	c-0.4,0.1-0.8,0.3-1.2,0.6c-0.3,0.2-0.6,0.6-0.8,0.9c-0.2,0.4-0.3,0.8-0.3,1.3v13L258.3,38.7z"/>
<path class="st0" d="M281.1,10.3h5.7V27h0.2l2.5-3.7l4-4.8h6.3l-6.7,7.7l7.5,12.4h-6.8l-4.5-8.5l-2.5,2.8v5.7h-5.7V10.3z"/>
<path class="st0" d="M300.8,44.5l11.4-34.2h4.7l-11.4,34.2H300.8z"/>
<path class="st0" d="M326.6,38.7c-2.7,0.4-5.2-1.4-5.6-4.1c-0.1-0.5-0.1-1,0-1.4V10.3h5.7v24h2.5v4.4L326.6,38.7z"/>
<path class="st0" d="M330,44.5l11.5-34.2h4.7l-11.4,34.2H330z"/>
<path class="st3" d="M357.1,38.7l-8.6-26.8h5.9l4,12.8l2.1,8.4h0.1l2-8.4l4-12.8h5.7l-8.7,26.8L357.1,38.7z"/>
<path class="st3" d="M375.8,11.9h10.1c1.6,0,3.3,0.3,4.8,0.8c1.4,0.5,2.7,1.4,3.7,2.5c1.1,1.2,1.9,2.6,2.4,4.2
	c1.1,3.8,1.1,7.9,0,11.7c-0.5,1.5-1.3,3-2.4,4.2c-1,1.1-2.3,2-3.7,2.5c-1.5,0.6-3.2,0.9-4.8,0.8h-10.1V11.9z M385.9,33.5
	c1.5,0.1,3-0.4,4.1-1.5c1-1,1.5-2.5,1.5-4.7v-4.2c0-2.2-0.5-3.7-1.5-4.7c-1.1-1-2.6-1.5-4.1-1.5h-4.3v16.4L385.9,33.5z"/>
<path class="st3" d="M402.3,18.5h5.7v22.3c0.4,2.7-1.5,5.2-4.2,5.5c-0.5,0.1-1,0.1-1.5,0h-3v-4.4h3V18.5z M405.1,16.4
	c-0.9,0.1-1.8-0.2-2.5-0.8c-0.5-0.5-0.8-1.3-0.8-2v-0.8c0-0.7,0.3-1.5,0.8-2c1.5-1,3.5-1,5,0c0.5,0.5,0.8,1.3,0.8,2v0.8
	c0,0.7-0.3,1.5-0.8,2C406.9,16.2,406,16.5,405.1,16.4z"/>
<path class="st3" d="M413.5,38.7V11.9h12.7c1.2,0,2.3,0.2,3.4,0.6c1,0.4,1.8,1,2.5,1.8c0.7,0.8,1.3,1.7,1.6,2.7c0.8,2.3,0.8,4.7,0,7
	c-0.4,1-0.9,1.9-1.6,2.7c-0.7,0.8-1.6,1.3-2.5,1.7c-1.1,0.4-2.2,0.7-3.4,0.6h-6.8v9.7L413.5,38.7z M419.4,23.9h6.1
	c0.7,0,1.5-0.2,2-0.7c0.5-0.5,0.8-1.3,0.8-2v-1.7c0.1-0.7-0.2-1.5-0.8-2c-0.6-0.5-1.3-0.7-2-0.7h-6.1V23.9z"/>
<path class="st3" d="M438.4,10.3h5.7V27h0.2l2.5-3.7l4-4.8h6.3l-6.7,7.7l7.5,12.4h-6.8l-4.5-8.5l-2.5,2.8v5.7h-5.7V10.3z"/>
<path class="st3" d="M460.5,38.7V18.5h5.7v3.4h0.2c0.4-1.1,1-2,1.8-2.7c1-0.8,2.3-1.2,3.6-1.1c1.3,0,2.5,0.3,3.5,1
	c1,0.7,1.8,1.8,2.1,3h0.1c0.2-0.6,0.5-1.1,0.8-1.6c0.4-0.5,0.8-0.9,1.4-1.3c0.6-0.4,1.2-0.7,1.8-0.9c0.7-0.2,1.4-0.3,2.1-0.3
	c1.8-0.1,3.4,0.7,4.5,2.2c1.1,1.7,1.7,3.8,1.6,5.9v12.6h-5.7V26.5c0-2.5-0.9-3.8-2.8-3.8c-0.8,0-1.6,0.2-2.3,0.7
	c-0.7,0.5-1.1,1.4-1,2.2v13h-5.7V26.5c0-2.5-0.9-3.8-2.8-3.8c-0.4,0-0.8,0.1-1.2,0.2c-0.4,0.1-0.8,0.3-1.1,0.6
	c-0.3,0.3-0.6,0.6-0.8,0.9c-0.2,0.4-0.3,0.8-0.3,1.3v13L460.5,38.7z"/>
<path class="st3" d="M494.8,10.3h5.7v11.7h0.2c0.4-1.1,1-2,1.9-2.7c1.1-0.8,2.4-1.2,3.7-1.2c1.8-0.1,3.5,0.7,4.7,2.1
	c1.2,1.7,1.7,3.8,1.6,5.9v12.6h-5.7V26.5c0.1-1-0.1-2-0.6-2.9c-0.5-0.7-1.3-1-2.2-0.9c-0.5,0-0.9,0.1-1.3,0.2
	c-0.4,0.1-0.8,0.3-1.2,0.6c-0.3,0.2-0.6,0.6-0.8,0.9c-0.2,0.4-0.3,0.8-0.3,1.3v13h-5.7L494.8,10.3z"/>
<path class="st3" d="M518,11.9h13c1.9-0.1,3.8,0.6,5.2,1.9c1.3,1.3,2,3.1,1.9,5c0,0.9-0.1,1.8-0.4,2.6c-0.2,0.7-0.6,1.3-1.1,1.8
	c-0.4,0.4-1,0.8-1.6,1c-0.6,0.2-1.3,0.3-1.9,0.4v0.2c0.7,0,1.4,0.1,2,0.3c0.7,0.2,1.4,0.6,1.9,1.1c0.6,0.5,1.1,1.2,1.5,1.9
	c0.4,0.9,0.6,1.9,0.6,2.9c0,1-0.2,2-0.5,3c-0.3,0.9-0.8,1.7-1.4,2.4c-0.6,0.7-1.4,1.2-2.2,1.6c-0.9,0.4-1.8,0.6-2.8,0.6H518V11.9z
	 M523.8,22.9h5.8c1.2,0.1,2.4-0.8,2.5-2.1c0-0.1,0-0.3,0-0.4v-1.2c0.1-1.2-0.8-2.3-2.1-2.5c-0.1,0-0.3,0-0.4,0h-5.8V22.9z
	 M523.8,33.8h6.7c0.7,0,1.3-0.2,1.8-0.6c0.5-0.5,0.7-1.1,0.7-1.8v-1.3c0-0.7-0.2-1.3-0.7-1.8c-0.5-0.4-1.2-0.7-1.8-0.6h-6.7V33.8z"
	/>
<path class="st3" d="M558.2,38.7c-0.9,0-1.9-0.3-2.5-1c-0.7-0.7-1.2-1.6-1.3-2.6h-0.2c-0.2,1.2-1,2.3-2,3c-1.2,0.7-2.5,1-3.9,1
	c-1.7,0.1-3.4-0.5-4.6-1.6c-1.1-1.1-1.7-2.7-1.6-4.2c-0.1-1.9,0.8-3.7,2.3-4.7c1.9-1.1,4.1-1.7,6.3-1.6h3.2v-1.3
	c0-0.8-0.2-1.7-0.8-2.3c-0.7-0.6-1.6-1-2.6-0.9c-0.9,0-1.9,0.2-2.7,0.7c-0.6,0.5-1.2,1-1.7,1.7l-3.4-3c0.8-1.2,1.8-2.1,3.1-2.8
	c1.6-0.7,3.3-1.1,5-1c2.9,0,5,0.6,6.5,1.9c1.5,1.4,2.3,3.4,2.2,5.5v8.8h1.9v4.4L558.2,38.7z M550.3,35.2c0.8,0,1.7-0.2,2.4-0.6
	c0.7-0.4,1.1-1.2,1-2v-2.4H551c-2.2,0-3.3,0.7-3.3,2.2V33c-0.1,0.6,0.2,1.2,0.7,1.6C548.9,35,549.6,35.2,550.3,35.2z"/>
<path class="st3" d="M587.7,38.7h-6.8l-5.8-9.9H575l-5.6,9.9h-6.3l8.6-13.8l-8.2-12.9h6.8l5.2,9.1h0.1l5.3-9.1h6.3l-8.2,13
	L587.7,38.7z"/>
<path class="st3" d="M590.9,38.7V18.5h5.7v3.4h0.2c0.4-1.1,1-2,1.8-2.7c1-0.8,2.3-1.2,3.6-1.1c1.3,0,2.5,0.3,3.5,1
	c1,0.7,1.7,1.8,2.1,3h0.1c0.2-0.6,0.5-1.1,0.8-1.6c0.4-0.5,0.8-0.9,1.4-1.3c0.6-0.4,1.2-0.7,1.8-0.9c0.7-0.2,1.4-0.3,2.2-0.3
	c1.7-0.1,3.4,0.7,4.5,2.1c1.1,1.7,1.7,3.8,1.5,5.9v12.6h-5.7V26.5c0-2.5-0.9-3.8-2.8-3.8c-0.8,0-1.6,0.2-2.3,0.7
	c-0.7,0.5-1.1,1.4-1,2.2v13h-5.7V26.5c0-2.5-0.9-3.8-2.8-3.8c-0.4,0-0.8,0.1-1.2,0.2c-0.4,0.1-0.8,0.3-1.1,0.6
	c-0.3,0.3-0.6,0.6-0.8,0.9c-0.2,0.4-0.3,0.8-0.3,1.3v13L590.9,38.7z"/>
<path class="st3" d="M644,22.1c0,1.8-0.3,3.6-0.9,5.3c-0.6,1.6-1.3,3.2-2.2,4.6c-0.9,1.4-1.9,2.7-3.1,3.8c-1.1,1.1-2.2,2-3.4,2.8
	h-7.9c1.6-1.2,3.1-2.3,4.4-3.3c1.2-1,2.4-2,3.4-3.2c0.9-1,1.7-2.1,2.4-3.3c0.6-1.1,1.1-2.3,1.3-3.6l-0.3-0.1c-0.2,0.5-0.5,1-0.8,1.5
	c-0.3,0.5-0.7,0.9-1.2,1.3c-0.5,0.4-1.1,0.7-1.7,0.9c-0.7,0.2-1.5,0.4-2.2,0.3c-1.1,0-2.1-0.2-3.1-0.6c-1.9-0.8-3.4-2.3-4.1-4.3
	c-0.4-1.1-0.6-2.3-0.6-3.4c0-1.3,0.2-2.6,0.7-3.8c0.4-1.1,1.1-2.2,2-3c0.9-0.9,2-1.5,3.2-1.9c1.3-0.5,2.7-0.7,4.1-0.7
	c1.5,0,2.9,0.2,4.3,0.8c1.2,0.5,2.3,1.2,3.2,2.1c0.9,1,1.5,2.1,2,3.4C643.8,19.1,644,20.6,644,22.1z M634,24.7
	c2,0.2,3.9-1.3,4.1-3.3c0-0.3,0-0.5,0-0.8V20c0.1-1.1-0.3-2.2-1.1-3c-1.8-1.4-4.2-1.4-6,0c-0.8,0.8-1.1,1.9-1.1,3v0.7
	c-0.1,1.1,0.3,2.2,1.1,3C631.7,24.4,632.8,24.8,634,24.7L634,24.7z"/>
<path class="st0" d="M659.6,32h-6.1l-1.2,6.6h-3.6l1.2-6.6H646v-3.4h4.5l1.1-6.6h-3.9v-3.4h4.5l1.2-6.6h3.6l-1.2,6.6h6.1l1.2-6.6
	h3.6l-1.2,6.6h3.9V22h-4.5l-1.1,6.6h3.9V32h-4.5l-1.2,6.6h-3.6L659.6,32z M660.2,28.6l1.2-6.6h-6.1l-1.2,6.6H660.2z"/>
<path class="st3" d="M672.8,11.9h10.1c1.6,0,3.3,0.3,4.8,0.8c1.4,0.5,2.7,1.4,3.7,2.5c1.1,1.2,1.9,2.6,2.4,4.2
	c1.1,3.8,1.1,7.9,0,11.7c-0.5,1.5-1.3,3-2.4,4.2c-1,1.1-2.3,2-3.7,2.5c-1.5,0.6-3.2,0.9-4.8,0.8h-10.1V11.9z M682.9,33.5
	c1.5,0.1,3-0.4,4.1-1.5c1-1,1.5-2.5,1.5-4.7v-4.2c0-2.2-0.5-3.7-1.5-4.7c-1.1-1-2.6-1.5-4.1-1.5h-4.3v16.4L682.9,33.5z"/>
<path class="st3" d="M718,22.1c0,1.8-0.3,3.6-0.9,5.3c-0.6,1.6-1.3,3.2-2.2,4.6c-0.9,1.4-1.9,2.7-3.1,3.8c-1.1,1.1-2.2,2-3.4,2.8
	h-7.9c1.6-1.2,3.1-2.3,4.4-3.3c1.2-1,2.3-2,3.4-3.2c0.9-1,1.7-2.1,2.4-3.3c0.6-1.1,1.1-2.3,1.3-3.6l-0.3-0.1c-0.2,0.5-0.5,1-0.8,1.5
	c-0.3,0.5-0.7,0.9-1.2,1.3c-0.5,0.4-1.1,0.7-1.7,0.9c-0.7,0.2-1.5,0.4-2.2,0.3c-1.1,0-2.1-0.2-3.1-0.6c-0.9-0.4-1.8-1-2.5-1.7
	c-0.7-0.8-1.3-1.6-1.7-2.6c-0.4-1.1-0.6-2.3-0.6-3.4c0-1.3,0.2-2.6,0.7-3.8c0.4-1.1,1.1-2.2,2-3c0.9-0.9,2-1.5,3.2-1.9
	c1.3-0.5,2.7-0.7,4.1-0.7c1.5,0,2.9,0.2,4.3,0.8c1.2,0.5,2.3,1.2,3.2,2.1c0.9,1,1.6,2.1,2,3.4C717.8,19.1,718,20.6,718,22.1z
	 M708,24.7c1.1,0.1,2.2-0.3,3-1c0.8-0.8,1.1-1.9,1.1-3v-0.7c0.1-1.1-0.3-2.2-1.1-3c-1.8-1.4-4.2-1.4-6,0c-0.8,0.8-1.2,1.9-1.1,3v0.7
	c-0.2,2,1.3,3.9,3.3,4.1C707.4,24.8,707.7,24.8,708,24.7L708,24.7z"/>
<path class="st3" d="M729.6,22.5c1.1,0.1,2.2-0.2,3.1-0.8c0.6-0.5,1-1.2,1-2v-0.3c0-0.9-0.3-1.7-0.9-2.3c-0.7-0.6-1.7-0.9-2.7-0.9
	c-1.1,0-2.1,0.3-3,0.8c-1,0.6-1.8,1.4-2.4,2.4l-3.6-3.4c0.5-0.7,1.1-1.3,1.7-1.8c0.6-0.6,1.3-1,2-1.4c0.8-0.4,1.6-0.7,2.5-0.9
	c1-0.2,2.1-0.3,3.1-0.3c1.3,0,2.6,0.2,3.9,0.5c1.1,0.3,2.1,0.8,3,1.4c0.8,0.6,1.5,1.4,1.9,2.2c0.8,1.6,0.9,3.5,0.3,5.2
	c-0.3,0.7-0.6,1.3-1.1,1.8c-0.5,0.5-1,0.9-1.6,1.2c-0.6,0.3-1.3,0.5-2,0.7v0.2c0.8,0.1,1.5,0.4,2.2,0.8c0.7,0.3,1.3,0.8,1.8,1.3
	c0.5,0.6,0.9,1.2,1.2,1.9c0.3,0.8,0.4,1.6,0.4,2.5c0,2.3-1,4.4-2.8,5.8c-1,0.7-2.1,1.3-3.2,1.6c-1.3,0.4-2.7,0.6-4.1,0.6
	c-1.2,0-2.4-0.1-3.6-0.4c-1-0.2-1.9-0.6-2.7-1.1c-0.7-0.4-1.4-1-2-1.6c-0.6-0.6-1.1-1.3-1.5-2l4.3-3.3c0.5,1,1.3,2,2.2,2.7
	c1,0.7,2.2,1.1,3.5,1.1c1.1,0,2.2-0.3,3-1c0.7-0.7,1.1-1.7,1.1-2.7v-0.2c0.1-1-0.4-1.9-1.2-2.5c-1-0.6-2.2-0.9-3.4-0.8h-2.4v-4.8
	H729.6z"/>
<path class="st3" d="M754.2,39.1c-1.5,0-2.9-0.2-4.3-0.7c-1.2-0.5-2.3-1.2-3.2-2.2c-0.9-1-1.6-2.1-2-3.4c-0.5-1.4-0.7-2.9-0.7-4.4
	c0-1.8,0.3-3.6,0.9-5.3c0.6-1.6,1.3-3.2,2.2-4.7c0.9-1.4,1.9-2.7,3.1-3.8c1.1-1.1,2.2-2,3.4-2.8h7.9c-1.6,1.2-3.1,2.3-4.4,3.4
	c-1.2,1-2.4,2-3.4,3.2c-0.9,1-1.7,2.1-2.4,3.3c-0.6,1.1-1.1,2.3-1.3,3.6l0.3,0.1c0.2-0.5,0.5-1,0.8-1.5c0.3-0.5,0.7-0.9,1.2-1.3
	c0.5-0.4,1.1-0.7,1.7-0.9c0.7-0.2,1.5-0.4,2.2-0.3c1.1,0,2.1,0.2,3.1,0.6c0.9,0.4,1.8,0.9,2.5,1.7c0.7,0.7,1.3,1.6,1.7,2.6
	c0.4,1.1,0.6,2.3,0.6,3.4c0,1.3-0.2,2.6-0.7,3.8c-0.4,1.1-1.1,2.2-2,3c-0.9,0.8-2,1.5-3.2,1.9C757.1,38.9,755.7,39.2,754.2,39.1z
	 M754.2,34.6c2,0.2,3.9-1.3,4.1-3.3c0-0.3,0-0.5,0-0.8v-0.7c0.1-1.1-0.3-2.2-1.1-3c-1.7-1.4-4.3-1.4-6,0c-0.8,0.8-1.2,1.9-1.1,3v0.7
	c-0.2,2,1.3,3.9,3.3,4.1C753.7,34.7,754,34.7,754.2,34.6L754.2,34.6z"/>
<path class="st3" d="M768.5,38.7V11.9h17.8v5.2h-11.9v5.4h10.2v5.2h-10.2v11L768.5,38.7z"/>
<path class="st3" d="M801,38.7v-5.1h-11.8v-4.9l10.4-16.7h6.8V29h3.4v4.5h-3.4v5.1H801z M793.8,29h7.2V17.8h-0.4L793.8,29z"/>
<path class="st3" d="M814,38.7V11.9h12.7c1.2,0,2.3,0.2,3.4,0.6c1,0.4,1.8,1,2.5,1.8c0.7,0.8,1.3,1.7,1.6,2.7c0.8,2.3,0.8,4.7,0,7
	c-0.4,1-0.9,1.9-1.6,2.7c-0.7,0.7-1.6,1.3-2.5,1.7c-1.1,0.4-2.2,0.7-3.4,0.6h-6.8v9.7L814,38.7z M819.8,23.9h6.2
	c0.7,0,1.4-0.2,2-0.7c0.5-0.5,0.8-1.3,0.8-2v-1.7c0.1-0.7-0.2-1.5-0.8-2c-0.6-0.5-1.3-0.7-2-0.7h-6.1L819.8,23.9z"/>
<path class="st3" d="M851.2,18.5h5.3l-7.8,23.2c-0.4,1.3-1.1,2.5-2.2,3.4c-1.2,0.8-2.6,1.2-4,1.1H839v-4.4h3.8l0.7-2.2l-7.1-21.2
	h5.6l3,9.4l1.5,5.8h0.2l1.5-5.8L851.2,18.5z"/>
<path class="st3" d="M865.2,11.9v16.4c-0.1,1.5,0.3,3,1.1,4.2c2.1,1.9,5.3,1.9,7.4,0c0.8-1.3,1.2-2.7,1.1-4.2V11.9h5.7v15.8
	c0,1.7-0.2,3.4-0.6,5.1c-0.3,1.3-0.9,2.5-1.8,3.6c-0.9,1-2,1.7-3.3,2.1c-3.2,0.9-6.6,0.9-9.7,0c-1.3-0.4-2.4-1.1-3.3-2.1
	c-0.9-1-1.5-2.2-1.8-3.6c-0.4-1.7-0.6-3.4-0.5-5.1V11.9H865.2z"/>
<path class="st3" d="M904.1,45.7h-3.6c-2.1,0-3.6-0.5-4.5-1.4c-1-1.2-1.5-2.7-1.4-4.2v-1.1c-2.7-0.4-5.2-1.9-6.8-4.2
	c-1.7-2.3-2.5-5.4-2.5-9.4c0-2,0.2-4.1,0.8-6c0.5-1.6,1.3-3.1,2.4-4.3c1-1.2,2.3-2.1,3.7-2.6c3.1-1.2,6.6-1.2,9.7,0
	c1.4,0.6,2.7,1.5,3.7,2.6c1.1,1.3,1.9,2.7,2.4,4.3c0.6,1.9,0.9,4,0.8,6c0,3.9-0.8,7-2.4,9.2c-1.5,2.2-3.8,3.8-6.4,4.3V41h4.1
	L904.1,45.7z M897,34c1.6,0.1,3.1-0.6,4.1-1.7c1.1-1.4,1.6-3.2,1.5-5v-4c0.1-1.8-0.4-3.5-1.5-4.9c-2.3-2.3-5.9-2.3-8.2,0
	c0,0,0,0,0,0c-1.1,1.4-1.6,3.2-1.5,4.9v4c-0.1,1.8,0.4,3.6,1.5,5C893.9,33.4,895.4,34,897,34z"/>
<path class="st3" d="M918.3,38.7V28.2l-9.2-16.3h6.5l5.8,10.7h0.1l5.5-10.7h6.3l-9.2,16.3v10.5L918.3,38.7z"/>
<path class="st3" d="M936,10.3h5.7v11.7h0.2c0.4-1.1,1-2,1.9-2.7c2.6-1.8,6.2-1.4,8.4,0.9c1.2,1.7,1.7,3.8,1.6,5.9v12.6h-5.7V26.5
	c0.1-1-0.1-2-0.6-2.9c-0.5-0.7-1.3-1-2.2-0.9c-0.5,0-0.9,0.1-1.3,0.2c-0.4,0.1-0.8,0.3-1.2,0.6c-0.3,0.2-0.6,0.6-0.8,0.9
	c-0.2,0.4-0.3,0.8-0.3,1.3v13H936V10.3z"/>
<path class="st3" d="M975.2,27.7H965v11h-5.8V11.9h5.8v10.6h10.2V11.9h5.8v26.8h-5.8L975.2,27.7z"/>
<path class="st3" d="M996.9,38.7v-5.1h-11.8v-4.9l10.4-16.7h6.8V29h3.4v4.5h-3.4v5.1H996.9z M989.7,29h7.2V17.8h-0.4L989.7,29z"/>
<path class="st4" d="M1005.8,70.8c0,19.6-29.6,35.6-66,35.6h-56.2l-42.2,22.8l-42.2-22.8H743c-36.4,0-66-16-66-35.6"/>
<path class="st5" d="M640.3,70.8c0,19.6-25.6,35.6-57.1,35.6h-48.7L498,129.2l-36.5-22.8h-48.7c-31.5,0-57.1-16-57.1-35.6"/>
<path class="st6" d="M330.1,70.8c0,19.6-27,35.6-60.2,35.6h-51.3l-38.5,22.8l-38.5-22.8H90.3c-33.2,0-60.2-16-60.2-35.6"/>
</svg>
