<svg xmlns="http://www.w3.org/2000/svg" viewBox="0 0 1030 320"><defs><style>.cls-1{fill:#ff0083;}.cls-2{fill:#fff;}.cls-3,.cls-4,.cls-5{fill:none;stroke:#fff;stroke-miterlimit:10;}.cls-3{stroke-width:4.29px;}.cls-4{stroke-width:3.99px;}.cls-5{stroke-width:4.1px;}</style></defs><g id="Layer_1" data-name="Layer 1"><path class="cls-1" d="M704.88,258.13l-6.41-19.54h3.28l3.11,9.66,1.87,6.8h.11l1.91-6.8,3.11-9.66h3.19l-6.5,19.54Z"/><path class="cls-1" d="M722.55,258.47a6.92,6.92,0,0,1-2.8-.54,5.79,5.79,0,0,1-2.1-1.52,6.86,6.86,0,0,1-1.33-2.41,11,11,0,0,1,0-6.3,7,7,0,0,1,1.33-2.41,5.79,5.79,0,0,1,2.1-1.52,6.92,6.92,0,0,1,2.8-.53,6.6,6.6,0,0,1,2.82.56,5.67,5.67,0,0,1,2,1.55,6.7,6.7,0,0,1,1.21,2.31,9.58,9.58,0,0,1,.41,2.83v1.15H719v.47a3.9,3.9,0,0,0,1,2.74,3.69,3.69,0,0,0,2.84,1.07,4.08,4.08,0,0,0,2.27-.59,5,5,0,0,0,1.57-1.58l1.79,1.77a5.84,5.84,0,0,1-2.35,2.15A7.75,7.75,0,0,1,722.55,258.47Zm0-12.85a3.59,3.59,0,0,0-1.44.28,3.06,3.06,0,0,0-1.12.78,3.35,3.35,0,0,0-.71,1.2,4.48,4.48,0,0,0-.26,1.54v.2h6.78v-.28a4,4,0,0,0-.87-2.7A3,3,0,0,0,722.55,245.62Z"/><path class="cls-1" d="M732.41,258.13V243.57h3.05v2.8h.14a4,4,0,0,1,1.29-2,4,4,0,0,1,2.71-.84h.82v2.94h-1.21a5.4,5.4,0,0,0-2.78.59,1.89,1.89,0,0,0-1,1.73v9.3Z"/><path class="cls-1" d="M747.75,258.47a7.52,7.52,0,0,1-3.47-.73,7.72,7.72,0,0,1-2.44-2l2-1.79a6.62,6.62,0,0,0,1.81,1.53,4.75,4.75,0,0,0,2.31.54,3.24,3.24,0,0,0,2-.51,1.75,1.75,0,0,0,.66-1.45,1.68,1.68,0,0,0-.46-1.19,2.71,2.71,0,0,0-1.61-.63l-1.35-.16a6.93,6.93,0,0,1-3.51-1.31,3.64,3.64,0,0,1-1.27-3,4.37,4.37,0,0,1,.39-1.89,4,4,0,0,1,1.1-1.41,5.32,5.32,0,0,1,1.71-.88,7.6,7.6,0,0,1,2.2-.3,6.54,6.54,0,0,1,5.43,2.32l-1.87,1.79a5.11,5.11,0,0,0-1.47-1.16,4.33,4.33,0,0,0-2.09-.49,2.89,2.89,0,0,0-1.86.5,1.65,1.65,0,0,0-.6,1.32,1.49,1.49,0,0,0,.53,1.26,3.88,3.88,0,0,0,1.71.62l1.34.16a6.44,6.44,0,0,1,3.51,1.42,3.69,3.69,0,0,1,1.11,2.81,4.43,4.43,0,0,1-.41,1.92,4.12,4.12,0,0,1-1.16,1.47,5.33,5.33,0,0,1-1.82.95A8,8,0,0,1,747.75,258.47Z"/><path class="cls-1" d="M762.59,258.47a6.92,6.92,0,0,1-2.8-.54,5.52,5.52,0,0,1-2.07-1.52,7,7,0,0,1-1.29-2.41,11.25,11.25,0,0,1,0-6.3,7,7,0,0,1,1.29-2.41,5.52,5.52,0,0,1,2.07-1.52,6.92,6.92,0,0,1,2.8-.53,6.09,6.09,0,0,1,3.59,1,5.65,5.65,0,0,1,2,2.6L765.7,248a3.11,3.11,0,0,0-1.08-1.61,3.15,3.15,0,0,0-2-.61,3.07,3.07,0,0,0-2.53,1.05,4.18,4.18,0,0,0-.86,2.72v2.6a4.16,4.16,0,0,0,.86,2.72,3.07,3.07,0,0,0,2.53,1,3.24,3.24,0,0,0,2.14-.66,4.55,4.55,0,0,0,1.28-1.75l2.32,1.23a5.77,5.77,0,0,1-2.18,2.76A6.26,6.26,0,0,1,762.59,258.47Z"/><path class="cls-1" d="M771.24,237.41h3.06V246h.14a4.69,4.69,0,0,1,1.44-2,4.07,4.07,0,0,1,2.64-.78,4.32,4.32,0,0,1,3.49,1.47,6.26,6.26,0,0,1,1.25,4.18v9.24H780.2v-8.88q0-3.37-2.74-3.38a4.56,4.56,0,0,0-1.16.15,3.18,3.18,0,0,0-1,.46,2.37,2.37,0,0,0-.72.79,2.15,2.15,0,0,0-.26,1.09v9.77h-3.06Z"/><path class="cls-1" d="M790.59,258.13a3.1,3.1,0,0,1-2.34-.8,3.07,3.07,0,0,1-.77-2.22v-17.7h3.06v18.23h2v2.49Z"/><path class="cls-1" d="M804.28,255.72h-.11a5.05,5.05,0,0,1-.52,1,3.37,3.37,0,0,1-.81.88,4,4,0,0,1-1.18.6,5,5,0,0,1-1.58.23,4.37,4.37,0,0,1-3.51-1.46,6.24,6.24,0,0,1-1.25-4.17v-9.27h3v8.88c0,2.26.94,3.38,2.81,3.38a4.35,4.35,0,0,0,1.14-.15,3.17,3.17,0,0,0,1-.46,2.42,2.42,0,0,0,.7-.79,2.28,2.28,0,0,0,.26-1.11v-9.75h3.05v14.56h-3.05Zm-5.71-14.67a1.78,1.78,0,0,1-1.34-.42,1.5,1.5,0,0,1-.4-1.06v-.51a1.5,1.5,0,0,1,.4-1.06,2.35,2.35,0,0,1,2.68,0,1.46,1.46,0,0,1,.4,1.06v.51a1.46,1.46,0,0,1-.4,1.06A1.76,1.76,0,0,1,798.57,241.05Zm5.6,0a1.78,1.78,0,0,1-1.34-.42,1.49,1.49,0,0,1-.39-1.06v-.51a1.49,1.49,0,0,1,.39-1.06,1.78,1.78,0,0,1,1.34-.42,1.8,1.8,0,0,1,1.35.42,1.49,1.49,0,0,1,.39,1.06v.51a1.49,1.49,0,0,1-.39,1.06A1.8,1.8,0,0,1,804.17,241.05Z"/><path class="cls-1" d="M816.32,258.47a7.52,7.52,0,0,1-3.47-.73,7.72,7.72,0,0,1-2.44-2l2-1.79a6.62,6.62,0,0,0,1.81,1.53,4.75,4.75,0,0,0,2.31.54,3.24,3.24,0,0,0,2-.51,1.75,1.75,0,0,0,.66-1.45,1.68,1.68,0,0,0-.46-1.19,2.71,2.71,0,0,0-1.61-.63l-1.35-.16a6.93,6.93,0,0,1-3.51-1.31,3.64,3.64,0,0,1-1.27-3,4.37,4.37,0,0,1,.39-1.89,4,4,0,0,1,1.1-1.41,5.32,5.32,0,0,1,1.71-.88,7.6,7.6,0,0,1,2.2-.3,6.54,6.54,0,0,1,5.43,2.32l-1.87,1.79a5.11,5.11,0,0,0-1.47-1.16,4.33,4.33,0,0,0-2.09-.49,2.89,2.89,0,0,0-1.86.5,1.65,1.65,0,0,0-.6,1.32,1.49,1.49,0,0,0,.53,1.26,3.88,3.88,0,0,0,1.71.62l1.34.16A6.44,6.44,0,0,1,821,251a3.69,3.69,0,0,1,1.11,2.81,4.43,4.43,0,0,1-.41,1.92,4.12,4.12,0,0,1-1.16,1.47,5.33,5.33,0,0,1-1.82.95A8,8,0,0,1,816.32,258.47Z"/><path class="cls-1" d="M830,258.47a7.59,7.59,0,0,1-3.48-.73,7.68,7.68,0,0,1-2.43-2l2-1.79a6.44,6.44,0,0,0,1.8,1.53,4.8,4.8,0,0,0,2.31.54,3.27,3.27,0,0,0,2-.51,1.77,1.77,0,0,0,.65-1.45,1.68,1.68,0,0,0-.46-1.19,2.69,2.69,0,0,0-1.61-.63l-1.34-.16a7,7,0,0,1-3.52-1.31,3.67,3.67,0,0,1-1.27-3,4.37,4.37,0,0,1,.39-1.89,3.91,3.91,0,0,1,1.11-1.41,5.12,5.12,0,0,1,1.71-.88,7.53,7.53,0,0,1,2.19-.3,7.26,7.26,0,0,1,3.21.61,7.43,7.43,0,0,1,2.23,1.71l-1.88,1.79a4.85,4.85,0,0,0-1.47-1.16,4.3,4.3,0,0,0-2.09-.49,2.89,2.89,0,0,0-1.86.5,1.65,1.65,0,0,0-.6,1.32,1.52,1.52,0,0,0,.53,1.26,4,4,0,0,0,1.71.62l1.34.16a6.51,6.51,0,0,1,3.52,1.42,3.68,3.68,0,0,1,1.1,2.81,4.43,4.43,0,0,1-.4,1.92,4.23,4.23,0,0,1-1.16,1.47,5.43,5.43,0,0,1-1.82.95A8,8,0,0,1,830,258.47Z"/><path class="cls-1" d="M844.91,258.47a6.92,6.92,0,0,1-2.8-.54,5.79,5.79,0,0,1-2.1-1.52,6.86,6.86,0,0,1-1.33-2.41,11,11,0,0,1,0-6.3,7,7,0,0,1,1.33-2.41,5.79,5.79,0,0,1,2.1-1.52,6.92,6.92,0,0,1,2.8-.53,6.56,6.56,0,0,1,2.81.56,5.5,5.5,0,0,1,2,1.55,6.56,6.56,0,0,1,1.22,2.31,9.58,9.58,0,0,1,.41,2.83v1.15h-10v.47a3.86,3.86,0,0,0,1,2.74,3.69,3.69,0,0,0,2.84,1.07,4.1,4.1,0,0,0,2.27-.59,5,5,0,0,0,1.56-1.58l1.8,1.77a5.87,5.87,0,0,1-2.36,2.15A7.68,7.68,0,0,1,844.91,258.47Zm0-12.85a3.59,3.59,0,0,0-1.44.28,3.06,3.06,0,0,0-1.12.78,3.53,3.53,0,0,0-.72,1.2,4.74,4.74,0,0,0-.25,1.54v.2h6.78v-.28a4,4,0,0,0-.87-2.7A3,3,0,0,0,844.91,245.62Z"/><path class="cls-1" d="M857.87,258.13a3.06,3.06,0,0,1-2.33-.8,3,3,0,0,1-.77-2.22v-17.7h3.05v18.23h2v2.49Z"/><path class="cls-1" d="M871.57,255.72h-.12a5.56,5.56,0,0,1-.51,1,3.6,3.6,0,0,1-.82.88,3.91,3.91,0,0,1-1.17.6,5.1,5.1,0,0,1-1.58.23,4.38,4.38,0,0,1-3.52-1.46,6.23,6.23,0,0,1-1.24-4.17v-9.27h3v8.88c0,2.26.93,3.38,2.8,3.38a4.48,4.48,0,0,0,1.15-.15,3.22,3.22,0,0,0,1-.46,2.42,2.42,0,0,0,.7-.79,2.17,2.17,0,0,0,.27-1.11v-9.75h3v14.56h-3Z"/><path class="cls-1" d="M879,258.13V243.57h3V246h.14a4.77,4.77,0,0,1,1.44-2,4.1,4.1,0,0,1,2.65-.78,4.31,4.31,0,0,1,3.48,1.47,6.26,6.26,0,0,1,1.25,4.18v9.24h-3v-8.85q0-3.41-2.75-3.41A4.56,4.56,0,0,0,884,246a3.39,3.39,0,0,0-1,.46,2.37,2.37,0,0,0-.72.79,2.32,2.32,0,0,0-.26,1.12v9.74Z"/><path class="cls-1" d="M908,259.5a3.85,3.85,0,0,1-1.73,3.42c-1.16.76-3,1.15-5.66,1.15a16.42,16.42,0,0,1-3-.24,6.75,6.75,0,0,1-2-.69,2.93,2.93,0,0,1-1.16-1.09,2.88,2.88,0,0,1-.37-1.48,2.56,2.56,0,0,1,.66-1.88,3.46,3.46,0,0,1,1.84-.92v-.31a2.16,2.16,0,0,1-1.66-2.24,2,2,0,0,1,.76-1.72,4.59,4.59,0,0,1,1.82-.86v-.11a4.58,4.58,0,0,1-2-1.72,4.88,4.88,0,0,1-.68-2.59,4.66,4.66,0,0,1,1.5-3.61,6.09,6.09,0,0,1,4.29-1.37,7.15,7.15,0,0,1,2.64.44v-.39a2.31,2.31,0,0,1,.46-1.53,1.8,1.8,0,0,1,1.44-.54h2.24v2.46h-3v.59a4.43,4.43,0,0,1,1.52,1.67,4.91,4.91,0,0,1,.53,2.28,4.58,4.58,0,0,1-1.52,3.57,6.24,6.24,0,0,1-4.31,1.36,7.33,7.33,0,0,1-1.9-.23,3.12,3.12,0,0,0-1,.55,1.13,1.13,0,0,0-.42.91.87.87,0,0,0,.53.84,3.61,3.61,0,0,0,1.51.25h3.59a5.74,5.74,0,0,1,3.89,1.08A3.76,3.76,0,0,1,908,259.5Zm-2.85.34a1.41,1.41,0,0,0-.58-1.2,3.49,3.49,0,0,0-2.08-.45h-4.93a1.85,1.85,0,0,0-1,1.68,1.74,1.74,0,0,0,.71,1.44,4.15,4.15,0,0,0,2.43.54h1.9C904,261.85,905.14,261.18,905.14,259.84Zm-4.57-8.91a3.19,3.19,0,0,0,2.09-.6,2.26,2.26,0,0,0,.74-1.86v-.56a2.26,2.26,0,0,0-.74-1.86,3.92,3.92,0,0,0-4.17,0,2.24,2.24,0,0,0-.75,1.86v.56a2.24,2.24,0,0,0,.75,1.86A3.16,3.16,0,0,0,900.57,250.93Z"/><path class="cls-1" d="M914.88,258.47a7.52,7.52,0,0,1-3.47-.73,7.72,7.72,0,0,1-2.44-2l2-1.79a6.48,6.48,0,0,0,1.81,1.53,4.75,4.75,0,0,0,2.31.54,3.24,3.24,0,0,0,2-.51,1.75,1.75,0,0,0,.66-1.45,1.72,1.72,0,0,0-.46-1.19,2.71,2.71,0,0,0-1.61-.63l-1.35-.16a6.93,6.93,0,0,1-3.51-1.31,3.65,3.65,0,0,1-1.28-3,4.37,4.37,0,0,1,.4-1.89,4,4,0,0,1,1.1-1.41,5.32,5.32,0,0,1,1.71-.88,7.6,7.6,0,0,1,2.2-.3,6.54,6.54,0,0,1,5.43,2.32l-1.88,1.79a4.85,4.85,0,0,0-1.47-1.16,4.26,4.26,0,0,0-2.08-.49,2.89,2.89,0,0,0-1.86.5,1.65,1.65,0,0,0-.6,1.32,1.49,1.49,0,0,0,.53,1.26,3.88,3.88,0,0,0,1.71.62l1.34.16a6.47,6.47,0,0,1,3.51,1.42,3.69,3.69,0,0,1,1.11,2.81,4.43,4.43,0,0,1-.41,1.92,4.23,4.23,0,0,1-1.16,1.47,5.33,5.33,0,0,1-1.82.95A8,8,0,0,1,914.88,258.47Z"/><path class="cls-1" d="M929.72,258.47a6.89,6.89,0,0,1-2.8-.54,5.52,5.52,0,0,1-2.07-1.52,7,7,0,0,1-1.29-2.41,11.25,11.25,0,0,1,0-6.3,7,7,0,0,1,1.29-2.41,5.52,5.52,0,0,1,2.07-1.52,6.89,6.89,0,0,1,2.8-.53,6,6,0,0,1,3.58,1,5.61,5.61,0,0,1,2.05,2.6L932.83,248a3,3,0,0,0-3.11-2.22,3.07,3.07,0,0,0-2.53,1.05,4.18,4.18,0,0,0-.86,2.72v2.6a4.16,4.16,0,0,0,.86,2.72,3.07,3.07,0,0,0,2.53,1,3.24,3.24,0,0,0,2.14-.66,4.66,4.66,0,0,0,1.28-1.75l2.32,1.23a5.83,5.83,0,0,1-2.18,2.76A6.26,6.26,0,0,1,929.72,258.47Z"/><path class="cls-1" d="M943.92,258.47a6.86,6.86,0,0,1-2.76-.54,5.78,5.78,0,0,1-2.12-1.52A7.21,7.21,0,0,1,937.7,254a10.58,10.58,0,0,1,0-6.3,7.31,7.31,0,0,1,1.34-2.41,5.78,5.78,0,0,1,2.12-1.52,7.43,7.43,0,0,1,5.51,0,5.78,5.78,0,0,1,2.12,1.52,7.13,7.13,0,0,1,1.34,2.41,10.58,10.58,0,0,1,0,6.3,7,7,0,0,1-1.34,2.41,5.78,5.78,0,0,1-2.12,1.52A6.85,6.85,0,0,1,943.92,258.47Zm0-2.55a3.41,3.41,0,0,0,2.52-1,4,4,0,0,0,.95-2.88v-2.45a4,4,0,0,0-.95-2.89,3.79,3.79,0,0,0-5,0,3.92,3.92,0,0,0-1,2.89v2.45a3.91,3.91,0,0,0,1,2.88A3.38,3.38,0,0,0,943.92,255.92Z"/><path class="cls-1" d="M963.15,255.72H963a4,4,0,0,1-1.55,2,4.49,4.49,0,0,1-2.54.73,5.07,5.07,0,0,1-4.28-2,11.19,11.19,0,0,1,0-11.23,5,5,0,0,1,4.28-2,4.47,4.47,0,0,1,2.54.71,3.89,3.89,0,0,1,1.55,2h.14v-8.57h3.05v20.72h-3.05Zm-3.3.11a3.89,3.89,0,0,0,2.35-.68,2.14,2.14,0,0,0,.95-1.81v-5a2.14,2.14,0,0,0-.95-1.81,4,4,0,0,0-2.35-.68,3.31,3.31,0,0,0-2.55,1,3.82,3.82,0,0,0-.95,2.7v2.52a3.82,3.82,0,0,0,.95,2.7A3.27,3.27,0,0,0,959.85,255.83Z"/><path class="cls-1" d="M976.28,258.47a6.92,6.92,0,0,1-2.8-.54,5.79,5.79,0,0,1-2.1-1.52,6.86,6.86,0,0,1-1.33-2.41,11,11,0,0,1,0-6.3,7,7,0,0,1,1.33-2.41,5.79,5.79,0,0,1,2.1-1.52,6.92,6.92,0,0,1,2.8-.53,6.57,6.57,0,0,1,2.82.56,5.59,5.59,0,0,1,2,1.55,6.72,6.72,0,0,1,1.22,2.31,9.58,9.58,0,0,1,.4,2.83v1.15h-10v.47a3.89,3.89,0,0,0,1,2.74,3.69,3.69,0,0,0,2.84,1.07,4.08,4.08,0,0,0,2.27-.59,4.94,4.94,0,0,0,1.57-1.58l1.79,1.77a5.84,5.84,0,0,1-2.35,2.15A7.72,7.72,0,0,1,976.28,258.47Zm0-12.85a3.59,3.59,0,0,0-1.44.28,3.06,3.06,0,0,0-1.12.78,3.5,3.5,0,0,0-.71,1.2,4.48,4.48,0,0,0-.25,1.54v.2h6.77v-.28a4,4,0,0,0-.87-2.7A3,3,0,0,0,976.28,245.62Z"/><path class="cls-1" d="M442.09,254.85H442a3.76,3.76,0,0,1-1.66,2.35,6.28,6.28,0,0,1-3.6.93,7.83,7.83,0,0,1-3.22-.66,7,7,0,0,1-2.56-1.93,9.06,9.06,0,0,1-1.68-3.16,14.39,14.39,0,0,1-.61-4.36,13.94,13.94,0,0,1,.62-4.32,9,9,0,0,1,1.74-3.18,7.19,7.19,0,0,1,2.68-2,9,9,0,0,1,3.5-.66,8.18,8.18,0,0,1,4.46,1.16,7.89,7.89,0,0,1,2.83,3.23l-2.58,1.51a5.08,5.08,0,0,0-1.74-2.24,5.46,5.46,0,0,0-6.7.64,5.83,5.83,0,0,0-1.42,4.21v3.2a5.86,5.86,0,0,0,1.42,4.22,4.92,4.92,0,0,0,3.73,1.49,6.41,6.41,0,0,0,1.77-.24,4.55,4.55,0,0,0,1.47-.7,3.52,3.52,0,0,0,1-1.16,3.33,3.33,0,0,0,.38-1.61v-1.53h-4v-2.71h7.09v10.41h-2.77Z"/><path class="cls-1" d="M454.74,258.13a7.06,7.06,0,0,1-2.8-.53,5.82,5.82,0,0,1-2.1-1.53,6.77,6.77,0,0,1-1.33-2.41,11,11,0,0,1,0-6.29,6.77,6.77,0,0,1,1.33-2.41,5.82,5.82,0,0,1,2.1-1.53,7.06,7.06,0,0,1,2.8-.53,6.71,6.71,0,0,1,2.81.56,5.5,5.5,0,0,1,2,1.55,6.73,6.73,0,0,1,1.22,2.31,9.58,9.58,0,0,1,.41,2.83v1.15h-10v.47a3.84,3.84,0,0,0,1,2.74,3.66,3.66,0,0,0,2.84,1.07,4.19,4.19,0,0,0,2.27-.58,5.15,5.15,0,0,0,1.56-1.59l1.8,1.77a5.8,5.8,0,0,1-2.36,2.15A7.68,7.68,0,0,1,454.74,258.13Zm0-12.85a3.59,3.59,0,0,0-1.44.28,3.32,3.32,0,0,0-1.12.78,3.57,3.57,0,0,0-.72,1.21,4.69,4.69,0,0,0-.25,1.54v.19H458V249a4,4,0,0,0-.87-2.7A3,3,0,0,0,454.74,245.28Z"/><path class="cls-1" d="M464.6,237.08h3v8.56h.14a4.93,4.93,0,0,1,1.44-2,4.1,4.1,0,0,1,2.65-.78,4.31,4.31,0,0,1,3.48,1.47,6.28,6.28,0,0,1,1.25,4.18v9.24h-3.05v-8.87q0-3.39-2.75-3.39a4.56,4.56,0,0,0-1.16.15,3.4,3.4,0,0,0-1,.47,2.25,2.25,0,0,0-.72.78,2.28,2.28,0,0,0-.26,1.09v9.77h-3Z"/><path class="cls-1" d="M486.55,258.13a7.06,7.06,0,0,1-2.8-.53,5.82,5.82,0,0,1-2.1-1.53,6.77,6.77,0,0,1-1.33-2.41,11,11,0,0,1,0-6.29,6.77,6.77,0,0,1,1.33-2.41,5.82,5.82,0,0,1,2.1-1.53,7.06,7.06,0,0,1,2.8-.53,6.71,6.71,0,0,1,2.81.56,5.59,5.59,0,0,1,2,1.55,6.91,6.91,0,0,1,1.22,2.31,9.58,9.58,0,0,1,.41,2.83v1.15H483v.47a3.88,3.88,0,0,0,1,2.74,3.68,3.68,0,0,0,2.85,1.07,4.13,4.13,0,0,0,2.26-.58,5.07,5.07,0,0,0,1.57-1.59l1.79,1.77a5.71,5.71,0,0,1-2.35,2.15A7.71,7.71,0,0,1,486.55,258.13Zm0-12.85a3.52,3.52,0,0,0-1.44.28,3.22,3.22,0,0,0-1.12.78,3.57,3.57,0,0,0-.72,1.21,4.44,4.44,0,0,0-.25,1.54v.19h6.78V249a4,4,0,0,0-.87-2.7A3,3,0,0,0,486.55,245.28Z"/><path class="cls-1" d="M497.94,240.63a1.85,1.85,0,0,1-1.38-.45,1.58,1.58,0,0,1-.44-1.14v-.48a1.58,1.58,0,0,1,.44-1.15,1.85,1.85,0,0,1,1.38-.45,1.82,1.82,0,0,1,1.38.45,1.61,1.61,0,0,1,.42,1.15V239a1.61,1.61,0,0,1-.42,1.14A1.82,1.82,0,0,1,497.94,240.63Zm-1.54,2.61h3.06v14.55H496.4Z"/><path class="cls-1" d="M503.82,257.79V243.24h3.06v2.4H507a6.6,6.6,0,0,1,.54-1.06,3.69,3.69,0,0,1,.79-.88,3.35,3.35,0,0,1,1.09-.59,4.65,4.65,0,0,1,1.47-.21,4.77,4.77,0,0,1,2.63.73,4.11,4.11,0,0,1,1.68,2.24h.08a4.26,4.26,0,0,1,1.52-2.1,4.53,4.53,0,0,1,2.88-.87,4.13,4.13,0,0,1,3.39,1.47,6.45,6.45,0,0,1,1.2,4.18v9.24h-3v-8.87a4.26,4.26,0,0,0-.64-2.54,2.43,2.43,0,0,0-2.05-.85,4.15,4.15,0,0,0-1.12.15,3,3,0,0,0-.94.47,2.16,2.16,0,0,0-.65.78,2.28,2.28,0,0,0-.26,1.09v9.77h-3.05v-8.87q0-3.39-2.66-3.39a4.11,4.11,0,0,0-1.1.15,3,3,0,0,0-1,.47,2.21,2.21,0,0,0-.67.78,2.28,2.28,0,0,0-.25,1.09v9.77Z"/><path class="cls-1" d="M534.51,257.79v-2.57h2.66V240.83h-2.66v-2.58H543v2.58h-2.68v14.39H543v2.57Z"/><path class="cls-1" d="M547,238.25h6.92a9,9,0,0,1,3.4.62,6.91,6.91,0,0,1,2.6,1.83,8.51,8.51,0,0,1,1.67,3.05,15.75,15.75,0,0,1,0,8.54,8.43,8.43,0,0,1-1.67,3.05,6.83,6.83,0,0,1-2.6,1.84,9,9,0,0,1-3.4.61H547ZM553.92,255a4.68,4.68,0,0,0,3.52-1.38,5.51,5.51,0,0,0,1.35-4v-3.13a5.54,5.54,0,0,0-1.35-4,4.72,4.72,0,0,0-3.52-1.37h-3.76V255Z"/><path class="cls-1" d="M129.45,238.25h6.92a9,9,0,0,1,3.4.62,6.84,6.84,0,0,1,2.6,1.83,8.36,8.36,0,0,1,1.67,3.05,15.75,15.75,0,0,1,0,8.54,8.28,8.28,0,0,1-1.67,3.05,6.75,6.75,0,0,1-2.6,1.84,9,9,0,0,1-3.4.61h-6.92ZM136.37,255a4.68,4.68,0,0,0,3.52-1.38,5.51,5.51,0,0,0,1.35-4v-3.13a5.54,5.54,0,0,0-1.35-4,4.72,4.72,0,0,0-3.52-1.37h-3.75V255Z"/><path class="cls-1" d="M154.06,258.13a7,7,0,0,1-2.75-.53,5.72,5.72,0,0,1-2.12-1.53,6.79,6.79,0,0,1-1.34-2.41,10.54,10.54,0,0,1,0-6.29,6.79,6.79,0,0,1,1.34-2.41,5.72,5.72,0,0,1,2.12-1.53,7.43,7.43,0,0,1,5.51,0,5.69,5.69,0,0,1,2.11,1.53,7,7,0,0,1,1.35,2.41,10.54,10.54,0,0,1,0,6.29,7,7,0,0,1-1.35,2.41,5.69,5.69,0,0,1-2.11,1.53A7,7,0,0,1,154.06,258.13Zm0-2.55a3.38,3.38,0,0,0,2.52-1,3.91,3.91,0,0,0,1-2.88v-2.45a3.91,3.91,0,0,0-1-2.88,3.79,3.79,0,0,0-5,0,4,4,0,0,0-.95,2.88v2.45a4,4,0,0,0,.95,2.88A3.41,3.41,0,0,0,154.06,255.58Z"/><path class="cls-1" d="M164.14,257.79V243.24h3.06v2.4h.14a5.87,5.87,0,0,1,.54-1.06,3.69,3.69,0,0,1,.79-.88,3.35,3.35,0,0,1,1.09-.59,4.65,4.65,0,0,1,1.47-.21,4.77,4.77,0,0,1,2.63.73,4.21,4.21,0,0,1,1.68,2.24h.08a4.26,4.26,0,0,1,1.52-2.1,4.53,4.53,0,0,1,2.88-.87,4.16,4.16,0,0,1,3.39,1.47,6.45,6.45,0,0,1,1.2,4.18v9.24h-3.05v-8.87a4.26,4.26,0,0,0-.64-2.54,2.43,2.43,0,0,0-2-.85,4.15,4.15,0,0,0-1.12.15,3,3,0,0,0-.94.47,2.16,2.16,0,0,0-.65.78,2.28,2.28,0,0,0-.26,1.09v9.77h-3.05v-8.87q0-3.39-2.66-3.39a4.11,4.11,0,0,0-1.1.15,3,3,0,0,0-1,.47,2.21,2.21,0,0,0-.67.78,2.28,2.28,0,0,0-.25,1.09v9.77Z"/><path class="cls-1" d="M199.51,257.79a2.39,2.39,0,0,1-1.85-.68,3.12,3.12,0,0,1-.79-1.75h-.14a3.59,3.59,0,0,1-1.54,2.07,5,5,0,0,1-2.71.7A4.86,4.86,0,0,1,189,257a4.22,4.22,0,0,1-1.22-3.17,3.71,3.71,0,0,1,1.59-3.28,8.2,8.2,0,0,1,4.63-1.09h2.63v-1.23a2.77,2.77,0,0,0-.73-2.07,3.06,3.06,0,0,0-2.26-.73,3.64,3.64,0,0,0-2.1.56,5,5,0,0,0-1.38,1.43l-1.82-1.65a5.86,5.86,0,0,1,2-2,7.82,7.82,0,0,1,7.78.51,4.75,4.75,0,0,1,1.51,3.79v7.3h1.54v2.49Zm-6.16-2a4.09,4.09,0,0,0,2.35-.63,2,2,0,0,0,.92-1.7v-2.1h-2.57c-2.11,0-3.17.66-3.17,2v.51a1.72,1.72,0,0,0,.66,1.47A3,3,0,0,0,193.35,255.81Z"/><path class="cls-1" d="M205.75,240.63a1.87,1.87,0,0,1-1.39-.45,1.61,1.61,0,0,1-.43-1.14v-.48a1.62,1.62,0,0,1,.43-1.15,1.87,1.87,0,0,1,1.39-.45,1.79,1.79,0,0,1,1.37.45,1.61,1.61,0,0,1,.42,1.15V239a1.61,1.61,0,0,1-.42,1.14A1.79,1.79,0,0,1,205.75,240.63Zm-1.54,2.61h3v14.55h-3Z"/><path class="cls-1" d="M211.63,257.79V243.24h3.05v2.4h.14a4.93,4.93,0,0,1,1.44-2,4.12,4.12,0,0,1,2.65-.78,4.33,4.33,0,0,1,3.49,1.47,6.28,6.28,0,0,1,1.24,4.18v9.24h-3V249q0-3.42-2.74-3.42a4.64,4.64,0,0,0-1.17.15,3.4,3.4,0,0,0-1,.47,2.22,2.22,0,0,0-1,1.9v9.74Z"/><path class="cls-2" d="M15.21,97.1h5.67v11.66h.23A6.18,6.18,0,0,1,23,106a5.54,5.54,0,0,1,3.72-1.15,5.55,5.55,0,0,1,4.7,2.07,9.52,9.52,0,0,1,1.6,5.9v12.62H27.33V113.32a5.37,5.37,0,0,0-.62-2.89,2.38,2.38,0,0,0-2.18-.94,5.41,5.41,0,0,0-1.34.17,3.34,3.34,0,0,0-1.17.56,2.88,2.88,0,0,0-.83.94,2.66,2.66,0,0,0-.31,1.28v13H15.21Z"/><path class="cls-2" d="M45.13,125.48A6.1,6.1,0,0,1,40.66,124a5.89,5.89,0,0,1-1.52-4.37v-9.86H36.3v-4.41h1.42a1.9,1.9,0,0,0,1.58-.56,2.6,2.6,0,0,0,.42-1.59V99.9h5.1v5.45h4v4.41h-4v11.31H48.5v4.41Z"/><path class="cls-2" d="M59.63,125.48A6.1,6.1,0,0,1,55.16,124a5.89,5.89,0,0,1-1.52-4.37v-9.86H50.8v-4.41h1.42a1.89,1.89,0,0,0,1.58-.56,2.6,2.6,0,0,0,.42-1.59V99.9h5.1v5.45h4v4.41h-4v11.31H63v4.41Z"/><path class="cls-2" d="M67.26,105.35h5.68v3.37h.19A4.74,4.74,0,0,1,75.07,106a5.81,5.81,0,0,1,3.47-1.07,6.69,6.69,0,0,1,5.79,2.68q2,2.69,2,7.83c0,3.42-.65,6-2,7.84a6.68,6.68,0,0,1-5.79,2.7,6.07,6.07,0,0,1-1.88-.28,5.42,5.42,0,0,1-1.59-.81,5.23,5.23,0,0,1-1.94-2.74h-.19v11H67.26Zm9.4,16a3.49,3.49,0,0,0,2.67-1.13,4.3,4.3,0,0,0,1-3v-3.49a4.3,4.3,0,0,0-1-3,3.53,3.53,0,0,0-2.67-1.13,4.4,4.4,0,0,0-2.67.78,2.57,2.57,0,0,0-1,2.17v6a2.57,2.57,0,0,0,1,2.17A4.4,4.4,0,0,0,76.66,121.34Z"/><path class="cls-2" d="M97.41,125.94A11.59,11.59,0,0,1,92.5,125a11.45,11.45,0,0,1-3.57-2.67L92.27,119a8.59,8.59,0,0,0,2.38,1.88,6.2,6.2,0,0,0,2.95.69,3.92,3.92,0,0,0,2.34-.51,1.7,1.7,0,0,0,.66-1.4c0-1-.68-1.51-2-1.69l-2.18-.27q-6.8-.84-6.79-6.22a6.27,6.27,0,0,1,.55-2.66,5.84,5.84,0,0,1,1.58-2.07,7.15,7.15,0,0,1,2.45-1.35,10.51,10.51,0,0,1,3.24-.47,16.32,16.32,0,0,1,2.78.21,9.57,9.57,0,0,1,2.15.61,8.22,8.22,0,0,1,1.73,1,18.43,18.43,0,0,1,1.55,1.32l-3.26,3.34a7.4,7.4,0,0,0-2.17-1.52,5.84,5.84,0,0,0-2.47-.55,3.52,3.52,0,0,0-2.07.46A1.44,1.44,0,0,0,95,111a1.66,1.66,0,0,0,.45,1.25,3,3,0,0,0,1.66.63l2.27.31q6.63.89,6.63,6.06a5.94,5.94,0,0,1-.61,2.69,6.25,6.25,0,0,1-1.75,2.13,8.42,8.42,0,0,1-2.72,1.4A11.9,11.9,0,0,1,97.41,125.94Z"/><path class="cls-2" d="M113.6,111.83a3.4,3.4,0,0,1-2.55-.86,3.09,3.09,0,0,1-.83-2.21V108a3.05,3.05,0,0,1,.83-2.2,4.17,4.17,0,0,1,5.1,0A3.05,3.05,0,0,1,117,108v.77a3.09,3.09,0,0,1-.83,2.21A3.4,3.4,0,0,1,113.6,111.83Zm0,14.08a3.36,3.36,0,0,1-2.55-.87,3.05,3.05,0,0,1-.83-2.2v-.77a3.09,3.09,0,0,1,.83-2.21,4.21,4.21,0,0,1,5.1,0,3.09,3.09,0,0,1,.83,2.21v.77a3.05,3.05,0,0,1-.83,2.2A3.36,3.36,0,0,1,113.6,125.91Z"/><path class="cls-2" d="M120,131.28,131.48,97.1h4.68l-11.44,34.18Z"/><path class="cls-2" d="M130.4,131.28,141.83,97.1h4.68l-11.43,34.18Z"/><path class="cls-2" d="M157.41,125.94a10.48,10.48,0,0,1-8.48-3.6l3.34-3.38a8.55,8.55,0,0,0,2.37,1.88,6.24,6.24,0,0,0,3,.69,4,4,0,0,0,2.34-.51,1.72,1.72,0,0,0,.65-1.4c0-1-.68-1.51-2-1.69l-2.19-.27q-6.8-.84-6.79-6.22a6.27,6.27,0,0,1,.56-2.66,5.81,5.81,0,0,1,1.57-2.07,7.3,7.3,0,0,1,2.46-1.35,10.42,10.42,0,0,1,3.24-.47,16.4,16.4,0,0,1,2.78.21,9.72,9.72,0,0,1,2.15.61,8.14,8.14,0,0,1,1.72,1,18.53,18.53,0,0,1,1.56,1.32l-3.26,3.34a7.54,7.54,0,0,0-2.17-1.52,5.88,5.88,0,0,0-2.48-.55,3.52,3.52,0,0,0-2.07.46A1.43,1.43,0,0,0,155,111a1.66,1.66,0,0,0,.44,1.25,3,3,0,0,0,1.67.63l2.26.31q6.65.89,6.64,6.06a5.94,5.94,0,0,1-.62,2.69,6.34,6.34,0,0,1-1.74,2.13,8.52,8.52,0,0,1-2.72,1.4A12,12,0,0,1,157.41,125.94Z"/><path class="cls-2" d="M178.05,125.94a10.2,10.2,0,0,1-4-.74,8,8,0,0,1-3-2.11,9.23,9.23,0,0,1-1.8-3.32,14.51,14.51,0,0,1-.61-4.37,14.36,14.36,0,0,1,.61-4.36,9.4,9.4,0,0,1,1.8-3.32,7.82,7.82,0,0,1,3-2.11,10.57,10.57,0,0,1,4-.72,9,9,0,0,1,5.12,1.38,7.6,7.6,0,0,1,2.93,3.87l-4.6,2a3.84,3.84,0,0,0-1.12-2,3.22,3.22,0,0,0-2.33-.81,3.08,3.08,0,0,0-2.61,1.14,4.81,4.81,0,0,0-.89,3v3.75a4.73,4.73,0,0,0,.89,3,3.09,3.09,0,0,0,2.61,1.12,3.46,3.46,0,0,0,2.43-.83,4.82,4.82,0,0,0,1.32-2.16l4.42,1.91a7.87,7.87,0,0,1-3.09,4.22A9.18,9.18,0,0,1,178.05,125.94Z"/><path class="cls-2" d="M189.74,125.48V105.35h5.68v4.37h.19a6.37,6.37,0,0,1,.54-1.63,5,5,0,0,1,1-1.4,4.64,4.64,0,0,1,1.51-1,5.47,5.47,0,0,1,2.07-.36h1v5.29h-1.42a8.17,8.17,0,0,0-3.7.65,2.5,2.5,0,0,0-1.21,2.42v11.77Z"/><path class="cls-2" d="M212.45,125.48A6.1,6.1,0,0,1,208,124a5.89,5.89,0,0,1-1.51-4.37v-9.86h-2.84v-4.41h1.42a1.86,1.86,0,0,0,1.57-.56,2.6,2.6,0,0,0,.42-1.59V99.9h5.11v5.45h4v4.41h-4v11.31h3.68v4.41Z"/><path class="cls-2" d="M223.39,125.91a3.35,3.35,0,0,1-2.55-.87,3.05,3.05,0,0,1-.83-2.2v-.77a3.09,3.09,0,0,1,.83-2.21,4.21,4.21,0,0,1,5.1,0,3.08,3.08,0,0,1,.82,2.21v.77a3,3,0,0,1-.82,2.2A3.36,3.36,0,0,1,223.39,125.91Z"/><path class="cls-2" d="M237.62,125.48A4.91,4.91,0,0,1,232,120V97.1h5.68v24h2.53v4.41Z"/><path class="cls-2" d="M246.44,103.2a3.45,3.45,0,0,1-2.51-.79,2.69,2.69,0,0,1-.79-2v-.85a2.69,2.69,0,0,1,.79-2,4.38,4.38,0,0,1,5,0,2.69,2.69,0,0,1,.79,2v.85a2.69,2.69,0,0,1-.79,2A3.45,3.45,0,0,1,246.44,103.2Zm-2.84,2.15h5.68v20.13H243.6Z"/><path class="cls-2" d="M254.57,125.48V105.35h5.68v3.41h.23a6.1,6.1,0,0,1,1.88-2.72,6.46,6.46,0,0,1,8.42.92,9.52,9.52,0,0,1,1.59,5.9v12.62h-5.68V113.32a5.38,5.38,0,0,0-.61-2.89,2.41,2.41,0,0,0-2.19-.94,5.47,5.47,0,0,0-1.34.17,3.52,3.52,0,0,0-1.17.56,2.85,2.85,0,0,0-.82.94,2.55,2.55,0,0,0-.31,1.28v13Z"/><path class="cls-2" d="M277.43,97.1h5.68v16.76h.23l2.5-3.72,4-4.79h6.3l-6.72,7.71,7.48,12.42h-6.75L285.64,117l-2.53,2.84v5.67h-5.68Z"/><path class="cls-2" d="M297,131.28,308.47,97.1h4.68l-11.43,34.18Z"/><path class="cls-2" d="M322.85,125.48a4.92,4.92,0,0,1-5.64-5.52V97.1h5.68v24h2.53v4.41Z"/><path class="cls-2" d="M326.31,131.28,337.74,97.1h4.68L331,131.28Z"/><path class="cls-1" d="M353.39,125.48l-8.63-26.77h5.9l4,12.85,2.11,8.4h.12l2-8.4,4-12.85h5.72l-8.71,26.77Z"/><path class="cls-1" d="M372.11,98.71H382.2a13.38,13.38,0,0,1,4.83.84,9.72,9.72,0,0,1,3.72,2.52,11.42,11.42,0,0,1,2.38,4.18,20.79,20.79,0,0,1,0,11.7,11.5,11.5,0,0,1-2.38,4.18,9.69,9.69,0,0,1-3.72,2.51,13.38,13.38,0,0,1-4.83.84H372.11Zm10.09,21.6a5.65,5.65,0,0,0,4.1-1.46q1.5-1.45,1.5-4.68V110q0-3.23-1.5-4.68a5.61,5.61,0,0,0-4.1-1.46h-4.26v16.42Z"/><path class="cls-1" d="M398.54,105.35h5.67v22.28a4.91,4.91,0,0,1-5.67,5.53h-3v-4.41h3Zm2.84-2.15a3.49,3.49,0,0,1-2.52-.79,2.72,2.72,0,0,1-.78-2v-.85a2.72,2.72,0,0,1,.78-2,4.4,4.4,0,0,1,5,0,2.72,2.72,0,0,1,.78,2v.85a2.72,2.72,0,0,1-.78,2A3.46,3.46,0,0,1,401.38,103.2Z"/><path class="cls-1" d="M409.82,125.48V98.71h12.65a8.63,8.63,0,0,1,3.38.63,7.43,7.43,0,0,1,2.55,1.75,7.62,7.62,0,0,1,1.63,2.7,10.73,10.73,0,0,1,0,7,7.67,7.67,0,0,1-1.63,2.69,7.41,7.41,0,0,1-2.55,1.74,8.45,8.45,0,0,1-3.38.64h-6.82v9.66Zm5.83-14.73h6.13a3,3,0,0,0,2.06-.67,2.49,2.49,0,0,0,.74-2v-1.69a2.52,2.52,0,0,0-.74-2,3,3,0,0,0-2.06-.67h-6.13Z"/><path class="cls-1" d="M434.67,97.1h5.68v16.76h.23l2.49-3.72,4-4.79h6.29l-6.71,7.71,7.48,12.42h-6.75L442.88,117l-2.53,2.84v5.67h-5.68Z"/><path class="cls-1" d="M456.81,125.48V105.35h5.67v3.41h.23a6.23,6.23,0,0,1,1.84-2.74,5.24,5.24,0,0,1,3.57-1.13,5.94,5.94,0,0,1,3.53,1,5.76,5.76,0,0,1,2.11,3h.12a5.23,5.23,0,0,1,.82-1.59,5.57,5.57,0,0,1,1.36-1.29,7.76,7.76,0,0,1,1.81-.86,6.76,6.76,0,0,1,2.14-.32,5.24,5.24,0,0,1,4.47,2.07,9.66,9.66,0,0,1,1.56,5.9v12.62h-5.68V113.32q0-3.82-2.76-3.83a3.86,3.86,0,0,0-2.3.73,2.52,2.52,0,0,0-1,2.22v13h-5.68V113.32q0-3.82-2.76-3.83a4.53,4.53,0,0,0-1.21.17,3.14,3.14,0,0,0-1.07.56,2.82,2.82,0,0,0-.77.94,2.77,2.77,0,0,0-.29,1.28v13Z"/><path class="cls-1" d="M491.1,97.1h5.68v11.66H497a6.1,6.1,0,0,1,1.88-2.72,5.5,5.5,0,0,1,3.72-1.15,5.56,5.56,0,0,1,4.7,2.07,9.52,9.52,0,0,1,1.59,5.9v12.62h-5.68V113.32a5.38,5.38,0,0,0-.61-2.89,2.41,2.41,0,0,0-2.19-.94,5.41,5.41,0,0,0-1.34.17,3.34,3.34,0,0,0-1.17.56,2.88,2.88,0,0,0-.83.94,2.66,2.66,0,0,0-.3,1.28v13H491.1Z"/><path class="cls-1" d="M514.27,98.71h13a7,7,0,0,1,5.2,1.88,6.77,6.77,0,0,1,1.86,5,7.36,7.36,0,0,1-.4,2.6,5,5,0,0,1-1.08,1.77,4.11,4.11,0,0,1-1.57,1,6.36,6.36,0,0,1-1.94.36v.23a6.51,6.51,0,0,1,2,.35A5.76,5.76,0,0,1,533.3,113a6,6,0,0,1,1.47,1.94,6.39,6.39,0,0,1,.6,2.91,8.59,8.59,0,0,1-.52,3,7.69,7.69,0,0,1-1.44,2.44,6.68,6.68,0,0,1-2.19,1.63,6.33,6.33,0,0,1-2.76.59H514.27Zm5.83,11h5.79a2.25,2.25,0,0,0,2.46-2.46v-1.15a2.25,2.25,0,0,0-2.46-2.45H520.1Zm0,10.89h6.71a2.53,2.53,0,0,0,1.82-.63,2.31,2.31,0,0,0,.68-1.78v-1.31a2.33,2.33,0,0,0-.68-1.78,2.53,2.53,0,0,0-1.82-.63H520.1Z"/><path class="cls-1" d="M554.43,125.48a3.57,3.57,0,0,1-2.55-1A4.35,4.35,0,0,1,550.6,122h-.23a4.68,4.68,0,0,1-2,3,7,7,0,0,1-3.87,1,6.29,6.29,0,0,1-4.64-1.6,5.71,5.71,0,0,1-1.61-4.25,5.28,5.28,0,0,1,2.32-4.72,11.24,11.24,0,0,1,6.31-1.55H550v-1.26a3.37,3.37,0,0,0-.77-2.32,3.28,3.28,0,0,0-2.57-.87,4.48,4.48,0,0,0-2.68.73,7.17,7.17,0,0,0-1.65,1.65l-3.38-3a8.8,8.8,0,0,1,3.09-2.83,10.54,10.54,0,0,1,5.05-1c2.86,0,5,.62,6.44,1.88a6.9,6.9,0,0,1,2.15,5.48v8.82h1.88v4.41ZM546.57,122a4.68,4.68,0,0,0,2.43-.6,2.14,2.14,0,0,0,1-2v-2.36h-2.76c-2.23,0-3.34.74-3.34,2.24v.57a1.88,1.88,0,0,0,.69,1.62A3.24,3.24,0,0,0,546.57,122Z"/><path class="cls-1" d="M583.93,125.48h-6.75l-5.79-9.85h-.12l-5.64,9.85h-6.29l8.59-13.84-8.17-12.93h6.79l5.22,9.05h.12l5.29-9.05h6.29l-8.25,13Z"/><path class="cls-1" d="M587.19,125.48V105.35h5.68v3.41h.23a6.15,6.15,0,0,1,1.84-2.74,5.24,5.24,0,0,1,3.57-1.13,6,6,0,0,1,3.53,1,5.81,5.81,0,0,1,2.11,3h.11a5.27,5.27,0,0,1,.83-1.59,5.4,5.4,0,0,1,1.36-1.29,7.68,7.68,0,0,1,1.8-.86,6.82,6.82,0,0,1,2.15-.32,5.26,5.26,0,0,1,4.47,2.07,9.73,9.73,0,0,1,1.55,5.9v12.62h-5.68V113.32q0-3.82-2.76-3.83a3.88,3.88,0,0,0-2.3.73,2.52,2.52,0,0,0-1,2.22v13H599V113.32q0-3.82-2.76-3.83a4.48,4.48,0,0,0-1.21.17,3.09,3.09,0,0,0-1.08.56,2.79,2.79,0,0,0-.76.94,2.66,2.66,0,0,0-.29,1.28v13Z"/><path class="cls-1" d="M640.24,108.87a16.12,16.12,0,0,1-.86,5.34,21.89,21.89,0,0,1-2.22,4.62,22.73,22.73,0,0,1-3.07,3.82,23.28,23.28,0,0,1-3.44,2.83h-7.94q2.46-1.76,4.42-3.35a30.1,30.1,0,0,0,3.39-3.2,18.28,18.28,0,0,0,2.36-3.29,13.28,13.28,0,0,0,1.34-3.58l-.34-.12a10.52,10.52,0,0,1-.83,1.5,5.16,5.16,0,0,1-1.19,1.28,5.69,5.69,0,0,1-1.67.91A6.56,6.56,0,0,1,628,116a8.13,8.13,0,0,1-3.09-.59,7.36,7.36,0,0,1-4.14-4.28,9.39,9.39,0,0,1-.6-3.45,10,10,0,0,1,.71-3.8,8.43,8.43,0,0,1,2-3,9.28,9.28,0,0,1,3.16-1.94,11.75,11.75,0,0,1,4.14-.69,11.39,11.39,0,0,1,4.26.75,8.59,8.59,0,0,1,3.17,2.14,9.49,9.49,0,0,1,2,3.36A13.36,13.36,0,0,1,640.24,108.87Zm-10,2.69a4.12,4.12,0,0,0,3-1,4.08,4.08,0,0,0,1.07-3v-.69a4.07,4.07,0,0,0-1.07-3,4.8,4.8,0,0,0-6,0,4.07,4.07,0,0,0-1.07,3v.69a3.69,3.69,0,0,0,4.06,4.07Z"/><path class="cls-2" d="M655.89,118.85h-6.13l-1.15,6.63H645l1.15-6.63h-3.87V115.4h4.48l1.12-6.6H644v-3.45h4.49l1.15-6.64h3.57l-1.15,6.64h6.14l1.15-6.64H663l-1.15,6.64h3.88v3.45h-4.49l-1.11,6.6H664v3.45h-4.49l-1.15,6.63h-3.57Zm.58-3.45,1.15-6.6h-6.14l-1.15,6.6Z"/><path class="cls-1" d="M669.05,98.71h10.09a13.35,13.35,0,0,1,4.83.84,9.72,9.72,0,0,1,3.72,2.52,11.28,11.28,0,0,1,2.38,4.18,20.56,20.56,0,0,1,0,11.7,11.36,11.36,0,0,1-2.38,4.18,9.69,9.69,0,0,1-3.72,2.51,13.35,13.35,0,0,1-4.83.84H669.05Zm10.09,21.6a5.66,5.66,0,0,0,4.11-1.46q1.49-1.45,1.49-4.68V110q0-3.23-1.49-4.68a5.61,5.61,0,0,0-4.11-1.46h-4.26v16.42Z"/><path class="cls-1" d="M714.24,108.87a16.38,16.38,0,0,1-.86,5.34,21.92,21.92,0,0,1-2.23,4.62,22.24,22.24,0,0,1-3.07,3.82,22.72,22.72,0,0,1-3.43,2.83h-7.94q2.46-1.76,4.41-3.35a30.24,30.24,0,0,0,3.4-3.2,18.79,18.79,0,0,0,2.36-3.29,13.28,13.28,0,0,0,1.34-3.58l-.35-.12a10.45,10.45,0,0,1-.82,1.5,5.35,5.35,0,0,1-1.19,1.28,5.82,5.82,0,0,1-1.67.91A6.58,6.58,0,0,1,702,116a8.12,8.12,0,0,1-3.08-.59,7.67,7.67,0,0,1-2.5-1.67,7.75,7.75,0,0,1-1.65-2.61,9.6,9.6,0,0,1-.59-3.45,10,10,0,0,1,.71-3.8,8.41,8.41,0,0,1,2-3,9.33,9.33,0,0,1,3.17-1.94,11.71,11.71,0,0,1,4.14-.69,11.43,11.43,0,0,1,4.26.75,8.55,8.55,0,0,1,3.16,2.14,9.51,9.51,0,0,1,2,3.36A13.36,13.36,0,0,1,714.24,108.87Zm-10,2.69a3.7,3.7,0,0,0,4.07-4.07v-.69a4,4,0,0,0-1.08-3,4.78,4.78,0,0,0-6,0,4,4,0,0,0-1.08,3v.69a3.7,3.7,0,0,0,4.07,4.07Z"/><path class="cls-1" d="M725.9,109.3a4.82,4.82,0,0,0,3.13-.83,2.58,2.58,0,0,0,1-2v-.27a3.09,3.09,0,0,0-.94-2.34,3.76,3.76,0,0,0-2.67-.88,6,6,0,0,0-3,.82,7.25,7.25,0,0,0-2.42,2.36l-3.6-3.37a15.23,15.23,0,0,1,1.65-1.83,9.27,9.27,0,0,1,2-1.41,10.2,10.2,0,0,1,2.49-.93,14.09,14.09,0,0,1,3.11-.32,14.34,14.34,0,0,1,3.9.5,8.94,8.94,0,0,1,3,1.44,6.51,6.51,0,0,1,1.92,2.24,6.37,6.37,0,0,1,.67,2.92,6.28,6.28,0,0,1-.41,2.3,5.51,5.51,0,0,1-1.11,1.8,5.86,5.86,0,0,1-1.63,1.25,6.88,6.88,0,0,1-2,.67v.23a8,8,0,0,1,2.21.75,5.94,5.94,0,0,1,1.76,1.32,5.84,5.84,0,0,1,1.17,1.9,6.63,6.63,0,0,1,.43,2.47,7.05,7.05,0,0,1-2.8,5.76,9.75,9.75,0,0,1-3.23,1.59,14.55,14.55,0,0,1-4.14.55,14,14,0,0,1-3.6-.42,10.62,10.62,0,0,1-2.75-1.13,9.14,9.14,0,0,1-2-1.63,12.8,12.8,0,0,1-1.52-2l4.26-3.3a8.75,8.75,0,0,0,2.17,2.7,5.32,5.32,0,0,0,3.47,1.06,4.42,4.42,0,0,0,3-1,3.39,3.39,0,0,0,1.09-2.67v-.23a2.76,2.76,0,0,0-1.24-2.47,6.18,6.18,0,0,0-3.44-.83h-2.41V109.3Z"/><path class="cls-1" d="M750.53,125.94a11.4,11.4,0,0,1-4.26-.74,8.49,8.49,0,0,1-3.16-2.15,9.34,9.34,0,0,1-2-3.36,13.32,13.32,0,0,1-.67-4.37,16.07,16.07,0,0,1,.86-5.31,21.7,21.7,0,0,1,2.23-4.65,22.12,22.12,0,0,1,3.06-3.81,23.38,23.38,0,0,1,3.44-2.84H758q-2.46,1.77-4.41,3.36a28.56,28.56,0,0,0-3.4,3.2,18.88,18.88,0,0,0-2.38,3.28,12.09,12.09,0,0,0-1.32,3.59l.34.11a12.31,12.31,0,0,1,.83-1.5,5.55,5.55,0,0,1,1.19-1.28,5.92,5.92,0,0,1,1.67-.9,6.55,6.55,0,0,1,2.22-.35,8,8,0,0,1,3.09.6,7.23,7.23,0,0,1,2.49,1.67,7.32,7.32,0,0,1,1.65,2.62,9.48,9.48,0,0,1,.6,3.44,9.91,9.91,0,0,1-.71,3.79,8.36,8.36,0,0,1-2,3,9.4,9.4,0,0,1-3.17,1.93A11.53,11.53,0,0,1,750.53,125.94Zm0-4.48a4.06,4.06,0,0,0,3-1.06,4,4,0,0,0,1.07-3v-.69a4,4,0,0,0-1.07-3,4.75,4.75,0,0,0-6,0,4,4,0,0,0-1.08,3v.69a3.72,3.72,0,0,0,4.07,4.07Z"/><path class="cls-1" d="M764.84,125.48V98.71H782.6v5.18H770.67v5.45h10.16v5.17H770.67v11Z"/><path class="cls-1" d="M797.25,125.48v-5.14H785.47V115.4l10.44-16.69h6.83v17.15h3.37v4.48h-3.37v5.14Zm-7.17-9.62h7.17V104.65h-.38Z"/><path class="cls-1" d="M810.29,125.48V98.71H823a8.67,8.67,0,0,1,3.38.63,7.38,7.38,0,0,1,4.18,4.45,10.91,10.91,0,0,1,0,7,7.35,7.35,0,0,1-4.18,4.43,8.49,8.49,0,0,1-3.38.64h-6.83v9.66Zm5.83-14.73h6.14a2.94,2.94,0,0,0,2-.67,2.49,2.49,0,0,0,.75-2v-1.69a2.53,2.53,0,0,0-.75-2,3,3,0,0,0-2-.67h-6.14Z"/><path class="cls-1" d="M847.46,105.35h5.3L845,128.59a7.09,7.09,0,0,1-2.17,3.45,6.26,6.26,0,0,1-4,1.12H835.3v-4.41h3.8l.69-2.23-7.06-21.17h5.64l3,9.39,1.45,5.83H843l1.5-5.83Z"/><path class="cls-1" d="M861.46,98.71v16.42a6.77,6.77,0,0,0,1.12,4.24,5.64,5.64,0,0,0,7.44,0,6.77,6.77,0,0,0,1.11-4.24V98.71h5.68v15.8a20.9,20.9,0,0,1-.56,5.13,8.3,8.3,0,0,1-1.82,3.56,7.38,7.38,0,0,1-3.26,2.07,18,18,0,0,1-9.74,0,7.38,7.38,0,0,1-3.26-2.07,8.2,8.2,0,0,1-1.83-3.56,20.94,20.94,0,0,1-.55-5.13V98.71Z"/><path class="cls-1" d="M900.4,132.54h-3.61c-2.07,0-3.58-.48-4.52-1.45a5.81,5.81,0,0,1-1.42-4.22v-1.12a10.35,10.35,0,0,1-6.81-4.2c-1.68-2.29-2.51-5.44-2.51-9.45a19.52,19.52,0,0,1,.84-6,12.2,12.2,0,0,1,2.38-4.33,9.75,9.75,0,0,1,3.72-2.63,13.72,13.72,0,0,1,9.67,0,9.91,9.91,0,0,1,3.72,2.63,12.36,12.36,0,0,1,2.38,4.33,19.52,19.52,0,0,1,.84,6c0,3.88-.79,7-2.36,9.24a10.15,10.15,0,0,1-6.42,4.3v2.15h4.1Zm-7.1-11.77a5.15,5.15,0,0,0,4.13-1.73,7.42,7.42,0,0,0,1.47-5v-4a7.42,7.42,0,0,0-1.47-4.95,5.81,5.81,0,0,0-8.25,0,7.37,7.37,0,0,0-1.48,4.95v4a7.37,7.37,0,0,0,1.48,5A5.13,5.13,0,0,0,893.3,120.77Z"/><path class="cls-1" d="M914.59,125.48V115l-9.16-16.3H912l5.75,10.66h.08l5.52-10.66h6.33L920.46,115v10.51Z"/><path class="cls-1" d="M932.24,97.1h5.68v11.66h.23A6,6,0,0,1,940,106a5.5,5.5,0,0,1,3.72-1.15,5.58,5.58,0,0,1,4.7,2.07,9.52,9.52,0,0,1,1.59,5.9v12.62h-5.68V113.32a5.38,5.38,0,0,0-.61-2.89,2.41,2.41,0,0,0-2.19-.94,5.41,5.41,0,0,0-1.34.17,3.34,3.34,0,0,0-1.17.56,2.88,2.88,0,0,0-.83.94,2.66,2.66,0,0,0-.3,1.28v13h-5.68Z"/><path class="cls-1" d="M971.44,114.51h-10.2v11h-5.83V98.71h5.83v10.63h10.2V98.71h5.83v26.77h-5.83Z"/><path class="cls-1" d="M993.16,125.48v-5.14H981.38V115.4l10.43-16.69h6.83v17.15H1002v4.48h-3.38v5.14ZM986,115.86h7.18V104.65h-.39Z"/><path class="cls-3" d="M1002.12,157.65c0,19.61-29.59,35.57-66,35.57H879.9L837.7,216l-42.21-22.75H739.24c-36.38,0-66-16-66-35.57"/><path class="cls-4" d="M636.57,157.65c0,19.61-25.61,35.57-57.1,35.57h-48.7L494.24,216l-36.53-22.75H409c-31.49,0-57.1-16-57.1-35.57"/><path class="cls-5" d="M326.41,157.65c0,19.61-27,35.57-60.18,35.57H214.91L176.42,216l-38.5-22.75H86.59c-33.18,0-60.17-16-60.17-35.57"/></g></svg>