<svg xmlns="http://www.w3.org/2000/svg" xmlns:xlink="http://www.w3.org/1999/xlink" x="0px" y="0px" width="290.918px" height="86.199px" viewBox="0 0 290.918 86.199" enable-background="new 0 0 290.918 86.199"
	 xml:space="preserve">
<path fill="#FFFFFF" d="M280.143,0H10.775C4.849,0,0,4.85,0,10.775v64.648c0,5.927,4.849,10.774,10.775,10.774h269.368
	c5.926,0,10.775-4.85,10.775-10.774V10.775C290.918,4.85,286.068,0,280.143,0z M289.193,75.424c0,4.99-4.061,9.051-9.051,9.051
	H10.775c-4.991,0-9.05-4.061-9.05-9.051V10.775c0-4.99,4.059-9.051,9.05-9.051h269.368c4.992,0,9.051,4.061,9.051,9.051V75.424
	L289.193,75.424z"/>
<rect x="178.061" y="37.709" fill="#FFFFFF" width="4.026" height="26.939"/>
<rect x="230.443" y="37.709" fill="#FFFFFF" width="4.02" height="26.939"/>
<polygon fill="#FFFFFF" points="262.051,59.094 261.912,59.094 257.129,47.414 252.798,47.414 259.973,63.738 255.881,72.818 
	260.074,72.818 271.132,47.414 266.66,47.414 "/>
<path fill="#FFFFFF" d="M244.34,46.824c-2.91,0-5.926,1.283-7.174,4.125l3.568,1.49c0.762-1.49,2.186-1.977,3.676-1.977
	c2.078,0,4.193,1.246,4.229,3.467v0.275c-0.729-0.416-2.289-1.039-4.195-1.039c-3.846,0-7.764,2.111-7.764,6.062
	c0,3.605,3.154,5.93,6.689,5.93c2.703,0,4.193-1.215,5.129-2.637h0.141v2.08h3.881v-10.33
	C252.52,49.494,248.949,46.824,244.34,46.824z M243.854,61.59c-1.312,0-3.15-0.658-3.15-2.287c0-2.08,2.286-2.877,4.264-2.877
	c1.768,0,2.6,0.381,3.674,0.9C248.326,59.822,246.178,61.59,243.854,61.59z"/>
<path fill="#FFFFFF" d="M146.828,46.875c-5.067,0-9.198,3.854-9.198,9.166c0,5.275,4.131,9.164,9.198,9.164
	c5.07,0,9.201-3.889,9.201-9.164C156.029,50.729,151.898,46.875,146.828,46.875z M146.828,61.594c-2.776,0-5.172-2.291-5.172-5.553
	c0-3.299,2.396-5.557,5.172-5.557c2.779,0,5.174,2.258,5.174,5.557C152.002,59.303,149.607,61.594,146.828,61.594z"/>
<path fill="#FFFFFF" d="M171.464,48.922h-0.14c-0.902-1.076-2.639-2.047-4.826-2.047c-4.582,0-8.783,4.027-8.783,9.201
	c0,5.137,4.201,9.129,8.783,9.129c2.188,0,3.924-0.973,4.826-2.082h0.14v1.318c0,3.508-1.875,5.381-4.896,5.381
	c-2.465,0-3.992-1.771-4.617-3.264l-3.506,1.459c1.006,2.43,3.678,5.416,8.123,5.416c4.723,0,8.715-2.777,8.715-9.551V47.43h-3.819
	V48.922z M166.848,61.594c-2.779,0-5.104-2.326-5.104-5.518c0-3.23,2.324-5.592,5.104-5.592c2.741,0,4.895,2.36,4.895,5.592
	C171.74,59.268,169.589,61.594,166.848,61.594z"/>
<path fill="#FFFFFF" d="M102.885,49.686v3.891h9.305c-0.278,2.188-1.007,3.781-2.118,4.896c-1.354,1.354-3.472,2.848-7.187,2.848
	c-5.728,0-10.206-4.617-10.206-10.346s4.478-10.348,10.206-10.348c3.091,0,5.347,1.215,7.013,2.779l2.743-2.744
	c-2.326-2.223-5.415-3.922-9.756-3.922c-7.846,0-14.442,6.387-14.442,14.232s6.596,14.233,14.442,14.233
	c4.235,0,7.43-1.39,9.929-3.992c2.57-2.569,3.368-6.18,3.368-9.096c0-0.902-0.069-1.736-0.208-2.433H102.885L102.885,49.686z"/>
<path fill="#FFFFFF" d="M200.521,52.707c-0.766-2.047-3.09-5.832-7.848-5.832c-4.723,0-8.646,3.715-8.646,9.166
	c0,5.137,3.891,9.164,9.098,9.164c4.199,0,6.631-2.568,7.641-4.062l-3.125-2.082c-1.043,1.527-2.466,2.533-4.516,2.533
	c-2.049,0-3.506-0.936-4.441-2.777l12.254-5.066L200.521,52.707z M188.023,55.762c-0.104-3.541,2.744-5.346,4.791-5.346
	c1.598,0,2.951,0.799,3.401,1.943L188.023,55.762z"/>
<path fill="#FFFFFF" d="M219.387,37.709h-9.635v26.939h4.02V54.443h5.615c4.456,0,8.838-3.229,8.838-8.367
	C228.225,40.936,223.843,37.709,219.387,37.709z M219.49,50.693h-5.721v-9.234h5.721c3.006,0,4.713,2.49,4.713,4.617
	C224.203,48.164,222.496,50.693,219.49,50.693z"/>
<path fill="#FFFFFF" d="M126.759,46.875c-5.069,0-9.2,3.854-9.2,9.166c0,5.275,4.131,9.164,9.2,9.164
	c5.07,0,9.201-3.889,9.201-9.164C135.959,50.729,131.829,46.875,126.759,46.875z M126.759,61.594c-2.777,0-5.173-2.291-5.173-5.553
	c0-3.299,2.396-5.557,5.173-5.557c2.778,0,5.173,2.258,5.173,5.557C131.932,59.303,129.537,61.594,126.759,61.594z"/>
<path fill="#FFFFFF" d="M72.2,42.211c-0.309-1.201-1.225-2.281-2.674-3.1l-11.39-6.429l-0.044,0.044l-30.71-17.552
	c-1.003-0.573-1.985-0.863-2.918-0.863c-0.111,0-0.219,0.005-0.339,0.013c-0.232,0.021-0.457,0.062-0.675,0.117
	c-0.097,0.024-0.188,0.061-0.281,0.092c-0.118,0.041-0.235,0.082-0.346,0.133c-0.097,0.044-0.189,0.094-0.281,0.146
	c-0.095,0.055-0.186,0.113-0.274,0.175c-0.102,0.071-0.201,0.144-0.294,0.225c-0.008,0.008-0.019,0.013-0.027,0.021L21.8,15.362
	c-0.044,0.043-0.088,0.087-0.13,0.133l-0.048,0.052c-0.027,0.03-0.055,0.058-0.082,0.089l-0.507,0.551l0.075,0.075
	c-0.342,0.604-0.56,1.336-0.646,2.162l-0.036,0.074v0.203c-0.008,0.144-0.013,0.289-0.013,0.438h0.007c0,0.005,0,0.011-0.001,0.016
	l-0.006,47.897h0.006c0.056,1.41,0.494,2.586,1.301,3.438l0.854,0.821l0.148-0.146c0.527,0.266,1.114,0.414,1.747,0.414
	c0.932,0,1.912-0.288,2.912-0.855L58.6,52.953l0.168,0.295l10.78-6.141c0.614-0.353,1.134-0.748,1.555-1.188
	c0,0,0.001-0.001,0.002-0.002l0,0c0.216-0.228,0.406-0.465,0.568-0.713l-0.146-0.097c0.003-0.004,0.007-0.01,0.01-0.015l0.147,0.093
	l-0.146-0.096c0.43-0.579,0.696-1.209,0.778-1.864l0.003-0.031h0.005c0-0.005,0-0.009,0-0.013l-0.001-0.973L72.2,42.211L72.2,42.211
	z M22.377,66.738V19.471c0-0.656,0.105-1.231,0.304-1.693l25.271,25.193l-0.131,0.131l0.044,0.045l-25.198,25.24
	C22.479,67.934,22.377,67.379,22.377,66.738z M49.339,41.579L24.295,16.612c0.619-0.046,1.348,0.148,2.112,0.584l30.094,17.2
	L49.339,41.579z M26.409,69.014c-0.765,0.435-1.501,0.644-2.12,0.588l25.053-24.976l7.213,7.231L26.409,69.014z M68.575,45.08
	l-10.024,5.71l-7.815-7.828l7.534-7.555l0.236,0.135l0.048-0.049l10.006,5.646c0.795,0.448,1.35,0.974,1.625,1.52
	c0.017,0.034,0.023,0.068,0.038,0.103c0.054,0.123,0.091,0.248,0.115,0.372C70.183,43.829,69.566,44.516,68.575,45.08z"/>
<g>
	<g>
		<path fill="#FFFFFF" d="M102.378,21.911c0,1.804-0.534,3.241-1.604,4.313c-1.216,1.275-2.8,1.912-4.747,1.912
			c-1.866,0-3.452-0.646-4.756-1.938c-1.306-1.293-1.958-2.896-1.958-4.812c0-1.915,0.652-3.517,1.958-4.811
			c1.304-1.293,2.89-1.941,4.756-1.941c0.925,0,1.811,0.181,2.652,0.542c0.841,0.361,1.517,0.841,2.021,1.443l-1.136,1.138
			c-0.856-1.022-2.034-1.533-3.537-1.533c-1.361,0-2.537,0.478-3.53,1.435c-0.992,0.957-1.489,2.2-1.489,3.727
			c0,1.527,0.497,2.771,1.489,3.727c0.993,0.957,2.169,1.435,3.53,1.435c1.442,0,2.646-0.479,3.609-1.443
			c0.625-0.626,0.986-1.497,1.083-2.616h-4.692v-1.552h6.261C102.349,21.273,102.378,21.598,102.378,21.911z"/>
		<path fill="#FFFFFF" d="M112.306,16.514h-5.885v4.097h5.306v1.552h-5.306v4.097h5.885v1.588h-7.544V14.926h7.544V16.514z"/>
		<path fill="#FFFFFF" d="M119.307,27.849h-1.662V16.514h-3.609v-1.588h8.88v1.588h-3.61L119.307,27.849L119.307,27.849z"/>
		<path fill="#FFFFFF" d="M129.342,27.849V14.926h1.66v12.923H129.342z"/>
		<path fill="#FFFFFF" d="M138.367,27.849h-1.662V16.514h-3.609v-1.588h8.88v1.588h-3.609V27.849L138.367,27.849z"/>
		<path fill="#FFFFFF" d="M158.787,26.179c-1.271,1.306-2.852,1.958-4.739,1.958s-3.469-0.652-4.735-1.958
			c-1.271-1.304-1.903-2.903-1.903-4.792c0-1.889,0.633-3.487,1.903-4.792c1.268-1.306,2.848-1.96,4.735-1.96
			c1.879,0,3.454,0.656,4.729,1.969c1.274,1.312,1.912,2.907,1.912,4.783C160.689,23.276,160.057,24.875,158.787,26.179z
			 M150.538,25.097c0.957,0.967,2.126,1.452,3.51,1.452c1.386,0,2.556-0.484,3.511-1.452c0.957-0.969,1.438-2.206,1.438-3.71
			c0-1.504-0.479-2.741-1.438-3.71c-0.955-0.967-2.125-1.452-3.511-1.452c-1.384,0-2.553,0.484-3.51,1.452
			c-0.955,0.969-1.435,2.206-1.435,3.71C149.104,22.891,149.583,24.128,150.538,25.097z"/>
		<path fill="#FFFFFF" d="M163.021,27.849V14.926h2.021l6.28,10.054h0.072l-0.072-2.49v-7.563h1.662V27.85h-1.733l-6.569-10.54
			h-0.072l0.072,2.49v8.049H163.021z"/>
	</g>
	<g>
		<g>
			<path opacity="0.2" fill="#FFFFFF" enable-background="new    " d="M58.463,51.823L27.201,69.586
				c-1.749,0.993-3.312,0.928-4.316,0.025l0,0l-0.16,0.16l0,0l0.159,0.155l0.001-0.004c1.003,0.905,2.567,0.974,4.316-0.022
				l31.463-17.877L58.463,51.823z"/>
			<path opacity="0.12" fill="#FFFFFF" enable-background="new    " d="M22.726,69.455c-0.626-0.664-0.997-1.689-0.997-3.023v0.312
				c0,1.334,0.371,2.361,0.997,3.027l0.16-0.16L22.726,69.455z"/>
		</g>
	</g>
</g>
</svg>
