<?xml version="1.0" encoding="utf-8"?>
<!-- Generator: Adobe Illustrator 26.0.1, SVG Export Plug-In . SVG Version: 6.00 Build 0)  -->
<svg version="1.1" id="Layer_1" xmlns="http://www.w3.org/2000/svg" xmlns:xlink="http://www.w3.org/1999/xlink" x="0px" y="0px"
	 viewBox="0 0 420 124" style="enable-background:new 0 0 420 124;" xml:space="preserve">
<style type="text/css">
	.st0{fill:#FFFFFF;}
	.st1{fill:#E01E5A;}
	.st2{fill:#36C5F0;}
	.st3{fill:#2EB67D;}
	.st4{fill:#ECB22E;}
</style>
<g>
	<g>
		<path class="st0" d="M137.9,91.1l5-11.6c5.4,4,12.5,6.1,19.6,6.1c5.2,0,8.5-2,8.5-5.1c-0.1-8.5-31.3-1.9-31.6-23.3
			c-0.1-10.9,9.6-19.3,23.3-19.3c8.2,0,16.3,2,22.1,6.6l-4.6,11.8c-5.3-3.4-11.9-5.8-18.2-5.8c-4.3,0-7.1,2-7.1,4.6
			c0.1,8.4,31.6,3.8,31.9,24.2c0,11.1-9.5,18.9-22.9,18.9C154,98.4,144.9,96.1,137.9,91.1"/>
		<path class="st0" d="M329.7,75.3c-2.5,4.4-7.2,7.3-12.6,7.3c-8,0-14.4-6.5-14.4-14.4s6.5-14.4,14.4-14.4c5.4,0,10.1,3,12.6,7.3
			l13.8-7.6c-5.2-9.2-15-15.5-26.4-15.5c-16.7,0-30.2,13.5-30.2,30.2s13.5,30.2,30.2,30.2c11.3,0,21.2-6.2,26.4-15.5L329.7,75.3z"/>
		<rect x="193.8" y="12.9" class="st0" width="17.3" height="84.4"/>
		<polygon class="st0" points="350.2,12.9 350.2,97.2 367.5,97.2 367.5,72 387.9,97.2 410,97.2 384,67.2 408.1,39.2 387,39.2 
			367.5,62.5 367.5,12.9 		"/>
		<path class="st0" d="M262.3,75.4c-2.5,4.1-7.7,7.2-13.5,7.2c-8,0-14.4-6.5-14.4-14.4s6.5-14.4,14.4-14.4c5.8,0,11,3.2,13.5,7.4
			L262.3,75.4L262.3,75.4z M262.3,39.2v6.9c-2.8-4.7-9.8-8-17.1-8c-15.1,0-27.1,13.4-27.1,30.1s11.9,30.3,27.1,30.3
			c7.3,0,14.3-3.3,17.1-8v6.9h17.3V39.2H262.3z"/>
	</g>
	<g>
		<path class="st1" d="M31.3,75.3c0,5.9-4.8,10.7-10.7,10.7S10,81.2,10,75.3s4.8-10.7,10.7-10.7h10.7V75.3z"/>
		<path class="st1" d="M36.7,75.3c0-5.9,4.8-10.7,10.7-10.7S58,69.4,58,75.3V102c0,5.9-4.8,10.7-10.7,10.7s-10.7-4.8-10.7-10.7V75.3
			z"/>
	</g>
	<g>
		<path class="st2" d="M47.3,32.7c-5.9,0-10.7-4.8-10.7-10.7s4.8-10.7,10.7-10.7S58,16.1,58,22v10.7H47.3z"/>
		<path class="st2" d="M47.3,38C53.2,38,58,42.8,58,48.7s-4.8,10.7-10.7,10.7H20.7c-5.9,0-10.7-4.8-10.7-10.7S14.8,38,20.7,38H47.3z
			"/>
	</g>
	<g>
		<path class="st3" d="M90,48.7c0-5.9,4.8-10.7,10.7-10.7s10.7,4.8,10.7,10.7s-4.8,10.7-10.7,10.7H90V48.7z"/>
		<path class="st3" d="M84.6,48.7c0,5.9-4.8,10.7-10.7,10.7s-10.7-4.8-10.7-10.7V22c0-5.9,4.8-10.7,10.7-10.7S84.6,16.1,84.6,22
			V48.7z"/>
	</g>
	<g>
		<path class="st4" d="M74,91.3c5.9,0,10.7,4.8,10.7,10.7s-4.8,10.7-10.7,10.7s-10.7-4.8-10.7-10.7V91.3H74z"/>
		<path class="st4" d="M74,86c-5.9,0-10.7-4.8-10.7-10.7S68.1,64.7,74,64.7h26.7c5.9,0,10.7,4.8,10.7,10.7S106.5,86,100.6,86H74z"/>
	</g>
</g>
</svg>
