<svg xmlns="http://www.w3.org/2000/svg" viewBox="0 0 120 180"><defs><style>.cls-1{opacity:0.7;}.cls-2,.cls-8{fill:#fff;}.cls-3,.cls-5,.cls-6,.cls-9{fill:#1b242e;}.cls-3{opacity:0.3;}.cls-4,.cls-7{fill:#ff0083;}.cls-5{opacity:0.2;}.cls-6{opacity:0.4;}.cls-7,.cls-8{stroke:#1b242e;stroke-miterlimit:10;}.cls-7{stroke-width:0.94px;}.cls-8{stroke-width:3.75px;}</style></defs><g id="Layer_1" data-name="Layer 1"><g class="cls-1"><polygon class="cls-2" points="113.72 63.58 76.99 117.61 74.8 116.15 110.32 61.33 113.72 63.58 113.72 63.58"/></g><ellipse class="cls-3" cx="110.68" cy="65.06" rx="4.98" ry="3.58"/><polygon class="cls-2" points="84.91 62.68 69.71 117.4 67.27 116.78 79.61 61.35 84.91 62.68 84.91 62.68"/><polygon class="cls-2" points="50.68 62.48 63.33 116.48 61.82 116.89 45.39 63.92 50.68 62.48 50.68 62.48"/><ellipse class="cls-3" cx="49.32" cy="65.71" rx="4.98" ry="3.58"/><ellipse class="cls-3" cx="81.53" cy="65.4" rx="4.98" ry="3.58"/><g id="LMbZCR"><path class="cls-2" d="M114.16,3c-8,17.67,19.14,27.63-2.82,46.54-2.18-3.06-14.65-5.09-14.29-16.44-15.2.73-4.13-21-2.91-21.8a7.17,7.17,0,0,0,1.17,5.21,11.22,11.22,0,0,0,4.67,3.6C99.34,17.09,102.82,9.16,114.16,3Z"/></g><g class="cls-1"><path class="cls-2" d="M11.26,67.34c23.19,2,38.39,32.61,45.66,51.92l-2.41.87a138.42,138.42,0,0,0-7.4-15.69c-5.53-10-12.06-19.71-21.2-26.63C21.44,74.49,16.29,72.23,11,72l.24-4.68Z"/></g><path class="cls-4" d="M32.26,58.7a16.4,16.4,0,0,1,13.43,7h6a16.41,16.41,0,0,1,26.86,0h6a16.41,16.41,0,0,1,26.86,0h2.93a49.27,49.27,0,0,0-98.53,0h3.06A16.4,16.4,0,0,1,32.26,58.7Z"/><path class="cls-5" d="M51.77,65.84s14.55-23,11.8-45.5C77.66,35.6,79,58.86,78.51,65.42,71.48,58.86,51.77,65.84,51.77,65.84Z"/><path class="cls-6" d="M46.57,23c-.9,2.86-2.35,7.51-6.21,9.35,2.45-7.94-.19-12.2-2.59-23.42C31.44,24.75.12,43.64.12,43.64S4.5,75.34,13.91,80.85A23.87,23.87,0,0,1,27.8,67.09a23.08,23.08,0,0,1,15.08,6.34C43.53,70.14,58.62,46.79,46.57,23Z"/><path class="cls-5" d="M86.2,69.37s13.4-22.54-.67-46c10.79,4.22,20.39,19.64,23.2,39.35C101.7,56.15,86.2,69.37,86.2,69.37Z"/><rect class="cls-7" x="33.37" y="113.08" width="65.68" height="65.68" rx="6.53"/><circle class="cls-8" cx="61.05" cy="145.92" r="9.38"/><rect class="cls-9" x="84.98" y="146.88" width="2.61" height="5.58" rx="1.31"/><rect class="cls-9" x="31.02" y="125.51" width="4.69" height="9.38"/><rect class="cls-9" x="31.02" y="156.95" width="4.69" height="9.38"/><circle class="cls-9" cx="86.39" cy="145.95" r="2.82"/><path class="cls-9" d="M40.5,68.07c2.42-7.3,1.64-17.61-.24-19.33-2.22,7.53-5.86,9.62-8,9.76-5.44.15-7.88-3.52-6.13-13.3-13.93,12.58-15.57,21-15.57,21S40.05,68.9,40.5,68.07Z"/><path class="cls-2" d="M5.79,41.74c4.15,3.06,10.75,3.22,14.69,3a22.67,22.67,0,0,1-.77-6c0-6.31,3.32-13.1,5-14.39a2.5,2.5,0,0,1,0,.45,16,16,0,0,0,.49,4.78,12.05,12.05,0,0,0,4.48,6.94,3.92,3.92,0,0,0,.64.34,2.13,2.13,0,0,0-.27-.84l-.36-.81A29.72,29.72,0,0,1,27.46,24.9a32.45,32.45,0,0,1,1-10.88,20.66,20.66,0,0,1,3-6.12A25.07,25.07,0,0,1,40.14.44,6.34,6.34,0,0,1,41,.11c-.36.77-.72,1.38-1,2a12.18,12.18,0,0,0,.25,8.27A24,24,0,0,0,44.6,17.9a74.57,74.57,0,0,1,6.11,7.9c2.53,4,4.57,8.19,4.95,13a15.75,15.75,0,0,1-2.09,9.44,21.53,21.53,0,0,1-8.63,8c-.36.2-.75.34-1.07.48.76-2,1.58-4,2.22-6a18.67,18.67,0,0,0,.56-9.53,16.16,16.16,0,0,0-5.26-9,2.92,2.92,0,0,0-.52-.29c0,.32-.06.53-.06.73a10.64,10.64,0,0,1-1.09,4,23.7,23.7,0,0,1-4.37,6.15,11.13,11.13,0,0,0-2.84,6c-.2,1.24-.25,2.51-.39,3.94-2.37-2.2-2.82-5-2.76-8.13-5.83,3.08-2.18,11.63-3,14-11-6.29-11.09-1.15-8.95,1.58C12.47,63.89,5.09,54.33,5.79,41.74Z"/></g></svg>